<?xml version="1.0" encoding="UTF-8" standalone="no"?>
<!-- Created with Inkscape (http://www.inkscape.org/) -->

<svg
   width="100"
   height="100"
   viewBox="0 0 11.933846 11.933846"
   version="1.1"
   id="svg135"
   inkscape:version="1.2 (dc2aedaf03, 2022-05-15)"
   sodipodi:docname="1s.svg"
   inkscape:export-filename="..\one2.png"
   inkscape:export-xdpi="96"
   inkscape:export-ydpi="96"
   xmlns:inkscape="http://www.inkscape.org/namespaces/inkscape"
   xmlns:sodipodi="http://sodipodi.sourceforge.net/DTD/sodipodi-0.dtd"
   xmlns:xlink="http://www.w3.org/1999/xlink"
   xmlns="http://www.w3.org/2000/svg"
   xmlns:svg="http://www.w3.org/2000/svg">
  <sodipodi:namedview
     id="namedview137"
     pagecolor="#ffffff"
     bordercolor="#000000"
     borderopacity="0.25"
     inkscape:showpageshadow="2"
     inkscape:pageopacity="0.0"
     inkscape:pagecheckerboard="0"
     inkscape:deskcolor="#d1d1d1"
     inkscape:document-units="mm"
     showgrid="false"
     guidehicolor="#ff238d"
     guidehiopacity="0.49803922"
     inkscape:lockguides="false"
     inkscape:zoom="4"
     inkscape:cx="19.125"
     inkscape:cy="58.625"
     inkscape:window-width="1440"
     inkscape:window-height="878"
     inkscape:window-x="-6"
     inkscape:window-y="-6"
     inkscape:window-maximized="1"
     inkscape:current-layer="layer1" />
  <defs
     id="defs132">
    <color-profile
       name="Agfa-:-Swop-Standard"
       xlink:href="file:///WINDOWS/system32/spool/drivers/color/RSWOP.icm"
       id="color-profile2696" />
    <color-profile
       name="ASUS_UX3402ZA_8086_834C4171_CMDEF"
       xlink:href="file:///WINDOWS/system32/spool/drivers/color/AsusICM/UX3402ZA_8086_834C4171_CMDEF.icm"
       id="color-profile2698" />
  </defs>
  <g
     inkscape:label="Layer 1"
     inkscape:groupmode="layer"
     id="layer1">
    <g
       id="g2274"
       transform="translate(0.02209623,0.17044425)">
      <path
         style="opacity:0.99;fill:#ffc8c8;fill-opacity:1;stroke-width:0.119526;paint-order:markers fill stroke"
         d="m 1.1119851,2.1886557 c 0.2413341,-0.6536984 -0.00438,0.014684 0.2074314,-0.5688123 0.026932,-0.074192 0.1012955,-0.2730928 0.1249929,-0.3377945 0.032929,-0.089908 0.066352,-0.1859282 0.099187,-0.2771553 0.028545,-0.0793092 0.056888,-0.15360948 0.085045,-0.23035941 0.046737,-0.12739358 6.097e-4,-0.003363 0.037343,-0.10809327 0.00791,-0.0225453 0.015305,-0.0395481 0.0232,-0.0612977 0.025087,-0.0691089 0.042377,-0.11653341 0.064451,-0.16840321 -0.031484,0.10690805 -0.049519,0.1797565 -0.071888,0.26726331 -0.021411,0.0837569 -0.041675,0.16634542 -0.057682,0.23727324 -0.005,0.0221791 -0.015366,0.0597666 -0.019227,0.0790909 -0.00244,0.012181 -8.706e-4,0.018041 -0.00378,0.032624 -0.00167,0.00836 -0.00662,0.024827 -0.00769,0.031636 -0.00366,0.023273 -7.713e-4,0.030729 -0.00372,0.04943 -0.00387,0.02462 -0.00646,0.011676 -0.00639,0.031965 1.55e-5,0.00408 0.0043,-0.00423 0.00391,9.922e-4 -2.211e-4,0.00291 -0.011281,0.058715 -0.012778,0.06393 -0.016815,0.058535 -0.13882,0.409549 -0.1416121,0.4175417 C 1.3358723,1.9258777 1.3485013,1.8871446 1.2331012,2.202468 1.1989722,2.295723 1.0221302,2.7897704 0.96506436,2.9238653 0.81145057,3.3294515 0.65692156,3.7294195 0.50106906,4.149814 c -0.023779,0.064143 -0.063931,0.1661127 -0.086348,0.2300299 -0.018885,0.053848 -0.023395,0.068538 -0.039949,0.1074349"
         id="path1188" />
      <path
         style="opacity:0.99;fill:#ffc8c8;fill-opacity:1;stroke-width:0.119526;paint-order:markers fill stroke"
         d="m 2.4908491,4.1228199 c 0.2413341,-0.8716021 -0.00438,0.019582 0.2074315,-0.7584201 0.026932,-0.098923 0.1012955,-0.3641258 0.1249928,-0.4503949 0.03293,-0.1198785 0.066352,-0.2479057 0.099187,-0.3695428 0.028545,-0.1057461 0.056888,-0.2048136 0.085045,-0.3071475 0.046737,-0.1698591 6.089e-4,-0.00448 0.037342,-0.1441253 0.00791,-0.030061 0.015304,-0.052731 0.0232,-0.081731 0.025087,-0.092145 0.042377,-0.1553786 0.064451,-0.2245387 -0.031483,0.1425449 -0.049519,0.2396766 -0.071888,0.356353 -0.021411,0.1116766 -0.041675,0.2217952 -0.057682,0.3163661 -0.005,0.029573 -0.015366,0.079689 -0.019228,0.1054552 -0.00244,0.016242 -8.705e-4,0.024055 -0.00378,0.043499 -0.00167,0.011146 -0.00662,0.033102 -0.00769,0.042182 -0.00366,0.031034 -7.713e-4,0.040974 -0.00372,0.065904 -0.00387,0.03283 -0.00646,0.015568 -0.00639,0.04262 1.55e-5,0.00544 0.0043,-0.00565 0.00391,0.00129 -2.219e-4,0.00388 -0.011281,0.078289 -0.012779,0.085242 C 2.9364364,2.923881 2.8144307,3.3919022 2.8116387,3.4025593 2.7147327,3.7724162 2.7273617,3.7207718 2.6119616,4.1412056 2.5778326,4.2655463 2.4009906,4.9242796 2.3439248,5.103074 2.190311,5.6438588 2.035782,6.1771522 1.8799295,6.7376813 c -0.023779,0.085524 -0.063931,0.221485 -0.086348,0.3067083 -0.018885,0.071798 -0.023396,0.091384 -0.039948,0.1432473"
         id="path1188-5" />
      <path
         style="opacity:0.99;fill:#ffc8c8;fill-opacity:1;stroke-width:0.119526;paint-order:markers fill stroke"
         d="M 3.86971,6.0569835 C 4.1110441,4.9674774 3.86534,6.0814574 4.0771416,5.1089551 4.1040746,4.9853016 4.1784372,4.6537968 4.2021347,4.5459596 c 0.03293,-0.1498485 0.066352,-0.309883 0.099187,-0.4619294 0.028542,-0.1321832 0.056888,-0.2560185 0.085045,-0.3839355 0.046735,-0.2123248 6.315e-4,-0.00561 0.037337,-0.1801577 0.00791,-0.037578 0.015308,-0.065914 0.023202,-0.1021632 0.025087,-0.1151824 0.04238,-0.1942243 0.06445,-0.2806745 -0.031483,0.1781815 -0.049519,0.2995966 -0.071888,0.4454426 -0.021407,0.1395961 -0.041672,0.2772447 -0.057682,0.3954589 -0.005,0.036965 -0.015367,0.099612 -0.019226,0.131819 -0.00245,0.020304 -8.66e-4,0.03007 -0.00379,0.054373 -0.00168,0.013931 -0.00662,0.04138 -0.00769,0.052728 -0.00365,0.038788 -7.667e-4,0.051216 -0.0037,0.082381 -0.00384,0.041034 -0.00646,0.019463 -0.00639,0.053276 1.54e-5,0.00681 0.00432,-0.00706 0.00389,0.00158 -2.218e-4,0.00485 -0.011284,0.097861 -0.012777,0.106552 -0.016816,0.097561 -0.1388202,0.6825907 -0.1416123,0.6959123 -0.096906,0.4623348 -0.084277,0.3977793 -0.1996768,0.9233233 -0.03413,0.1554263 -0.2109711,0.9788454 -0.2680371,1.202339 -0.1536139,0.6759827 -0.3081423,1.3426021 -0.463995,2.043265 -0.02378,0.1069062 -0.063931,0.2768578 -0.086348,0.3833874 -0.018886,0.089748 -0.023394,0.1142307 -0.039946,0.1790591"
         id="path1188-5-3" />
      <path
         style="opacity:0.99;fill:#ffc8c8;fill-opacity:1;stroke-width:0.119526;paint-order:markers fill stroke"
         d="M 6.6871079,8.2714661 C 7.1003431,7.4903873 6.6788379,8.2892241 7.0442284,7.5912973 7.0906894,7.5025563 7.217318,7.265085 7.2580372,7.187737 7.3146212,7.0802557 7.3733807,6.9651171 7.4302423,6.8559425 c 0.049431,-0.094912 0.097274,-0.1835068 0.1456206,-0.275248 0.080247,-0.1522776 0.00158,-0.00419 0.065873,-0.1296749 0.013852,-0.027022 0.025669,-0.047112 0.039295,-0.073127 0.043282,-0.082661 0.073051,-0.1393713 0.1086373,-0.2007593 -0.059938,0.1293497 -0.09751,0.2181795 -0.1433184,0.3247415 -0.043846,0.1019952 -0.086267,0.202738 -0.1213603,0.2895394 -0.010978,0.027144 -0.03137,0.072764 -0.04045,0.096513 -0.00574,0.01497 -0.00589,0.022719 -0.01271,0.040648 -0.00388,0.010279 -0.013252,0.030175 -0.016183,0.038605 -0.010004,0.028799 -0.00933,0.038844 -0.017347,0.061987 -0.010532,0.030477 -0.00944,0.013518 -0.015024,0.039286 -0.00117,0.00518 0.0053,-0.00451 0.00347,0.00198 -0.00104,0.00361 -0.027166,0.072253 -0.030053,0.078571 C 7.3642765,7.2199122 7.1496432,7.6408567 7.1447426,7.6504387 6.9746534,7.9830018 6.9975393,7.9363841 6.7991764,8.3133565 6.7405134,8.4248444 6.4335136,9.0162818 6.3415094,9.1749826 6.0814064,9.6588209 5.8219936,10.135344 5.5556198,10.637526 c -0.040648,0.07662 -0.1075021,0.197958 -0.1467767,0.274568 -0.033089,0.06454 -0.041496,0.08228 -0.068186,0.128312"
         id="path1188-5-3-8" />
      <path
         style="opacity:0.99;fill:#ffc8c8;fill-opacity:1;stroke-width:0.119526;paint-order:markers fill stroke"
         d="m 8.0063067,8.3555581 c 0.2413342,-0.4358013 -0.00437,0.00979 0.2074315,-0.3792099 0.026932,-0.049459 0.1012957,-0.182063 0.1249926,-0.2251972 0.032931,-0.059939 0.066352,-0.1239529 0.099188,-0.1847711 0.028542,-0.052873 0.056887,-0.1024071 0.085045,-0.1535738 0.046735,-0.084929 6.315e-4,-0.00221 0.037337,-0.072063 0.00791,-0.015029 0.015308,-0.026368 0.023202,-0.040864 0.025087,-0.046074 0.04238,-0.077689 0.064451,-0.1122697 -0.031478,0.071272 -0.049519,0.1198386 -0.071888,0.178177 -0.021411,0.055837 -0.041676,0.1108971 -0.057682,0.1581826 -0.005,0.014785 -0.015367,0.039845 -0.019228,0.052727 -0.00244,0.00812 -8.57e-4,0.012029 -0.00379,0.021745 -0.00167,0.00557 -0.00662,0.016549 -0.0077,0.021091 -0.00365,0.01552 -7.668e-4,0.020491 -0.0037,0.032949 -0.00383,0.016413 -0.00646,0.00779 -0.00639,0.021312 1.53e-5,0.00271 0.00433,-0.0028 0.00388,6.765e-4 -2.224e-4,0.00194 -0.011285,0.039142 -0.012778,0.042619 C 8.4518628,7.7561125 8.3298576,7.9901242 8.3270652,7.9954524 8.2301592,8.1803859 8.2427882,8.1545636 8.1273884,8.3647799 8.0932584,8.4269499 7.9164176,8.7563163 7.8593512,8.8457131 7.7057376,9.1161057 7.551209,9.3827519 7.395356,9.6630161 7.371577,9.7057791 7.331425,9.7737589 7.309009,9.8163702 7.290124,9.8522692 7.285613,9.8620642 7.269065,9.8879932"
         id="path1188-5-3-8-3" />
      <path
         style="opacity:0.99;fill:#ffc8c8;fill-opacity:1;stroke-width:0.119526;paint-order:markers fill stroke"
         d="m 5.2399234,7.9911396 c 0.2412904,-1.3074072 0,0.029368 0.2074162,-1.1376332 0.026057,-0.1483846 0.1016231,-0.54619 0.1250746,-0.6755943 0.031266,-0.1798187 0.066186,-0.3718606 0.099017,-0.5543157 0.031271,-0.1586204 0.057326,-0.3072225 0.085468,-0.4607222 0.046903,-0.2547903 0,-0.00673 0.03648,-0.216189 0.00521,-0.045095 0.015633,-0.079098 0.026057,-0.1225972 0.026057,-0.138218 0.041694,-0.2330687 0.064101,-0.336809 -0.031271,0.2138178 -0.046903,0.359516 -0.071918,0.534531 -0.020843,0.167516 -0.041694,0.3326934 -0.057326,0.4745508 -0.00521,0.04436 -0.015633,0.1195336 -0.020843,0.1581826 0,0.02437 0,0.036079 0,0.065248 0,0.01672 -0.00521,0.049658 -0.00521,0.063273 0,0.046543 0,0.061459 0,0.098857 0,0.049239 -0.00521,0.023355 -0.00521,0.063932 0,0.00817 0,-0.00848 0,0.00189 0,0.00582 -0.010424,0.1174331 -0.010424,0.1278626 -0.015633,0.1170727 -0.1386244,0.8191081 -0.1412306,0.8350944 -0.096933,0.5548018 -0.084425,0.4773352 -0.1995982,1.107988 -0.03648,0.1865112 -0.2110642,1.1746143 -0.26839,1.4428067 -0.1537385,0.8111789 -0.307997,1.6111229 -0.4638197,2.4519189 -0.026057,0.128287 -0.064101,0.332229 -0.08651,0.460065 -0.020843,0.107697 -0.026061,0.137076 -0.041695,0.21487"
         id="path1188-5-3-2" />
      <path
         style="opacity:0.99;fill:#ffc8c8;fill-opacity:1;stroke-width:0.119526;paint-order:markers fill stroke"
         d="m 9.3852133,8.1733485 c 0.2413305,-0.8715982 -0.00438,0.01958 0.2074288,-0.7584166 0.026927,-0.098922 0.1012944,-0.3641248 0.1249908,-0.4503932 0.032931,-0.1198777 0.066352,-0.2479053 0.099186,-0.3695413 0.028542,-0.1057457 0.056887,-0.2048122 0.085043,-0.3071459 0.046735,-0.1698582 6.315e-4,-0.00451 0.037337,-0.1441244 0.0079,-0.030062 0.015308,-0.052732 0.023202,-0.08173 0.025087,-0.092145 0.04238,-0.1553775 0.06445,-0.2245382 -0.031478,0.142544 -0.049519,0.2396752 -0.071886,0.3563519 -0.021411,0.1116761 -0.041676,0.2217942 -0.057681,0.3163643 -0.005,0.02957 -0.015367,0.079689 -0.019232,0.1054543 -0.00244,0.016247 -8.57e-4,0.024054 -0.00379,0.043499 -0.00167,0.011145 -0.00662,0.033106 -0.00769,0.042181 -0.00365,0.031032 -7.668e-4,0.040968 -0.00374,0.065905 -0.00388,0.032831 -0.00647,0.01557 -0.00639,0.042619 1.58e-5,0.00544 0.00428,-0.00565 0.00388,0.00131 -2.179e-4,0.00388 -0.011276,0.078288 -0.012773,0.085241 C 9.8307324,6.9744305 9.7087253,7.4424513 9.7059329,7.4531071 9.609028,7.8229625 9.6216572,7.771319 9.5062583,8.1917497 9.4721279,8.3160905 9.2952902,8.9748212 9.2382247,9.1536147 9.0846134,9.6943958 8.9300865,10.227687 8.7742358,10.788213 c -0.023779,0.08553 -0.06393,0.221485 -0.086346,0.306707 -0.018881,0.0718 -0.023396,0.09139 -0.039944,0.143247"
         id="path1188-3" />
      <path
         style="opacity:0.99;fill:#ffc8c8;fill-opacity:1;stroke-width:0.119526;paint-order:markers fill stroke"
         d="m 3.1802839,9.7562866 c 0.2413335,0.6536984 -0.00438,-0.014686 0.2074315,0.5688124 0.026933,0.07419 0.101295,0.273093 0.1249925,0.337794 0.032931,0.08991 0.066352,0.185928 0.099187,0.277155 0.028543,0.07931 0.056888,0.15361 0.085045,0.23036 0.046736,0.127394 6.224e-4,0.0034 0.03734,0.108093 0.00791,0.02254 0.015306,0.03955 0.023202,0.0613 0.025088,0.06911 0.04238,0.116533 0.064451,0.168403 -0.031482,-0.106908 -0.049519,-0.179757 -0.071887,-0.267264 -0.021408,-0.08376 -0.041676,-0.166344 -0.057683,-0.237272 -0.005,-0.02218 -0.015363,-0.05977 -0.019225,-0.07909 -0.00245,-0.01218 -8.886e-4,-0.01804 -0.0038,-0.03262 -0.00166,-0.0084 -0.00662,-0.02482 -0.00769,-0.03164 -0.00365,-0.02327 -7.849e-4,-0.03073 -0.0037,-0.04943 -0.00386,-0.02462 -0.00646,-0.01168 -0.00639,-0.03197 1.62e-5,-0.0041 0.00433,0.0042 0.00391,-9.47e-4 -2.215e-4,-0.0029 -0.011282,-0.05872 -0.012779,-0.06393 C 3.6258759,10.655491 3.5038685,10.304477 3.5010762,10.296484 3.4041627,10.01909 3.4167921,10.057823 3.3013918,9.7424996 3.267262,9.6492442 3.0904217,9.1551974 3.0333553,9.0211023 2.8797419,8.6155168 2.7252129,8.2155481 2.5693597,7.7951538 2.5455797,7.7310119 2.5054287,7.6290415 2.4830117,7.5651242 2.4641257,7.5112762 2.4596177,7.4965862 2.4430657,7.4576888"
         id="path1188-2" />
      <path
         style="opacity:0.99;fill:#ffc8c8;fill-opacity:1;stroke-width:0.119526;paint-order:markers fill stroke"
         d="m 4.5591479,7.822123 c 0.2413342,0.8716019 -0.00438,-0.01958 0.2074316,0.7584199 0.026932,0.098923 0.1012956,0.3641257 0.124993,0.4503953 0.032931,0.1198787 0.066352,0.2479059 0.099187,0.3695422 0.028542,0.1057462 0.056888,0.2048141 0.085045,0.3071472 0.046735,0.1698597 6.314e-4,0.00451 0.037337,0.1441259 0.0079,0.030062 0.015308,0.052731 0.023202,0.081731 0.025087,0.092144 0.04238,0.1553785 0.06445,0.2245385 C 5.1693155,10.015478 5.1512745,9.9183466 5.1289055,9.8016698 5.1074985,9.6899934 5.0872335,9.5798749 5.0712235,9.4853042 5.0662235,9.4557342 5.0558515,9.4056152 5.0519905,9.379849 5.0495505,9.363602 5.0511335,9.35579 5.0482005,9.33635 5.0465305,9.325205 5.0415805,9.303248 5.0405105,9.294168 5.0368605,9.263136 5.0397437,9.2532 5.0368105,9.228263 c -0.00383,-0.032827 -0.00646,-0.01557 -0.00639,-0.042619 1.58e-5,-0.00544 0.00433,0.00565 0.00388,-0.00126 C 5.0340786,9.1805039 5.0230155,9.1060949 5.0215225,9.099142 5.0047211,9.0210752 4.8827118,8.5530532 4.8799193,8.5423964 4.7830132,8.1725393 4.7956429,8.2241837 4.6802426,7.8037494 4.6461122,7.6794089 4.4692713,7.0206755 4.4122053,6.8418817 4.2585914,6.301097 4.1040634,5.7678031 3.9482105,5.2072744 3.9244324,5.1217503 3.884279,4.9857893 3.8618631,4.9005656 3.8429779,4.8287677 3.838469,4.8091816 3.8219175,4.7573188"
         id="path1188-5-5" />
      <path
         style="opacity:0.99;fill:#ffc8c8;fill-opacity:1;stroke-width:0.119526;paint-order:markers fill stroke"
         d="m 5.9380089,5.8879596 c 0.2413342,1.0895061 -0.00438,-0.024474 0.2074316,0.9480284 0.026932,0.1236529 0.1012956,0.4551583 0.1249934,0.562995 0.032931,0.1498486 0.066352,0.3098832 0.099187,0.4619298 0.028542,0.1321831 0.056888,0.2560183 0.085045,0.3839359 0.046735,0.2123245 6.314e-4,0.00562 0.037337,0.180157 0.0079,0.037576 0.015308,0.065914 0.023202,0.102163 0.025087,0.1151829 0.04238,0.1942245 0.06445,0.2806746 C 6.5481719,8.6296619 6.5301359,8.508247 6.5077669,8.3624013 6.4863559,8.2228043 6.4660909,8.0851564 6.4500849,7.9669416 c -0.005,-0.036967 -0.015367,-0.099611 -0.019228,-0.1318186 -0.00244,-0.020306 -8.57e-4,-0.030067 -0.00379,-0.054373 -0.00167,-0.013928 -0.00662,-0.041383 -0.00769,-0.052728 -0.00365,-0.03879 -7.668e-4,-0.051216 -0.0037,-0.082381 -0.00383,-0.041031 -0.00646,-0.019463 -0.00639,-0.053276 1.58e-5,-0.00681 0.00433,0.00706 0.00388,-0.00158 C 6.412945,7.585935 6.4018819,7.492924 6.4003889,7.4842333 6.3835821,7.3866874 6.2615773,6.8016576 6.2587853,6.7883366 6.1618886,6.3259841 6.1745178,6.3905396 6.0591176,5.864996 6.0249876,5.7095698 5.8481463,4.8861506 5.7910803,4.6626571 5.6374664,3.9866744 5.4829377,3.3200551 5.3270856,2.6193922 5.3033053,2.5124859 5.2631539,2.3425343 5.240738,2.2360048 5.2218514,2.1462571 5.2173437,2.1217742 5.2007922,2.0569457"
         id="path1188-5-3-25" />
      <path
         style="opacity:0.99;fill:#ffc8c8;fill-opacity:1;stroke-width:0.119526;paint-order:markers fill stroke"
         d="m 8.6957431,3.7715765 c 0.2413342,0.8716049 -0.00438,-0.019581 0.2074311,0.7584225 0.026932,0.098923 0.1012952,0.3641265 0.1249934,0.4503958 0.032931,0.1198791 0.066352,0.2479072 0.099187,0.369544 0.028542,0.1057466 0.056887,0.2048151 0.085044,0.3071481 0.046735,0.1698606 6.315e-4,0.00451 0.037337,0.1441268 0.0079,0.030062 0.015308,0.052731 0.023202,0.081731 0.025087,0.092145 0.04238,0.1553793 0.06445,0.2245391 C 9.30591,5.9649387 9.2878692,5.8678069 9.2655002,5.7511293 9.2440891,5.6394524 9.2238283,5.529334 9.2078176,5.4347628 c -0.005,-0.029575 -0.015363,-0.07969 -0.019228,-0.1054557 -0.00244,-0.016246 -8.57e-4,-0.024054 -0.00379,-0.043499 -0.00167,-0.011145 -0.00662,-0.033102 -0.00769,-0.042181 -0.00365,-0.031032 -7.668e-4,-0.040968 -0.0037,-0.065905 -0.00383,-0.032827 -0.00646,-0.01557 -0.00639,-0.042619 1.63e-5,-0.00544 0.00433,0.00565 0.00388,-0.00126 -2.214e-4,-0.00388 -0.011285,-0.078289 -0.012778,-0.085242 C 9.1413249,4.9705358 9.01932,4.502512 9.0165276,4.4918554 8.9196214,4.1219877 8.9322506,4.1736319 8.8168504,3.7531966 8.7827209,3.6288553 8.6058795,2.9701207 8.548814,2.7913258 8.3952001,2.2505392 8.2406709,1.7172438 8.0848189,1.1567135 8.0610386,1.0711886 8.0208872,0.93522728 7.9984708,0.85000343 7.9795847,0.77820513 7.975077,0.75861963 7.9585251,0.70675645"
         id="path1188-5-3-8-0" />
      <path
         style="opacity:0.99;fill:#ffc8c8;fill-opacity:1;stroke-width:0.119526;paint-order:markers fill stroke"
         d="m 10.074606,3.5893854 c 0.241334,0.4358005 -0.0044,-0.00979 0.207431,0.3792094 0.02693,0.049459 0.101296,0.1820627 0.124993,0.225197 0.03293,0.059939 0.06635,0.1239529 0.09919,0.184771 0.02854,0.052873 0.05689,0.1024073 0.08505,0.1535737 0.04673,0.08493 6.31e-4,0.00226 0.03734,0.072063 0.0079,0.015029 0.01531,0.026368 0.0232,0.040864 0.02509,0.046075 0.04238,0.07769 0.06445,0.1122696 C 10.68478,4.6860611 10.66674,4.6374947 10.64437,4.5791564 10.62296,4.5233184 10.6027,4.4682591 10.58669,4.4209737 c -0.005,-0.014783 -0.01537,-0.039844 -0.01923,-0.052727 -0.0024,-0.00812 -8.57e-4,-0.012027 -0.0038,-0.021749 -0.0017,-0.00557 -0.0066,-0.016549 -0.0077,-0.021091 -0.0037,-0.015518 -7.67e-4,-0.020489 -0.0037,-0.03295 -0.0038,-0.016417 -0.0065,-0.00778 -0.0064,-0.02131 1.6e-5,-0.0027 0.0043,0.00281 0.0039,-6.631e-4 -2.22e-4,-0.00194 -0.01128,-0.039145 -0.01278,-0.04262 C 10.520189,4.1888401 10.398183,3.9548278 10.395391,3.9494993 10.298485,3.7645661 10.311114,3.7903885 10.195715,3.5801719 10.161585,3.5180015 9.9847428,3.1886353 9.9276773,3.0992388 9.7740638,2.8288465 9.6195351,2.5621998 9.4636821,2.2819357 9.4399022,2.2391722 9.3997504,2.1711931 9.3773349,2.1285817 9.3584497,2.092682 9.3539407,2.0828891 9.3373892,2.056958"
         id="path1188-5-3-8-3-5" />
      <path
         style="opacity:0.99;fill:#ffc8c8;fill-opacity:1;stroke-width:0.119526;paint-order:markers fill stroke"
         d="m 7.3082221,3.9538036 c 0.2412904,1.307407 0,-0.029368 0.2074162,1.1376339 0.026057,0.1483837 0.1016231,0.5461896 0.1250751,0.6755939 0.031271,0.1798182 0.066186,0.3718601 0.099017,0.5543151 0.031271,0.1586206 0.057326,0.3072226 0.085468,0.4607229 0.046903,0.2547896 0,0.00673 0.03648,0.2161889 0.00521,0.045095 0.015633,0.079097 0.026057,0.1225967 0.026057,0.1382185 0.041694,0.2330688 0.064101,0.3368096 C 7.9205657,7.2438463 7.9049334,7.0981481 7.8799181,6.9231331 7.8590754,6.7556175 7.8382237,6.5904397 7.8225923,6.4485825 7.8173823,6.4042225 7.8069592,6.329049 7.8017496,6.2903999 c 0,-0.02437 0,-0.036079 0,-0.065248 0,-0.01672 -0.00521,-0.049658 -0.00521,-0.063272 0,-0.046543 0,-0.061459 0,-0.098857 0,-0.049239 -0.00521,-0.023355 -0.00521,-0.063932 0,-0.00817 0,0.00848 0,-0.00189 0,-0.00582 -0.010424,-0.117434 -0.010424,-0.127863 C 7.7652693,5.7522691 7.6422785,5.0502337 7.6396733,5.0342475 7.5427369,4.4794426 7.5552444,4.5569096 7.4400714,3.9262573 7.4035911,3.7397455 7.2290077,2.7516426 7.1716815,2.4834502 7.0179439,1.6722712 6.8636845,0.87232717 6.7078622,0.03153222 c -0.026059,-0.1282874 -0.064101,-0.33222942 -0.08651,-0.4600652 -0.020844,-0.10769717 -0.026059,-0.13707639 -0.041693,-0.21487071"
         id="path1188-5-3-2-1" />
      <path
         style="opacity:0.99;fill:#ffc8c8;fill-opacity:1;stroke-width:0.119526;paint-order:markers fill stroke"
         d="m 11.453513,3.771595 c 0.24133,0.8715981 -0.0044,-0.019581 0.207429,0.7584161 0.02693,0.098923 0.101294,0.3641252 0.124991,0.4503936 0.03293,0.1198778 0.06635,0.2479053 0.09919,0.3695404 0.02854,0.1057466 0.05689,0.2048128 0.08504,0.3071463 0.04673,0.1698583 6.31e-4,0.00451 0.03734,0.144125 0.0079,0.030062 0.01531,0.052731 0.0232,0.08173 0.02509,0.092146 0.04238,0.155378 0.06445,0.2245382 -0.03148,-0.142544 -0.04952,-0.2396752 -0.07189,-0.3563515 -0.02141,-0.111676 -0.04167,-0.2217941 -0.05768,-0.3163653 -0.005,-0.02957 -0.01536,-0.079688 -0.01923,-0.1054537 -0.0024,-0.016247 -8.57e-4,-0.024059 -0.0038,-0.043499 -0.0017,-0.011145 -0.0066,-0.033102 -0.0077,-0.042181 -0.0037,-0.031032 -7.67e-4,-0.040968 -0.0037,-0.065905 -0.0039,-0.032836 -0.0065,-0.01557 -0.0064,-0.042619 1.5e-5,-0.00544 0.0043,0.00565 0.0039,-0.00131 -2.24e-4,-0.00388 -0.01128,-0.078286 -0.01278,-0.085239 -0.0168,-0.078069 -0.138808,-0.5460897 -0.1416,-0.5567454 -0.0969,-0.369855 -0.08427,-0.3182111 -0.199674,-0.7386419 -0.03413,-0.1243408 -0.210968,-0.7830713 -0.268033,-0.9618652 -0.153612,-0.5407809 -0.30814,-1.0740728 -0.46399,-1.6345989 -0.02378,-0.085524 -0.06393,-0.22148479 -0.08635,-0.30670662 -0.01888,-0.0717987 -0.02339,-0.0913852 -0.03994,-0.14324746"
         id="path1188-3-4" />
      <path
         style="opacity:0.99;fill:#ffc8c8;fill-opacity:1;stroke-width:0.119526;paint-order:markers fill stroke"
         d="M 9.4487688,10.00365 C 9.2074351,9.3499519 9.453144,10.01834 9.2413378,9.4348382 9.214406,9.3606466 9.1400425,9.1617447 9.1163447,9.0970431 9.0834141,9.0071358 9.0499927,8.911115 9.0171581,8.819888 8.9886161,8.7405793 8.9602703,8.6662789 8.9321135,8.5895286 8.8853783,8.4621351 8.9314821,8.5861457 8.8947762,8.4814357 c -0.0079,-0.022543 -0.015308,-0.039547 -0.023202,-0.061298 -0.025087,-0.069109 -0.04238,-0.1165333 -0.064451,-0.1684032 0.031478,0.1069084 0.049519,0.1797565 0.071888,0.2672638 0.021411,0.083756 0.041672,0.166345 0.057683,0.2372729 0.005,0.022178 0.015367,0.059767 0.019228,0.079091 0.00244,0.012178 8.57e-4,0.018037 0.00379,0.032624 0.00167,0.00836 0.00662,0.024825 0.00769,0.031636 0.00365,0.023274 7.668e-4,0.030729 0.0037,0.049428 0.00383,0.024622 0.00646,0.011677 0.00639,0.031965 -1.58e-5,0.00406 -0.00433,-0.00424 -0.00388,9.472e-4 2.219e-4,0.00289 0.011285,0.058716 0.012778,0.063931 0.01681,0.058535 0.1388202,0.4095488 0.1416122,0.4175418 0.096906,0.2773914 0.084277,0.2386581 0.1996776,0.5539808 0.03413,0.09325 0.2109704,0.587303 0.2680364,0.721398 0.153614,0.405585 0.3081431,0.805553 0.4639946,1.225948 0.02378,0.06414 0.06393,0.166113 0.08635,0.23003 0.01889,0.05385 0.0234,0.06854 0.03994,0.107434"
         id="path1188-4" />
      <path
         style="opacity:0.99;fill:#ffc8c8;fill-opacity:1;stroke-width:0.119526;paint-order:markers fill stroke"
         d="m 11.629082,9.2596039 c 0.241334,-0.8716018 -0.0044,0.01958 0.207432,-0.7584202 0.02693,-0.098922 0.101295,-0.3641252 0.124993,-0.450394 0.03293,-0.1198791 0.06635,-0.2479063 0.09919,-0.3695431 0.02854,-0.1057457 0.05689,-0.2048137 0.08505,-0.3071472 0.04673,-0.1698596 6.31e-4,-0.00451 0.03734,-0.1441254 0.0079,-0.030062 0.01531,-0.052732 0.0232,-0.081731 0.02509,-0.092146 0.04238,-0.1553792 0.06445,-0.2245391 -0.03148,0.1425449 -0.04952,0.2396766 -0.07189,0.3563528 -0.02141,0.1116769 -0.04167,0.221795 -0.05768,0.3163661 -0.005,0.02957 -0.01537,0.07969 -0.01923,0.1054557 -0.0024,0.016247 -8.57e-4,0.024059 -0.0038,0.043499 -0.0017,0.011145 -0.0066,0.033102 -0.0077,0.042182 -0.0037,0.031032 -7.67e-4,0.040968 -0.0037,0.065904 -0.0038,0.032827 -0.0065,0.01557 -0.0064,0.042619 1.6e-5,0.00544 0.0043,-0.00565 0.0039,0.00126 -2.22e-4,0.00388 -0.01129,0.078289 -0.01278,0.085242 -0.01681,0.078051 -0.13882,0.5460723 -0.141612,0.5567291 -0.09691,0.3698571 -0.08428,0.3182126 -0.199677,0.7386456 -0.03413,0.1243413 -0.210971,0.7830748 -0.268038,0.9618688 -0.153613,0.540785 -0.308142,1.074078 -0.463995,1.634607 -0.02378,0.08553 -0.06393,0.221485 -0.08635,0.306709 -0.01889,0.0718 -0.0234,0.09138 -0.03994,0.143247"
         id="path1188-5-6" />
      <path
         style="opacity:0.99;fill:#ffc8c8;fill-opacity:1;stroke-width:0.119526;paint-order:markers fill stroke"
         d="m 0.53428666,8.7065066 c 0.2413341,-1.0895058 -0.00438,0.024474 0.2074315,-0.9480279 0.026933,-0.1236535 0.10129561,-0.4551583 0.12499311,-0.5629955 0.032931,-0.1498482 0.066352,-0.3098832 0.099187,-0.4619294 0.028543,-0.1321835 0.056888,-0.2560187 0.085045,-0.3839354 0.046736,-0.2123249 6.224e-4,-0.00561 0.03734,-0.1801579 0.00791,-0.037581 0.015306,-0.065914 0.023202,-0.102163 0.025088,-0.1151833 0.04238,-0.1942246 0.064451,-0.2806751 -0.031482,0.1781819 -0.049519,0.2995972 -0.071888,0.4454433 -0.021408,0.1395956 -0.041676,0.277244 -0.057682,0.3954583 -0.005,0.036968 -0.015364,0.099612 -0.019225,0.1318191 -0.00245,0.020306 -8.84e-4,0.030071 -0.0038,0.054373 -0.00166,0.013928 -0.00662,0.041379 -0.00769,0.052727 -0.00365,0.03879 -7.848e-4,0.051216 -0.0037,0.082381 -0.00386,0.041031 -0.00646,0.019467 -0.00639,0.053276 1.56e-5,0.00681 0.00433,-0.00706 0.00391,0.00158 -2.22e-4,0.00485 -0.011283,0.097861 -0.012779,0.1065517 -0.016818,0.097561 -0.13882,0.6825909 -0.1416124,0.6959124 -0.096906,0.4623349 -0.084277,0.3977793 -0.1996768,0.9233234 -0.034129,0.1554267 -0.2109711,0.9788454 -0.2680371,1.2023385 -0.1536139,0.6759829 -0.3081423,1.3426019 -0.463995,2.0432659 -0.02378001,0.106905 -0.063932,0.276857 -0.086348,0.383387 -0.018886,0.08975 -0.023394,0.11423 -0.039946,0.179059"
         id="path1188-5-3-4" />
      <path
         style="opacity:0.99;fill:#ffc8c8;fill-opacity:1;stroke-width:0.119526;paint-order:markers fill stroke"
         d="M 2.3822172,8.978393 C 2.8685206,8.2110696 2.3722972,8.9959249 2.8029151,8.3099906 2.8576701,8.2227756 3.0065305,7.9895623 3.0544819,7.9135616 3.1211169,7.8079517 3.1906058,7.6946728 3.2576632,7.5873515 3.3159582,7.4940495 3.3721079,7.4070913 3.4290337,7.3169512 c 0.094489,-0.1496199 0.00191,-0.0041 0.077955,-0.1276023 0.016372,-0.02658 0.030097,-0.046226 0.046148,-0.071792 0.051004,-0.081241 0.086077,-0.1369701 0.127463,-0.1970355 C 3.6087187,7.0482532 3.5630114,7.136249 3.5074332,7.2417561 3.4542382,7.342741 3.4025925,7.4425536 3.3595799,7.5286663 c -0.013448,0.026932 -0.038041,0.072036 -0.049282,0.095637 -0.0071,0.014875 -0.00789,0.0228 -0.016375,0.040603 -0.00486,0.010212 -0.01603,0.029859 -0.019715,0.038253 -0.012576,0.028704 -0.01274,0.039033 -0.022834,0.062102 -0.013302,0.030369 -0.010748,0.013103 -0.018595,0.039038 -0.00158,0.00522 0.0058,-0.00419 0.00337,0.00226 -0.00135,0.00365 -0.033722,0.071838 -0.03719,0.07808 C 3.1600049,7.9546943 2.9061429,8.368852 2.9003487,8.3782784 2.6992585,8.7054388 2.7264724,8.6595046 2.4928645,9.0299214 2.4237755,9.1394698 2.0615603,9.7209499 1.9545602,9.876231 1.649118,10.351228 1.3449919,10.818792 1.0316264,11.312076 c -0.047813,0.07526 -0.12607213,0.194256 -0.17249043,0.269614 -0.039107,0.06349 -0.049158,0.08099 -0.080194,0.12603"
         id="path1188-5-3-8-9" />
      <path
         style="opacity:0.99;fill:#ffc8c8;fill-opacity:1;stroke-width:0.119526;paint-order:markers fill stroke"
         d="m 11.064268,11.526426 c 0.450369,-0.226463 -0.0093,0.0057 0.389769,-0.198472 0.05073,-0.02595 0.18854,-0.09435 0.232961,-0.116867 0.06173,-0.03129 0.126205,-0.06568 0.18836,-0.09775 0.05403,-0.02788 0.105977,-0.05312 0.158707,-0.0798 0.08752,-0.0443 0.0018,-0.0015 0.07235,-0.03887 0.01519,-0.008 0.02783,-0.01332 0.0427,-0.02092 0.04726,-0.02418 0.07976,-0.04073 0.117904,-0.05708 -0.06706,0.04145 -0.109938,0.07158 -0.162022,0.107387 -0.04985,0.03427 -0.09831,0.06853 -0.138772,0.09873 -0.01265,0.0094 -0.03564,0.02441 -0.04625,0.03291 -0.0067,0.0053 -0.0077,0.0094 -0.01568,0.01585 -0.0046,0.0037 -0.015,0.01001 -0.01851,0.01316 -0.01196,0.0108 -0.01245,0.01648 -0.02204,0.02516 -0.01264,0.01142 -0.0098,0.0028 -0.01755,0.01406 -0.0016,0.0022 0.0052,7.2e-5 0.0029,0.0027 -0.0013,0.0015 -0.03187,0.02609 -0.03511,0.02813 -0.03637,0.02293 -0.271942,0.148723 -0.277318,0.151579 -0.18657,0.09914 -0.161263,0.0848 -0.377672,0.194599 -0.064,0.03247 -0.399794,0.206694 -0.498421,0.248972 -0.282633,0.138366 -0.563863,0.273135 -0.854032,0.418414 -0.044274,0.02217 -0.1165955,0.05611 -0.1596561,0.0789 -0.036277,0.01921 -0.045641,0.0248 -0.074251,0.03706"
         id="path1188-5-3-8-3-1" />
      <path
         style="opacity:0.99;fill:#ffc8c8;fill-opacity:1;stroke-width:0.119526;paint-order:markers fill stroke"
         d="m 0.31034297,8.8674568 c 0.24129029,1.3074072 0,-0.029367 0.2074159,1.1376342 0.026058,0.148384 0.1016233,0.546189 0.1250749,0.675594 0.031269,0.179818 0.066185,0.37186 0.099018,0.554315 0.031269,0.15862 0.057326,0.307223 0.085468,0.460723 0.046903,0.254789 0,0.0067 0.03648,0.216189 0.00521,0.04509 0.015634,0.0791 0.026058,0.122596 0.026057,0.138219 0.041691,0.233069 0.064101,0.33681 -0.031269,-0.213818 -0.046903,-0.359516 -0.071918,-0.534532 -0.020846,-0.167515 -0.041691,-0.332693 -0.057326,-0.474551 -0.00521,-0.04436 -0.015634,-0.119533 -0.020846,-0.158182 0,-0.02436 0,-0.03608 0,-0.06525 0,-0.01672 -0.00521,-0.04966 -0.00521,-0.06327 0,-0.04654 0,-0.06146 0,-0.09886 0,-0.04924 -0.00521,-0.02336 -0.00521,-0.06393 0,-0.0082 0,0.0085 0,-0.0019 0,-0.0058 -0.010423,-0.117433 -0.010423,-0.127862 C 0.76738747,10.66592 0.64439717,9.963885 0.64179136,9.9478991 0.54485836,9.3930969 0.55736586,9.4705635 0.44219267,8.8399111 0.40571257,8.6533994 0.23112887,7.6652963 0.17380287,7.3971039 0.02006496,6.5859247 -0.13419413,5.785981 -0.29001653,4.9451859 -0.31607383,4.8168984 -0.35411743,4.6129562 -0.37652674,4.4851204 -0.39737254,4.3774231 -0.40258393,4.3480439 -0.41821834,4.2702495"
         id="path1188-5-3-2-5" />
      <path
         style="display:inline;opacity:0.99;fill:#ffc8c8;fill-opacity:1;stroke-width:0.119526;paint-order:markers fill stroke"
         d="M 1.1441965,4.8176535 C 1.4658624,4.2524554 1.1378865,4.8304465 1.4218461,4.32561 1.4579481,4.261419 1.556643,4.0895333 1.5883143,4.0335739 c 0.044013,-0.077761 0.089485,-0.1609708 0.133635,-0.2399257 0.038381,-0.068641 0.075742,-0.1327964 0.1133528,-0.1991722 0.062429,-0.1101741 0.00112,-0.00296 0.050942,-0.093699 0.010728,-0.019534 0.020079,-0.034129 0.030664,-0.052946 0.033634,-0.059793 0.05678,-0.1008166 0.084863,-0.1453916 -0.045609,0.093179 -0.073695,0.1569918 -0.1080466,0.2335793 -0.03288,0.073305 -0.064562,0.1456658 -0.090544,0.2079412 -0.00812,0.019473 -0.023538,0.052301 -0.030184,0.069313 -0.0042,0.010727 -0.00382,0.016136 -0.00883,0.028975 -0.00287,0.00736 -0.00998,0.021703 -0.012074,0.027725 -0.00712,0.020586 -0.00587,0.027557 -0.011621,0.04409 -0.00758,0.021775 -0.00764,0.0099 -0.010988,0.028144 -6.72e-4,0.00368 0.00446,-0.00342 0.00326,0.00128 -6.811e-4,0.0026 -0.019776,0.051737 -0.02197,0.056286 -0.024599,0.05106 -0.1906802,0.3552603 -0.1944743,0.3621851 -0.1316756,0.2403504 -0.1140794,0.2067053 -0.2683546,0.4794334 -0.045627,0.080658 -0.28386873,0.508338 -0.35647723,0.6235733 -0.2029755,0.3503138 -0.405806,0.6954928 -0.6132399,1.0589123 -0.03165,0.05545 -0.084022,0.1433807 -0.1144394,0.1987539 -0.025622,0.046652 -0.032053,0.059438 -0.053114,0.092864"
         id="path1188-3-8" />
      <path
         style="opacity:0.99;fill:#ffc8c8;fill-opacity:1;stroke-width:0.119526;paint-order:markers fill stroke"
         d="m 5.2031169,0.22500596 c -0.3735349,-0.39957272 0.00717,0.009216 -0.3220321,-0.3482647 -0.041857,-0.0454477 -0.1566043,-0.16682098 -0.1933549,-0.2064119 -0.051072,-0.0550159 -0.1035658,-0.11416574 -0.1547082,-0.17011803 -0.044459,-0.0486422 -0.087983,-0.0938541 -0.1316315,-0.14080768 -0.07245,-0.0779352 -0.00122,-0.002197 -0.058766,-0.0666508 -0.012398,-0.01387 -0.023423,-0.02402 -0.035691,-0.037339 -0.038995,-0.04234 -0.065836,-0.071377 -0.098893,-0.1024226 0.051755,0.067148 0.083023,0.1136759 0.1214077,0.16940722 0.036738,0.0533421 0.071977,0.10613205 0.1006072,0.15178179 0.00895,0.0142733 0.026318,0.0380432 0.033535,0.0505967 0.00461,0.007905 0.00356,0.0123342 0.00901,0.0218003 0.00311,0.00543 0.011204,0.0157482 0.013419,0.0202388 0.0075,0.0153497 0.00521,0.0211674 0.011254,0.0334861 0.00794,0.0162328 0.00919,0.006649 0.011944,0.0207592 5.413e-4,0.002807 -0.00565,-0.001939 -0.00442,0.001582 6.766e-4,0.001939 0.021397,0.0382371 0.023878,0.0415235 0.027847,0.0368593 0.2195515,0.25313074 0.2239343,0.25805212 0.1520746,0.17080186 0.1318949,0.14674918 0.3108927,0.33971915 0.052939,0.0570694 0.3287553,0.36030788 0.4142185,0.44056701 0.2362937,0.24703928 0.4728716,0.48997056 0.7138535,0.74678926 0.036769,0.039186 0.097967,0.1009484 0.1331087,0.1402842 0.029611,0.033139 0.036936,0.042324 0.061722,0.065606"
         id="path1188-5-3-8-3-9" />
      <path
         style="opacity:0.99;fill:#ffc8c8;fill-opacity:1;stroke-width:0.119526;paint-order:markers fill stroke"
         d="m 3.862263,2.2674697 c 0.1450807,-0.7354841 -0.00202,0.016289 0.1232429,-0.6393984 0.015932,-0.08337 0.061164,-0.3073679 0.075303,-0.3801214 0.019649,-0.1010974 0.038587,-0.2086736 0.057848,-0.31112376 0.016744,-0.0890659 0.034304,-0.17286756 0.051124,-0.25917987 0.027927,-0.14326487 1.05e-5,-0.003622 0.020993,-0.12103757 0.00451,-0.0252701 0.0096,-0.0446569 0.014276,-0.0690956 0.014842,-0.0776596 0.025108,-0.13096856 0.040041,-0.18998727 -0.014396,0.11848238 -0.020206,0.19844551 -0.028008,0.29465925 -0.00747,0.092089 -0.013843,0.18270372 -0.017689,0.26020865 -0.0012,0.0242341 -0.00543,0.0657323 -0.00589,0.0867359 -3.087e-4,0.0132422 0.00278,0.0189939 0.0024,0.0348435 -1.911e-4,0.009083 -0.00254,0.0273576 -0.00235,0.0346906 6.225e-4,0.025066 0.00552,0.032195 0.00602,0.052334 6.721e-4,0.02652 -0.00511,0.01362 -7.668e-4,0.034742 8.66e-4,0.00423 0.00418,-0.00538 0.00475,1.235e-4 3.553e-4,0.00311 -8.66e-4,0.063717 -0.00149,0.069488 -0.00738,0.064775 -0.076421,0.4579951 -0.078008,0.466952 C 4.0689267,1.9431575 4.0755717,1.8999551 4.0067713,2.2545008 3.9864023,2.359356 3.8832465,2.9139623 3.8446469,3.0665396 3.7500529,3.523744 3.6532557,3.9753033 3.5591937,4.4484401 c -0.01435,0.072191 -0.039912,0.1874836 -0.052718,0.2591312 -0.010792,0.060362 -0.012979,0.076682 -0.024176,0.1209401"
         id="path1188-4-7" />
      <path
         style="opacity:0.99;fill:#ffc8c8;fill-opacity:1;stroke-width:0.119526;paint-order:markers fill stroke"
         d="m 0.54132247,2.3853576 c -0.4649175,-0.853597 0.009224,0.019412 -0.4015477,-0.743332 C 0.08754557,1.5450433 -0.05500654,1.2855292 -0.10080214,1.2009994 -0.16444073,1.0835396 -0.23035893,0.9576986 -0.29425394,0.83838438 -0.34980074,0.73465689 -0.40371063,0.63784146 -0.45808803,0.53758155 c -0.090258,-0.16641682 -0.00167,-0.004542 -0.073877,-0.14172678 -0.015546,-0.0295313 -0.028955,-0.0514825 -0.044261,-0.0799136 -0.048649,-0.0903386 -0.082127,-0.15231455 -0.1224347,-0.21938638 0.066699,0.14140171 0.1081522,0.23852585 0.1587695,0.35503441 0.048446,0.11151573 0.095236,0.22166543 0.1337765,0.31657995 0.012049,0.0296791 0.034677,0.0795549 0.044594,0.10552579 0.00627,0.0163706 0.00607,0.0248669 0.013571,0.044458 0.00427,0.0112373 0.014675,0.0329911 0.017839,0.0422072 0.010751,0.0315117 0.00951,0.0425081 0.018167,0.0678214 0.011382,0.033333 0.010824,0.014763 0.016406,0.042962 0.00115,0.00568 -0.00625,-0.0049 -0.00427,0.00224 0.00109,0.00398 0.029607,0.079017 0.032816,0.085924 0.036022,0.077519 0.2768043,0.5375824 0.2823034,0.5480554 0.1908508,0.3634575 0.1652562,0.3125032 0.3883346,0.7244799 0.065976,0.1218397 0.4108559,0.768218 0.5150647,0.9416131 0.29299223,0.5287382 0.58548293,1.0494666 0.88523223,1.5982692 0.045736,0.083736 0.1211877,0.2163221 0.1652651,0.3000518 0.037137,0.070538 0.046512,0.089927 0.07674,0.1402234"
         id="path1188-5-6-9" />
      <path
         style="opacity:0.99;fill:#ffc8c8;fill-opacity:1;stroke-width:0.119526;paint-order:markers fill stroke"
         d="M 1.8451793,0.66886645 C 1.4716442,0.26929424 1.8523493,0.67808245 1.5231474,0.32060277 1.4812894,0.27515509 1.3665427,0.15378231 1.3297931,0.11418985 1.2787211,0.05917495 1.2262269,2.563e-5 1.1750848,-0.05592717 c -0.044459,-0.0486422 -0.087983,-0.0938546 -0.1316319,-0.1408072 -0.07245,-0.0779367 -0.0012,-0.002194 -0.058766,-0.0666513 -0.012398,-0.0138701 -0.023426,-0.02402 -0.035693,-0.037339 -0.038992,-0.0423399 -0.065837,-0.0713762 -0.098893,-0.10242158 0.051755,0.0671483 0.083023,0.11367634 0.1214082,0.16940716 0.036736,0.0533421 0.071976,0.10613152 0.1006071,0.15178231 0.00895,0.0142732 0.026318,0.0380432 0.033536,0.0505966 0.00459,0.007905 0.00355,0.0123341 0.00901,0.0218002 0.00313,0.005435 0.011205,0.015748 0.013419,0.0202387 0.0075,0.0153499 0.00522,0.0211674 0.011257,0.0334862 0.00794,0.0162328 0.00919,0.006649 0.011939,0.0207592 5.233e-4,0.002807 -0.00565,-0.001939 -0.00443,0.001582 6.766e-4,0.001939 0.021398,0.0382371 0.023879,0.0415235 0.027839,0.0368593 0.2195518,0.25313075 0.2239335,0.25805213 0.1520762,0.17080145 0.131897,0.14674881 0.3108953,0.33971872 0.052939,0.0570694 0.3287547,0.36030793 0.4142184,0.44056753 0.2362941,0.2470392 0.4728717,0.48997 0.713853,0.7467887 0.036767,0.039186 0.097966,0.1009489 0.1331088,0.1402848 0.029606,0.033139 0.036934,0.042324 0.061722,0.065606"
         id="path1188-5-3-8-3-1-2" />
      <path
         style="opacity:0.99;fill:#ffc8c8;fill-opacity:1;stroke-width:0.119526;paint-order:markers fill stroke"
         d="m 8.0918709,1.4701086 c 0.6010446,-0.49023835 -0.01373,0.00969 0.523541,-0.4233263 0.068313,-0.0550594 0.250995,-0.20540597 0.3105255,-0.25368877 0.082721,-0.0670948 0.1714387,-0.1365327 0.2554974,-0.20387676 0.073077,-0.0585435 0.1411981,-0.11542416 0.2118043,-0.17275709 0.117195,-0.0951639 0.0032,-0.00174 0.099931,-0.0778095 0.02082,-0.0163782 0.036214,-0.030554 0.05624,-0.0466944 0.063633,-0.0512878 0.1072847,-0.0865722 0.1543538,-0.1291843 -0.099994,0.0700462 -0.168857,0.11344464 -0.2514277,0.16646646 -0.079032,0.0507477 -0.1571407,0.0997192 -0.2245184,0.1400013 -0.021068,0.0125931 -0.056376,0.0363293 -0.074839,0.0466709 -0.011641,0.006538 -0.017816,0.006205 -0.031749,0.0140153 -0.00799,0.00447 -0.023369,0.0153882 -0.02994,0.0186691 -0.022453,0.0111841 -0.030499,0.009649 -0.048539,0.0186177 -0.023747,0.0118273 -0.010275,0.0114854 -0.03054,0.0171085 -0.00406,0.001132 0.00329,-0.006614 -0.0018,-0.004686 -0.00289,0.001101 -0.056195,0.0308509 -0.061082,0.034217 -0.054843,0.0378192 -0.3791964,0.29144031 -0.386579,0.2972327 C 8.3065321,1.1121354 8.3425001,1.0852059 8.0523608,1.3203982 7.9665535,1.3899562 7.5111205,1.7534222 7.3894336,1.8635751 7.0173403,2.172662 6.6510487,2.4813266 6.2646541,2.7974247 6.2056991,2.8456537 6.1124749,2.9253042 6.0534555,2.9717413 c -0.049723,0.039123 -0.063423,0.048979 -0.09872,0.080936"
         id="path1188-50" />
      <path
         style="opacity:0.99;fill:#ffc8c8;fill-opacity:1;stroke-width:0.119526;paint-order:markers fill stroke"
         d="m 10.838096,0.62320029 c 0.703116,-0.39120025 -0.01582,0.007167 0.611872,-0.33643456 0.07981,-0.0436922 0.293728,-0.1641631 0.363325,-0.20259069 0.09671,-0.0533988 0.200038,-0.10772393 0.29818,-0.16101545 0.08532,-0.046328 0.165217,-0.0922037 0.247774,-0.13785503 0.137031,-0.0757807 0.0036,-0.001031 0.116324,-0.0607215 0.02425,-0.0128693 0.04252,-0.024762 0.06592,-0.0375691 0.07434,-0.0407019 0.125359,-0.0687409 0.181082,-0.10430389 -0.115177,0.0516339 -0.193738,0.0815302 -0.288093,0.11852948 -0.09031,0.0354141 -0.179381,0.0690251 -0.255907,0.0957371 -0.02393,0.008348 -0.06444,0.0254049 -0.0853,0.0319099 -0.01315,0.004123 -0.01954,0.001847 -0.03529,0.006775 -0.009,0.002802 -0.02676,0.0109455 -0.03412,0.0127469 -0.02515,0.006269 -0.0333,0.002062 -0.0535,0.007109 -0.02661,0.006612 -0.01251,0.0103143 -0.0345,0.0107786 -0.0044,6.955e-5 0.0045,-0.006804 -0.0012,-0.00598 -0.0032,4.2615e-4 -0.06339,0.0190731 -0.06902,0.0214925 -0.06307,0.0276069 -0.440798,0.22594914 -0.449399,0.23048636 -0.298492,0.15749557 -0.256792,0.1368976 -0.595977,0.32403567 C 10.71998,0.49170686 10.188454,0.77877557 10.044399,0.87071419 9.6082423,1.1194317 9.1781967,1.3694089 8.7260374,1.6219961 c -0.06899,0.03854 -0.1786099,0.1034399 -0.2473867,0.1398626 -0.057942,0.030693 -0.073764,0.03806 -0.11555,0.064733"
         id="path1188-4-7-2" />
      <path
         style="opacity:0.99;fill:#ffc8c8;fill-opacity:1;stroke-width:0.119526;paint-order:markers fill stroke"
         d="m 7.7804528,1.4007924 c 0.950625,0.3491859 -0.02133,-0.00623 0.8271222,0.2998771 0.10788,0.038921 0.3971497,0.1466116 0.4912354,0.1808811 0.1307403,0.047623 0.2703282,0.095776 0.4029736,0.1432018 0.1153159,0.041228 0.2233867,0.082329 0.3349946,0.1230509 0.1852524,0.067593 0.0049,8.344e-4 0.1571317,0.053771 0.032777,0.011398 0.057529,0.022221 0.089154,0.033624 0.10049,0.036252 0.169452,0.061253 0.24495,0.09348 C 10.172732,2.2839187 10.067,2.2587046 9.9399773,2.2273285 9.8183977,2.1973002 9.6985335,2.1689872 9.5956257,2.1468443 c -0.032177,-0.00692 -0.086759,-0.021569 -0.1147832,-0.026831 -0.017667,-0.00334 -0.026102,-6.856e-4 -0.047249,-0.00469 -0.012124,-0.00225 -0.036043,-0.00932 -0.045909,-0.010735 -0.033729,-0.00476 -0.044446,-8.75e-5 -0.071542,-0.00394 -0.035682,-0.00505 -0.017031,-0.00957 -0.046361,-0.0087 -0.0059,1.445e-4 0.00622,0.00655 -0.00135,0.00605 -0.00424,-2.667e-4 -0.085144,-0.015289 -0.092719,-0.017416 C 9.0907178,2.0567405 8.5804416,1.8809611 8.5688214,1.876937 8.1655605,1.7372715 8.2218484,1.7553785 7.7633204,1.5885071 7.6277134,1.5391542 6.9093864,1.2838351 6.7142057,1.2005148 6.1243005,0.97786514 5.5424961,0.75359461 4.931133,0.52802706 4.8378519,0.49360986 4.6895061,0.43526535 4.5965832,0.40294963 4.5182992,0.37572052 4.4969586,0.36929181 4.4403428,0.34512268"
         id="path1188-5-6-9-5" />
      <path
         style="opacity:0.99;fill:#ffc8c8;fill-opacity:1;stroke-width:0.119526;paint-order:markers fill stroke"
         d="m 9.2333656,3.5258297 c 0.4781259,0.36119 -0.010717,-0.0065 0.4159785,0.3103227 0.054249,0.040285 0.1997557,0.1516264 0.2470755,0.1870821 0.065754,0.049276 0.1359364,0.099191 0.2026414,0.1482923 0.05799,0.042685 0.112358,0.085149 0.168489,0.1272821 0.09317,0.069932 0.0024,9.201e-4 0.079,0.055756 0.01648,0.011819 0.02895,0.022943 0.04485,0.034752 0.05054,0.037528 0.08522,0.063394 0.123225,0.096573 -0.07801,-0.046723 -0.131083,-0.073274 -0.194855,-0.106258 -0.06104,-0.031562 -0.121207,-0.061389 -0.172848,-0.084841 -0.01614,-0.00733 -0.04356,-0.022663 -0.05762,-0.028281 -0.0089,-0.00357 -0.01306,-0.00102 -0.02367,-0.00529 -0.0061,-0.00245 -0.01809,-0.00977 -0.02305,-0.011318 -0.01691,-0.00519 -0.02223,-6.63e-4 -0.03581,-0.00485 -0.017888,-0.0055 -0.00859,-0.00978 -0.023256,-0.00929 -0.00293,1.297e-4 0.00311,0.00661 -6.315e-4,0.00606 -0.00207,-3.127e-4 -0.0427,-0.016365 -0.046509,-0.018585 C 9.8936741,4.1983182 9.6371095,4.0160957 9.6312672,4.0119246 9.4285017,3.8671657 9.4567934,3.8859832 9.2261832,3.7133216 9.1579819,3.6622563 8.7967578,3.3978654 8.6985017,3.312082 8.4017582,3.0819843 8.1090548,2.8503696 7.8015562,2.6170822 7.7546374,2.5814903 7.6799974,2.5212699 7.6332748,2.4877801 c -0.039362,-0.028214 -0.050087,-0.03492 -0.078587,-0.0598"
         id="path1188-5-3-8-3-1-2-0" />
      <path
         style="opacity:0.99;fill:#ffc8c8;fill-opacity:1;stroke-width:0.119526;paint-order:markers fill stroke"
         d="M 8.4853248,6.0695825 C 9.1003129,5.7224137 8.4723077,6.078044 9.0184937,5.7658763 9.0879421,5.7261889 9.2757772,5.6211402 9.3365029,5.5866588 9.4208872,5.5387462 9.5096718,5.486469 9.5948513,5.4374867 c 0.07405,-0.042583 0.1446491,-0.081467 0.2167185,-0.1223401 0.1196239,-0.067844 0.00271,-0.00217 0.099731,-0.059028 0.020892,-0.012237 0.037748,-0.020559 0.058105,-0.032196 0.064691,-0.036972 0.1091422,-0.062295 0.1601732,-0.087997 -0.09447,0.06182 -0.1562392,0.1061034 -0.2309698,0.1588524 -0.071527,0.05049 -0.1414124,0.1008076 -0.200361,0.1449043 -0.018434,0.013788 -0.051109,0.035971 -0.066789,0.0483 -0.0099,0.00776 -0.012562,0.013229 -0.024392,0.02253 -0.00678,0.00534 -0.021411,0.014794 -0.026711,0.019318 -0.018123,0.01548 -0.020838,0.02299 -0.035384,0.035434 -0.019165,0.016382 -0.012629,0.00485 -0.025939,0.020396 -0.00266,0.00311 0.0061,-5.412e-4 0.00235,0.0032 -0.00207,0.00207 -0.047292,0.037743 -0.051875,0.040792 -0.051406,0.034117 -0.375837,0.2253212 -0.383235,0.2296664 C 8.8295064,6.010112 8.8646693,5.9884868 8.5687914,6.1565883 8.4812863,6.2063022 8.020739,6.4721907 7.8888062,6.5386325 7.5042736,6.751583 7.1227413,6.9596631 6.726744,7.1825172 6.666323,7.2165211 6.5684762,7.2690922 6.5092466,7.3037831 c -0.049899,0.029228 -0.063021,0.037604 -0.1012894,0.056878"
         id="path1188-9" />
      <path
         style="opacity:0.99;fill:#ffc8c8;fill-opacity:1;stroke-width:0.119526;paint-order:markers fill stroke"
         d="m 11.16179,8.3844132 c 0.595297,-0.4704592 -0.01228,0.011163 0.515322,-0.4108182 0.06709,-0.053653 0.249189,-0.1962741 0.307912,-0.2429457 0.0816,-0.064855 0.16693,-0.1351076 0.249129,-0.2012387 0.07146,-0.057493 0.140073,-0.1104492 0.209778,-0.1657876 0.115704,-0.09185 0.0024,-0.00275 0.09576,-0.079244 0.02011,-0.016449 0.03675,-0.028059 0.05642,-0.043787 0.06249,-0.049979 0.10545,-0.084234 0.155733,-0.119909 -0.08904,0.081458 -0.146146,0.1388988 -0.215478,0.2075014 -0.06636,0.065661 -0.130915,0.1308874 -0.184902,0.1876903 -0.01688,0.017762 -0.04745,0.046804 -0.06163,0.062564 -0.009,0.00993 -0.0104,0.01626 -0.02112,0.028145 -0.0061,0.00682 -0.01997,0.019296 -0.02464,0.025028 -0.01603,0.019553 -0.01698,0.028091 -0.02987,0.043796 -0.01695,0.020698 -0.01287,0.00719 -0.02348,0.026057 -0.0021,0.00379 0.0067,-0.00149 0.0036,0.00311 -0.0018,0.00262 -0.04265,0.048137 -0.04692,0.05215 -0.0483,0.04485 -0.360057,0.3017548 -0.36717,0.3075971 -0.246876,0.2027484 -0.213343,0.1739276 -0.499441,0.4014342 -0.08463,0.067269 -0.528751,0.4259726 -0.658744,0.518201 -0.373392,0.2897 -0.7447839,0.5736663 -1.1282972,0.8758506 -0.058516,0.046107 -0.1539888,0.1180741 -0.2109636,0.1647444 -0.048003,0.03931 -0.060423,0.05041 -0.098133,0.07716"
         id="path1188-4-7-7" />
      <path
         style="opacity:0.99;fill:#ffc8c8;fill-opacity:1;stroke-width:0.119526;paint-order:markers fill stroke"
         d="m 10.673178,5.8888707 c -0.02229,-0.5412624 -5.86e-4,0.011574 -0.01673,-0.4695249 -0.002,-0.061167 -0.0098,-0.2263893 -0.01182,-0.2798555 -0.0028,-0.074298 -0.0039,-0.1526524 -0.0062,-0.2277109 -0.0019,-0.065251 -0.0054,-0.1272906 -0.0079,-0.1907384 -0.004,-0.1053154 5.41e-4,-0.00244 -9.93e-4,-0.088049 -3.39e-4,-0.018425 -0.0021,-0.033147 -0.0027,-0.051077 -0.0019,-0.056982 -0.0032,-0.096126 -0.0081,-0.1407278 -0.0047,0.084002 -0.01143,0.1393066 -0.0188,0.2061389 -0.0071,0.063965 -0.01489,0.1265641 -0.02308,0.1795323 -0.0025,0.016558 -0.0049,0.045694 -0.0077,0.059847 -0.0017,0.00894 -0.0054,0.011664 -0.0075,0.022354 -0.0012,0.00613 -0.0018,0.019111 -0.0031,0.023941 -0.0044,0.016468 -0.0099,0.019476 -0.01345,0.032696 -0.0047,0.017419 0.0027,0.010884 -0.0045,0.0234 -0.0014,0.00248 -0.003,-0.00505 -0.0044,-0.00158 -7.66e-4,0.00189 -0.0088,0.042741 -0.0091,0.046818 -0.003,0.045746 10e-4,0.3321025 0.0012,0.3386309 0.0037,0.2265702 0.0042,0.195445 0.01384,0.4559607 0.0029,0.077047 0.01393,0.4829755 0.02638,0.5982855 0.01788,0.3380207 0.03867,0.6730811 0.05368,1.0215358 0.0023,0.053166 0.0084,0.1390159 0.0093,0.1912711 7.67e-4,0.044026 3.5e-4,0.05567 0.0039,0.089117"
         id="path1188-5-3-8-3-1-2-1" />
      <path
         style="opacity:0.99;fill:#ffc8c8;fill-opacity:1;stroke-width:0.119526;paint-order:markers fill stroke"
         d="M 4.7022499,9.7611164 C 4.2402714,8.8649011 4.7110371,9.7811319 4.3041122,8.9815612 4.2523679,8.8798961 4.1104016,8.6071008 4.064962,8.5184162 4.0018164,8.3951814 3.9370014,8.2637619 3.8737968,8.1387824 3.8188533,8.030132 3.7649731,7.9281646 3.7109996,7.8229616 3.6214156,7.6483385 3.7094896,7.8183616 3.6384656,7.6750484 3.6231596,7.6441834 3.6094636,7.6207524 3.5942926,7.5909474 3.5460916,7.4962464 3.5129016,7.431251 3.4718568,7.3598167 c 0.063561,0.1456914 0.1017401,0.2445911 0.1486625,0.3634704 0.044907,0.1137828 0.087922,0.2258864 0.1227604,0.3220077 0.010892,0.030057 0.032175,0.081203 0.040915,0.1073365 0.00553,0.016472 0.00411,0.024104 0.010647,0.043814 0.00375,0.011303 0.013717,0.033752 0.016364,0.042935 0.00907,0.03137 0.00588,0.040968 0.013128,0.066169 0.00951,0.033183 0.011486,0.016251 0.014463,0.043233 6.224e-4,0.00543 -0.00713,-0.00609 -0.00567,8.118e-4 7.668e-4,0.00388 0.025886,0.079355 0.02893,0.086458 0.034174,0.079725 0.2708454,0.5601296 0.276256,0.5710701 0.1877747,0.379706 0.1629109,0.3267869 0.3842346,0.7589827 0.065454,0.1278188 0.4062676,0.8045421 0.5123885,0.9892171 0.2924567,0.556484 0.5854326,1.105593 0.8835071,1.682022 0.045482,0.08795 0.1213067,0.228026 0.1647047,0.315527 0.036566,0.07371 0.045568,0.09375 0.076351,0.147322"
         id="path1188-5-3-8-6" />
      <path
         style="opacity:0.99;fill:#ffc8c8;fill-opacity:1;stroke-width:0.119526;paint-order:markers fill stroke"
         d="m 5.1947379,11.105829 c 0.2741714,-0.503497 -0.00461,0.01097 0.2346619,-0.437293 0.030418,-0.05699 0.1152622,-0.210496 0.1421101,-0.26027 0.03731,-0.06917 0.074493,-0.142472 0.1114681,-0.212467 C 5.715119,10.134949 5.747675,10.077427 5.779595,10.01837 5.832576,9.920342 5.7800911,10.01597 5.821019,9.935936 5.829839,9.918711 5.838682,9.905243 5.847594,9.88854 5.875928,9.8354445 5.895491,9.7989885 5.921697,9.7580998 5.889028,9.8378808 5.87197,9.8911484 5.850412,9.9553603 5.829781,10.016819 5.810716,10.077151 5.796479,10.128515 c -0.00442,0.01606 -0.014857,0.04389 -0.017974,0.05772 -0.00198,0.0087 0.00126,0.01204 -0.00117,0.02248 -0.00135,0.006 -0.00653,0.0183 -0.0072,0.02308 -0.00226,0.01634 0.0032,0.02028 0.00144,0.0334 -0.00235,0.01728 -0.00818,0.0097 -0.00516,0.02288 6.314e-4,0.0027 0.00599,-0.0041 0.0061,-6.31e-4 7.76e-5,0.002 -0.00879,0.04189 -0.010324,0.04577 -0.017248,0.04355 -0.1529094,0.311476 -0.1560203,0.317582 -0.1079567,0.211893 -0.094258,0.182596 -0.2249667,0.425142 -0.038659,0.07173 -0.2374083,0.45048 -0.3051703,0.556188 -0.1760195,0.31364 -0.354237,0.623909 -0.5315483,0.947917 -0.027054,0.04944 -0.073641,0.128782 -0.098649,0.177633 -0.021068,0.04115 -0.02584,0.05218 -0.045492,0.08284"
         id="path1188-5-3-8-3-91" />
      <path
         style="opacity:0.99;fill:#ffc8c8;fill-opacity:1;stroke-width:0.119526;paint-order:markers fill stroke"
         d="m 6.8468646,9.2409745 c 0.1805977,-0.9295523 -0.00244,0.020549 0.1532396,-0.8080224 0.019792,-0.1053514 0.076171,-0.3884882 0.093756,-0.4804325 0.024442,-0.1277647 0.047878,-0.2636549 0.071797,-0.3931069 0.020789,-0.1125416 0.042705,-0.2184884 0.063641,-0.3275687 0.034744,-0.1810576 4e-6,-0.0046 0.025953,-0.152885 0.00559,-0.031925 0.012002,-0.056464 0.017812,-0.087348 0.018443,-0.098136 0.031217,-0.1655035 0.049999,-0.2401994 -0.01737,0.1494604 -0.024,0.2502076 -0.03303,0.3714529 -0.00865,0.1160502 -0.015886,0.2302092 -0.019972,0.3278018 -0.00126,0.030518 -0.0063,0.082838 -0.00666,0.1092674 -2.318e-4,0.016662 0.00383,0.023797 0.00356,0.043751 -1.552e-4,0.011429 -0.00298,0.034487 -0.00266,0.043706 0.00108,0.031514 0.00763,0.040305 0.00843,0.065635 0.00108,0.03335 -0.00651,0.017293 -5.863e-4,0.043715 0.00122,0.00532 0.0053,-0.00689 0.00624,4.33e-5 4.961e-4,0.00388 -3.663e-4,0.080154 -0.00117,0.087434 -0.00886,0.081699 -0.094284,0.5784064 -0.096251,0.5897203 -0.068251,0.3926826 -0.060095,0.3381407 -0.1456688,0.7862027 -0.025308,0.1325128 -0.1533393,0.833262 -0.2019058,1.02637 -0.1179622,0.577983 -0.2389261,1.148938 -0.3560601,1.746944 -0.017875,0.09124 -0.049863,0.237048 -0.065721,0.327557 -0.01336,0.07625 -0.016035,0.09685 -0.030112,0.152863"
         id="path1188-3-5" />
      <path
         style="opacity:0.99;fill:#ffc8c8;fill-opacity:1;stroke-width:0.119526;paint-order:markers fill stroke"
         d="M 7.7875829,10.528322 C 7.2794889,9.9666702 7.7974069,10.541272 7.3493757,10.038781 7.2924067,9.9748897 7.1363887,9.8042938 7.0863865,9.7486428 7.0169025,9.6713108 6.9453603,9.5881594 6.8757404,9.5095074 6.8152154,9.4411294 6.7560751,9.3775846 6.6966912,9.3115844 6.5981232,9.2020346 6.6950212,9.3084744 6.6165852,9.2178884 6.5996982,9.1983854 6.5847682,9.1841374 6.5680722,9.1654054 6.5150062,9.1058904 6.4784742,9.0650745 6.4337056,9.021446 c 0.070929,0.094416 0.1140516,0.1598496 0.1669251,0.2382238 0.050603,0.075015 0.09922,0.1492555 0.1388397,0.2134619 0.012381,0.020076 0.036241,0.053501 0.046279,0.071154 0.00634,0.011127 0.00525,0.017347 0.012805,0.030671 0.00433,0.00763 0.015412,0.022146 0.018511,0.028456 0.010559,0.021587 0.00777,0.029796 0.016256,0.047136 0.011163,0.022836 0.012354,0.00934 0.016598,0.029196 8.118e-4,0.00397 -0.00751,-0.00275 -0.00575,0.00216 9.472e-4,0.00275 0.0298,0.053784 0.033192,0.058402 0.038185,0.051832 0.2994642,0.3558523 0.3054351,0.3627713 0.2072208,0.240097 0.1796608,0.206282 0.4232077,0.47753 0.072029,0.08022 0.4475704,0.506483 0.5633175,0.61927 0.3211562,0.347231 0.6425009,0.688677 0.9702477,1.049667 0.050009,0.05508 0.1330825,0.141887 0.1809643,0.197183 0.040341,0.04659 0.050363,0.0595 0.083935,0.09222"
         id="path1188-4-4" />
      <path
         style="opacity:0.99;fill:#ffc8c8;fill-opacity:1;stroke-width:0.119526;paint-order:markers fill stroke"
         d="m 10.071528,9.3213242 c 0.180602,-0.9295577 -0.0024,0.020545 0.153243,-0.8080273 0.0198,-0.1053537 0.07617,-0.3884897 0.09376,-0.4804339 0.02444,-0.1277661 0.04788,-0.2636555 0.0718,-0.3931098 0.0208,-0.112541 0.0427,-0.2184891 0.06364,-0.3275704 0.03474,-0.181059 4e-6,-0.0046 0.02595,-0.152885 0.0056,-0.031925 0.012,-0.056465 0.01781,-0.087349 0.01844,-0.098136 0.03122,-0.1655043 0.05,-0.2402002 -0.01737,0.1494608 -0.024,0.2502084 -0.03303,0.3714547 -0.0086,0.1160502 -0.01589,0.2302105 -0.01997,0.3278036 -0.0013,0.030517 -0.0063,0.082839 -0.0067,0.1092683 -2.32e-4,0.016661 0.0038,0.023806 0.0036,0.043751 -1.54e-4,0.011429 -0.003,0.034487 -0.0027,0.043706 0.0011,0.031514 0.0076,0.040305 0.0085,0.065619 0.0012,0.033332 -0.0065,0.017293 -5.86e-4,0.043715 0.0012,0.00532 0.0054,-0.00691 0.0062,-6.3e-6 4.96e-4,0.00388 -3.86e-4,0.08016 -0.0012,0.087438 -0.0089,0.081698 -0.09428,0.5784074 -0.09625,0.5897227 -0.06825,0.3926844 -0.0601,0.3381416 -0.145672,0.7862068 -0.02531,0.1325128 -0.153343,0.8332656 -0.201911,1.0263746 -0.1179637,0.577987 -0.2389299,1.148945 -0.3560666,1.746954 -0.017879,0.09124 -0.049863,0.237049 -0.065723,0.327559 -0.013364,0.07625 -0.01603,0.09685 -0.030112,0.152863"
         id="path1188-5-6-3" />
      <path
         style="opacity:0.99;fill:#ffc8c8;fill-opacity:1;stroke-width:0.119526;paint-order:markers fill stroke"
         d="m 9.4792043,7.1207561 c 0.2741711,-0.503496 -0.00461,0.010974 0.2346619,-0.4372919 0.030418,-0.056995 0.1152627,-0.210496 0.1421106,-0.2602699 0.03731,-0.069166 0.074492,-0.1424728 0.1114681,-0.2124674 0.032141,-0.060851 0.064697,-0.1183717 0.096616,-0.1774295 0.05298,-0.098027 4.97e-4,-0.00244 0.04142,-0.082433 0.0088,-0.017225 0.01766,-0.030693 0.02658,-0.047397 0.02833,-0.053096 0.0479,-0.089552 0.0741,-0.1304403 -0.03267,0.079781 -0.04973,0.1330492 -0.07129,0.197261 -0.02064,0.061459 -0.0397,0.1217906 -0.05393,0.1731549 -0.0044,0.016062 -0.01486,0.043887 -0.01797,0.057718 -0.002,0.00872 0.0013,0.012038 -0.0012,0.02248 -0.0014,0.00599 -0.0065,0.018303 -0.0072,0.023084 -0.0023,0.016341 0.0032,0.020279 0.0014,0.0334 -0.0023,0.017288 -0.0082,0.00968 -0.0052,0.022881 6.32e-4,0.00266 0.006,-0.0041 0.0061,-6.315e-4 7.9e-5,0.00198 -0.0088,0.041888 -0.01032,0.04577 C 10.029415,6.391693 9.8937535,6.6596207 9.8906426,6.665726 9.7826855,6.8776197 9.796385,6.8483226 9.6656754,7.0908686 9.6270165,7.1626007 9.4282671,7.5413478 9.3605042,7.6470571 9.1844856,7.9606957 9.0062682,8.2709655 8.8289577,8.5949745 c -0.027054,0.049438 -0.073641,0.1287809 -0.098648,0.177632 -0.021068,0.041153 -0.02584,0.052178 -0.045492,0.08284"
         id="path1188-5-3-8-3-1-9" />
      <path
         style="opacity:0.99;fill:#ffc8c8;fill-opacity:1;stroke-width:0.119526;paint-order:markers fill stroke"
         d="m 1.9891061,10.689381 c 0.6867693,0.573159 -0.015387,-0.01162 0.5974897,0.495664 0.077928,0.0645 0.2869275,0.240014 0.3548945,0.296517 0.094446,0.07852 0.195247,0.160282 0.2910565,0.239259 0.083293,0.06866 0.1613873,0.134896 0.2420136,0.201979 0.1338271,0.111344 0.00353,0.0022 0.113463,0.0917 0.023671,0.01928 0.041577,0.03552 0.064424,0.05443 0.072589,0.06009 0.122405,0.101407 0.1770119,0.150382 -0.1120096,-0.08418 -0.1882028,-0.137459 -0.2797538,-0.202296 -0.087628,-0.06206 -0.1740017,-0.122241 -0.2481257,-0.172254 -0.02318,-0.01564 -0.062533,-0.04439 -0.082709,-0.05742 -0.012718,-0.0082 -0.018731,-0.0089 -0.033957,-0.01875 -0.00873,-0.0056 -0.025981,-0.01871 -0.033082,-0.02297 -0.024264,-0.0145 -0.031881,-0.01432 -0.051369,-0.02593 -0.025664,-0.01533 -0.012355,-0.01281 -0.033374,-0.02155 -0.00418,-0.0017 0.00456,0.007 -8.66e-4,0.0043 -0.00302,-0.0015 -0.061285,-0.03905 -0.06675,-0.04311 C 2.9381608,11.613722 2.5696817,11.315031 2.5612908,11.308213 2.2700776,11.07158 2.310706,11.103543 1.979469,10.828279 1.881508,10.746869 1.3626798,10.320336 1.2215092,10.193718 0.79525626,9.8334452 0.37478856,9.4745399 -0.06689874,9.1051618 c -0.06739149,-0.05636 -0.17461769,-0.1487634 -0.2417228,-0.2033919 -0.0565355,-0.046025 -0.071931,-0.057811 -0.1128812,-0.094538"
         id="path1188-9-7" />
      <path
         style="opacity:0.99;fill:#ffc8c8;fill-opacity:1;stroke-width:0.119526;paint-order:markers fill stroke"
         d="m 9.514217,9.4477082 c 0.702472,-0.7573792 -0.013978,0.017 0.606831,-0.6589693 0.07894,-0.085948 0.294287,-0.3164188 0.363489,-0.3913781 0.09616,-0.1041616 0.195851,-0.215364 0.292433,-0.3210407 0.08396,-0.091871 0.16538,-0.1779766 0.247545,-0.2668962 0.136389,-0.1475907 0.0025,-0.00388 0.111737,-0.1251765 0.02353,-0.026106 0.04372,-0.045836 0.06686,-0.071031 0.07353,-0.080063 0.124115,-0.1350023 0.184896,-0.1951674 -0.101123,0.1236783 -0.164136,0.2078741 -0.241041,0.3090286 -0.07361,0.096819 -0.14473,0.1922687 -0.203411,0.2742076 -0.01834,0.025619 -0.05268,0.06909 -0.0678,0.091403 -0.0095,0.014063 -0.0094,0.020766 -0.02084,0.037603 -0.0065,0.00965 -0.02232,0.0287 -0.0271,0.036557 -0.01646,0.026841 -0.01483,0.035357 -0.02806,0.056926 -0.0174,0.028411 -0.01626,0.013581 -0.02504,0.0369 -0.0018,0.0047 0.0093,-0.005 0.0063,0.00104 -0.0017,0.00338 -0.04519,0.067787 -0.05002,0.073824 -0.05463,0.067706 -0.418768,0.4742131 -0.427083,0.4834699 -0.288605,0.321259 -0.24986,0.2764221 -0.5869661,0.6417336 -0.09973,0.1080352 -0.6210642,0.6803123 -0.7781958,0.8358523 -0.4425346,0.470004 -0.8841828,0.93357 -1.3370647,1.420656 -0.069101,0.07432 -0.1830007,0.192521 -0.2496487,0.266548 -0.056155,0.06236 -0.070358,0.07937 -0.1159406,0.124481"
         id="path1188-4-7-7-6" />
      <path
         style="opacity:0.99;fill:#ffc8c8;fill-opacity:1;stroke-width:0.119526;paint-order:markers fill stroke"
         d="M 8.3189517,6.5942907 C 8.1687656,6.0722788 8.3205757,6.6057877 8.1926515,6.1406267 8.176414,6.0814817 8.1291,5.9224441 8.1145638,5.8708173 8.0943345,5.7990803 8.075747,5.7228468 8.0562471,5.6501801 8.0392834,5.5870091 8.0206508,5.5274739 8.0033262,5.4662249 c -0.028722,-0.1016745 2.896e-4,-0.00257 -0.020437,-0.08576 -0.00447,-0.017906 -0.010275,-0.03174 -0.015092,-0.049066 -0.015191,-0.055086 -0.025633,-0.092925 -0.042583,-0.1349774 0.010884,0.08363 0.012503,0.1398595 0.015624,0.2075615 0.00298,0.064801 0.00446,0.1285152 0.00343,0.1829254 -3.171e-4,0.017004 0.00225,0.046258 0.00117,0.060979 -6.765e-4,0.00928 -0.00574,0.013143 -0.00659,0.024252 -5.412e-4,0.00638 0.00131,0.019273 4.511e-4,0.024397 -0.00311,0.0175 -0.010987,0.022236 -0.013477,0.036291 -0.00329,0.018515 0.00636,0.0098 -0.00189,0.024338 -0.00171,0.00284 -0.00567,-0.00397 -0.00709,-1.25e-4 -7.668e-4,0.00207 -0.00429,0.044617 -0.00379,0.048688 0.00524,0.045694 0.072884,0.3243477 0.07454,0.3306763 0.054287,0.2203196 0.048316,0.1897389 0.1189905,0.4413285 0.020928,0.074402 0.1249241,0.4677117 0.1686554,0.5764487 0.099813,0.3247307 0.2034384,0.6456297 0.3011312,0.9814786 0.014934,0.051238 0.042615,0.1332214 0.055283,0.1840034 0.010627,0.042795 0.012462,0.054319 0.025173,0.085854"
         id="path1188-5-3-8-3-1-2-1-7" />
      <path
         style="opacity:0.99;fill:#ffc8c8;fill-opacity:1;stroke-width:0.119526;paint-order:markers fill stroke"
         d="m 4.8880462,2.3217338 c 0.7976732,0.4046384 -0.018136,-0.0081 0.6946193,0.349691 0.090626,0.045494 0.3331427,0.1694888 0.4121334,0.2093609 0.1097653,0.055407 0.22735,0.1129441 0.3388433,0.1686229 0.096929,0.048402 0.1874061,0.09525 0.2810963,0.1425917 0.1555129,0.078578 0.00428,0.00153 0.1324294,0.064503 0.027595,0.013564 0.048112,0.025137 0.07468,0.038477 0.084417,0.042381 0.1423325,0.071532 0.2050248,0.1063774 C 6.8947748,3.3426667 6.8040579,3.3058757 6.6952316,3.2610204 6.5910695,3.2180884 6.4881871,3.1765484 6.3995413,3.142185 6.3718203,3.131438 6.3252323,3.11147 6.3009773,3.1025749 c -0.015286,-0.00562 -0.023202,-0.00577 -0.04151,-0.012447 -0.010496,-0.00383 -0.030815,-0.012977 -0.039426,-0.015845 -0.029417,-0.0098 -0.039674,-0.00914 -0.063304,-0.016988 -0.031131,-0.010313 -0.013806,-0.00925 -0.040125,-0.014712 -0.0053,-0.00112 0.00461,0.0052 -0.00203,0.00337 -0.0037,-0.00102 -0.0738,-0.026602 -0.080252,-0.029429 C 5.9619296,2.9847816 5.5320432,2.7746123 5.5222569,2.7698134 5.1826292,2.603263 5.2302368,2.6256729 4.8452558,2.4314363 4.7313999,2.373993 4.1273969,2.0733805 3.9653243,1.9832898 3.4712072,1.728598 2.9845611,1.4745819 2.4717097,1.2137492 2.3934597,1.1739505 2.269547,1.1084836 2.1913089,1.0700256 2.1253966,1.0376263 2.1072841,1.0293901 2.0602711,1.0032584"
         id="path1188-5-3-8-31" />
      <path
         style="opacity:0.99;fill:#ffc8c8;fill-opacity:1;stroke-width:0.119526;paint-order:markers fill stroke"
         d="m 2.528961,7.1449199 c 0.4450592,0.2363136 -0.010001,-0.00428 0.3872658,0.2031164 0.050509,0.026372 0.1859306,0.099188 0.2299814,0.1223922 0.061213,0.03225 0.1265863,0.064972 0.1886963,0.097125 0.053997,0.027951 0.104583,0.055704 0.1568367,0.083275 0.086734,0.045765 0.0023,6.314e-4 0.073593,0.036566 0.015348,0.00774 0.026928,0.014988 0.041733,0.022719 0.047054,0.024568 0.07934,0.041496 0.1146546,0.06311 -0.072786,-0.030829 -0.1223842,-0.04849 -0.1819621,-0.070393 -0.057024,-0.020964 -0.1132532,-0.04081 -0.1615431,-0.056482 -0.015098,-0.0049 -0.040691,-0.015047 -0.053847,-0.018827 -0.00829,-0.00244 -0.012283,-8.57e-4 -0.022211,-0.00374 -0.00569,-0.00162 -0.016901,-0.00648 -0.021539,-0.00753 -0.015848,-0.00356 -0.020924,-7.667e-4 -0.033651,-0.00361 -0.016765,-0.00379 -0.00795,-0.00633 -0.021763,-0.00626 -0.00276,1.49e-5 0.00287,0.00424 -6.766e-4,0.00383 C 3.222549,7.6099946 3.184552,7.5991656 3.181003,7.5976996 3.14115,7.5812265 2.9021666,7.461762 2.8967248,7.4590272 2.7078628,7.3641373 2.7342338,7.3765033 2.519551,7.2635041 2.45606,7.2300842 2.1196965,7.056922 2.0284007,7.0010436 1.7522639,6.8506252 1.4799525,6.6993112 1.1937342,6.5467007 1.1500622,6.5234148 1.0806389,6.4840987 1.0371221,6.4621487 1.0004591,6.4436557 0.9904591,6.4392407 0.9639771,6.4230347"
         id="path1188-5-3-8-3-2" />
      <path
         style="opacity:0.99;fill:#ffc8c8;fill-opacity:1;stroke-width:0.119526;paint-order:markers fill stroke"
         d="m 2.0452026,2.2381213 c -0.8901153,0.23631 0.019996,-0.00429 -0.7745289,0.2031138 -0.1010241,0.026367 -0.37186073,0.099187 -0.45996203,0.1223903 -0.1224243,0.032246 -0.2531718,0.064971 -0.37739151,0.097123 -0.1079928,0.027949 -0.2091638,0.055703 -0.31367069,0.083274 -0.1734669,0.045764 -0.00459,6.135e-4 -0.1471866,0.036563 -0.030701,0.00774 -0.053852,0.014988 -0.083467,0.022719 -0.094103,0.024567 -0.1586789,0.041498 -0.22930811,0.063109 0.145572,-0.030828 0.24476681,-0.048489 0.3639221,-0.070391 0.1140484,-0.020963 0.2265053,-0.040809 0.3230851,-0.056481 0.0302,-0.0049 0.081382,-0.015044 0.1076947,-0.01883 0.016588,-0.0024 0.024567,-8.66e-4 0.044422,-0.00372 0.011382,-0.00163 0.033807,-0.00648 0.043078,-0.00753 0.031691,-0.00357 0.041843,-7.622e-4 0.067304,-0.00368 0.03353,-0.00383 0.0159,-0.00633 0.043526,-0.00626 0.00556,1.52e-5 -0.00577,0.00418 0.00135,0.00383 0.00396,-2.133e-4 0.079951,-0.011038 0.087052,-0.012508 C 0.82082966,2.6743803 1.2987933,2.5549124 1.3096759,2.5521781 1.6873893,2.4572851 1.6346484,2.4696521 2.0640112,2.3566539 2.1909935,2.3232339 2.8637187,2.1500741 3.0463109,2.0941963 3.5985807,1.9437801 4.1432023,1.7924678 4.7156363,1.6398593 c 0.087341,-0.023285 0.2261904,-0.0626 0.3132227,-0.08455 0.073324,-0.018488 0.093327,-0.022908 0.1462904,-0.039115"
         id="path1188-3-2" />
      <path
         style="opacity:0.99;fill:#ffc8c8;fill-opacity:1;stroke-width:0.119526;paint-order:markers fill stroke"
         d="M 2.2974234,0.40534811 C 1.6298372,0.16903443 2.3124224,0.40963511 1.7165271,0.20223227 1.6407591,0.17585975 1.437632,0.10304395 1.3715559,0.07983939 1.2797379,0.04759329 1.1816777,0.01486749 1.0885125,-0.01728421 c -0.080994,-0.0279494 -0.15687263,-0.0557043 -0.23525334,-0.0832755 -0.1300998,-0.0457641 -0.00344,-6.1232e-4 -0.1103896,-0.0365633 -0.023024,-0.007741 -0.040389,-0.0149876 -0.0626,-0.0227187 -0.070577,-0.024566 -0.1190093,-0.0414979 -0.1719811,-0.0631103 0.1091795,0.0308275 0.1835755,0.0484891 0.2729415,0.0703924 0.085536,0.0209633 0.1698794,0.040809 0.24231394,0.0564825 0.022649,0.004899 0.061037,0.0150438 0.080771,0.0188251 0.01244,0.002399 0.018423,8.6735e-4 0.033317,0.003725 0.00854,0.001633 0.025354,0.006481 0.032306,0.007532 0.023769,0.003572 0.031383,7.6542e-4 0.050478,0.003623 0.025145,0.003777 0.011924,0.006328 0.032645,0.006256 0.00417,-1.582e-5 -0.00433,-0.004235 9.878e-4,-0.003827 0.00297,2.1688e-4 0.059963,0.0110481 0.06529,0.0125127 0.059779,0.0164623 0.4182507,0.13593166 0.4264133,0.13866587 0.2832848,0.0948905 0.2437288,0.0825238 0.5657508,0.19552353 0.095236,0.0334198 0.59978,0.20658134 0.7367235,0.26246065 0.4142022,0.15041774 0.8226675,0.30173212 1.2519928,0.45434316 0.065506,0.023285 0.1696419,0.062601 0.2349173,0.084551 0.054992,0.018493 0.069994,0.022908 0.1097171,0.039115"
         id="path1188-4-1" />
      <path
         style="opacity:0.99;fill:#ffc8c8;fill-opacity:1;stroke-width:0.119526;paint-order:markers fill stroke"
         d="M 4.2788705,0.97124784 C 3.3887519,1.2075615 4.2988645,0.96695984 3.5043383,1.1743642 3.4033143,1.2007366 3.1324771,1.2735525 3.0443754,1.296757 2.92195,1.3290031 2.7912029,1.3617284 2.6669817,1.3938807 c -0.1079923,0.027949 -0.2091649,0.055704 -0.3136728,0.083276 -0.1734679,0.045764 -0.00459,6.118e-4 -0.1471871,0.036563 -0.030701,0.00774 -0.053851,0.014988 -0.083467,0.022719 -0.094103,0.024566 -0.1586799,0.041498 -0.2293092,0.06311 0.1455731,-0.030827 0.2447685,-0.048489 0.3639237,-0.070392 0.114049,-0.020963 0.2265069,-0.040809 0.3230872,-0.056482 0.0302,-0.0049 0.081383,-0.015049 0.1076957,-0.01883 0.016588,-0.0024 0.024567,-8.66e-4 0.044422,-0.00372 0.011382,-0.00163 0.033807,-0.00648 0.043078,-0.00753 0.031691,-0.00357 0.041843,-7.623e-4 0.067304,-0.00362 0.033525,-0.00378 0.0159,-0.00633 0.043526,-0.00626 0.00556,1.53e-5 -0.00577,0.00424 0.0013,0.00383 0.00396,-2.174e-4 0.079952,-0.011048 0.087053,-0.012512 0.079706,-0.01647 0.5576704,-0.1359401 0.568554,-0.1386742 0.3777144,-0.09489 0.3249728,-0.082523 0.754338,-0.1955231 0.126983,-0.03342 0.799711,-0.20658236 0.9823031,-0.26246117 C 5.8322036,0.67695594 6.3768276,0.52564211 6.9492643,0.3730316 7.0366053,0.3497464 7.1754552,0.31043 7.2624889,0.2884803 7.3358129,0.2699869 7.3558149,0.2655727 7.4087793,0.2493655"
         id="path1188-5-6-0" />
      <path
         style="opacity:0.99;fill:#ffc8c8;fill-opacity:1;stroke-width:0.119526;paint-order:markers fill stroke"
         d="m 2.5847443,5.9912945 c 0.4450589,0.2363136 -0.010001,-0.00428 0.3872655,0.2031159 0.050509,0.026373 0.1859306,0.099188 0.2299815,0.1223923 0.061213,0.03225 0.1265862,0.064972 0.1886963,0.097124 0.053996,0.027951 0.1045829,0.055704 0.1568366,0.083275 0.086734,0.045765 0.0023,6.315e-4 0.073594,0.036566 0.015348,0.00774 0.026928,0.014988 0.041733,0.022719 0.047054,0.024564 0.07934,0.041496 0.1146545,0.06311 -0.072786,-0.030832 -0.1223842,-0.048491 -0.181962,-0.070394 -0.057024,-0.020964 -0.1132533,-0.040808 -0.1615431,-0.056482 -0.015098,-0.0049 -0.040691,-0.015047 -0.053847,-0.018827 -0.00829,-0.00244 -0.012283,-8.57e-4 -0.022211,-0.00374 -0.00569,-0.00162 -0.016901,-0.00648 -0.021539,-0.00753 -0.015848,-0.00356 -0.020924,-7.668e-4 -0.033651,-0.00361 -0.016765,-0.00379 -0.00795,-0.00633 -0.021763,-0.00626 -0.00276,1.49e-5 0.00287,0.00424 -6.766e-4,0.00383 C 3.278333,6.4563667 3.240336,6.4455377 3.236787,6.4440717 3.1969341,6.4276049 2.9579503,6.3081408 2.9525085,6.3054062 2.7636465,6.2105161 2.7900175,6.2228824 2.575335,6.1098831 2.5118438,6.0764636 2.1754804,5.9033009 2.0841846,5.8474225 1.8080479,5.6970038 1.5357364,5.54569 1.2495182,5.3930797 1.2058462,5.3697937 1.1364228,5.3304777 1.0929062,5.3085276 1.0562432,5.2900346 1.0462422,5.2856196 1.0197602,5.2694137"
         id="path1188-5-3-8-3-1-7" />
      <path
         style="opacity:0.99;fill:#ffc8c8;fill-opacity:1;stroke-width:0.119526;paint-order:markers fill stroke"
         d="M 2.0290965,7.6951396 C 2.6440851,7.3479714 2.0160785,7.7035996 2.5622658,7.3914334 2.6317138,7.3517464 2.8195495,7.2466969 2.880275,7.2122155 2.964659,7.1643034 3.0534438,7.1120263 3.1386234,7.0630433 c 0.07405,-0.042587 0.1446491,-0.081467 0.2167183,-0.12234 0.1196243,-0.067843 0.00271,-0.00216 0.099731,-0.059028 0.020893,-0.012237 0.037746,-0.020563 0.058105,-0.032195 0.064691,-0.036972 0.109142,-0.062295 0.1601735,-0.087997 -0.094474,0.06182 -0.1562394,0.1061029 -0.2309701,0.1588519 -0.071527,0.05049 -0.1414123,0.1008077 -0.2003611,0.1449044 -0.018433,0.013788 -0.051109,0.035971 -0.066789,0.0483 -0.0099,0.00777 -0.012559,0.013229 -0.024395,0.02253 -0.00678,0.00534 -0.021408,0.014794 -0.026714,0.019318 -0.01812,0.01548 -0.020841,0.02299 -0.035386,0.035434 -0.019163,0.016382 -0.012627,0.00485 -0.025938,0.020396 -0.00266,0.00311 0.0061,-5.413e-4 0.00235,0.0032 -0.00208,0.00207 -0.047294,0.037743 -0.051875,0.040788 C 2.961867,7.2893177 2.637436,7.4805279 2.6300377,7.4848727 2.3732772,7.6356659 2.4084405,7.6140406 2.1125623,7.7821426 2.0250573,7.8318566 1.5645096,8.0977446 1.4325769,8.1641859 1.0480441,8.3771368 0.66651196,8.585217 0.27051497,8.808071 c -0.060421,0.034004 -0.1582677,0.086575 -0.21749751,0.1212661 -0.04989999,0.029228 -0.06302099,0.037603 -0.10128929,0.056878"
         id="path1188-9-0" />
      <path
         style="opacity:0.99;fill:#ffc8c8;fill-opacity:1;stroke-width:0.119526;paint-order:markers fill stroke"
         d="m 3.8166415,2.3074777 c -0.4804539,0.5829128 0.011402,-0.012028 -0.419546,0.504601 -0.054793,0.065691 -0.200444,0.244005 -0.2481075,0.3015071 -0.066232,0.079905 -0.1379774,0.163457 -0.2055137,0.2439461 -0.058714,0.069972 -0.1127951,0.1371586 -0.1693097,0.2054139 -0.093802,0.1132966 -0.00281,0.00235 -0.080928,0.093771 -0.016796,0.019693 -0.028658,0.035986 -0.04472,0.055245 -0.051041,0.061193 -0.086023,0.1032565 -0.122456,0.1524931 0.083188,-0.087185 0.1418495,-0.1431056 0.2119097,-0.210996 0.067056,-0.06498 0.1336675,-0.1281909 0.1916772,-0.1810554 0.018141,-0.016529 0.047799,-0.046458 0.063893,-0.06035 0.010136,-0.00877 0.016604,-0.01018 0.028741,-0.020678 0.00697,-0.006 0.019704,-0.019555 0.025562,-0.024127 0.019965,-0.015697 0.02869,-0.016631 0.044725,-0.029246 0.021138,-0.016595 0.00734,-0.012604 0.02661,-0.022989 0.00386,-0.00209 -0.00151,0.00659 0.00318,0.00347 0.00266,-0.00174 0.04916,-0.041758 0.053258,-0.045948 C 3.2214145,3.2252325 3.4837789,2.9199636 3.4897455,2.9129984 3.6968013,2.6712582 3.6673686,2.7040932 3.8997081,2.4239475 3.9684061,2.3410775 4.3347307,1.9061954 4.4289185,1.7789067 4.7247725,1.413282 5.0147715,1.0496173 5.3233756,0.67408148 c 0.047086,-0.057299 0.1205827,-0.15078571 0.168244,-0.20657521 0.040147,-0.0470041 0.051479,-0.0591662 0.078798,-0.0960908"
         id="path1188-4-7-7-2" />
      <path
         style="opacity:0.99;fill:#ffc8c8;fill-opacity:1;stroke-width:0.119526;paint-order:markers fill stroke"
         d="M 3.4633489,4.789784 C 3.4410539,4.2485213 3.4627757,4.801358 3.4466199,4.320259 3.4445899,4.259092 3.4368099,4.0938695 3.4348059,4.0404035 c -0.00281,-0.074298 -0.00396,-0.1526528 -0.00619,-0.2277111 -0.00193,-0.065251 -0.00543,-0.1272907 -0.00785,-0.1907384 -0.00401,-0.1053155 5.232e-4,-0.00245 -9.877e-4,-0.088049 -3.393e-4,-0.018427 -0.00208,-0.033149 -0.00271,-0.051077 -0.00193,-0.056982 -0.00328,-0.096125 -0.00812,-0.1407276 -0.00469,0.084002 -0.011423,0.1393064 -0.018793,0.2061389 -0.00706,0.063965 -0.014894,0.1265641 -0.023081,0.1795326 -0.00255,0.016559 -0.00495,0.045693 -0.0077,0.059846 -0.00172,0.00894 -0.00541,0.011665 -0.00747,0.022351 -0.0012,0.00613 -0.00183,0.019111 -0.00307,0.023944 -0.00438,0.016468 -0.00995,0.019473 -0.013451,0.0327 -0.00464,0.017422 0.00266,0.010884 -0.00453,0.023402 -0.00146,0.00245 -0.00302,-0.00505 -0.00443,-0.00158 -7.848e-4,0.00189 -0.00883,0.042738 -0.0091,0.046815 -0.00302,0.045749 0.00104,0.3321029 0.0012,0.3386311 0.0037,0.2265706 0.00417,0.1954451 0.013842,0.4559609 0.00287,0.077047 0.01393,0.4829754 0.02638,0.5982856 0.017875,0.3380206 0.038669,0.6730805 0.053683,1.0215353 0.0023,0.053167 0.00838,0.1390164 0.00933,0.1912719 7.848e-4,0.044026 3.491e-4,0.05567 0.00396,0.089117"
         id="path1188-5-3-8-3-1-2-1-5" />
    </g>
    <text
       xml:space="preserve"
       style="font-style:normal;font-variant:normal;font-weight:normal;font-stretch:normal;font-size:17.726px;font-family:'Berlin Sans FB';-inkscape-font-specification:'Berlin Sans FB, Normal';font-variant-ligatures:normal;font-variant-caps:normal;font-variant-numeric:normal;font-variant-east-asian:normal;opacity:0.99;fill:#fdb74c;fill-opacity:1;stroke-width:8.34139"
       x="4.2324381"
       y="10.971014"
       id="text18372"
       transform="scale(0.94437803,1.058898)"
       sodipodi:insensitive="true"><tspan
         sodipodi:role="line"
         id="tspan19468"
         x="4.2324381"
         y="10.971014"
         style="stroke-width:8.34139">1</tspan></text>
  </g>
</svg>
