<?xml version="1.0" encoding="UTF-8" standalone="no"?>
<!-- Created with Inkscape (http://www.inkscape.org/) -->

<svg
   width="100"
   height="100"
   viewBox="0 0 26.458333 26.458333"
   version="1.1"
   id="svg5"
   inkscape:export-filename="..\questionmark.png"
   inkscape:export-xdpi="96"
   inkscape:export-ydpi="96"
   inkscape:version="1.2 (dc2aedaf03, 2022-05-15)"
   sodipodi:docname="questionmark.svg"
   xmlns:inkscape="http://www.inkscape.org/namespaces/inkscape"
   xmlns:sodipodi="http://sodipodi.sourceforge.net/DTD/sodipodi-0.dtd"
   xmlns="http://www.w3.org/2000/svg"
   xmlns:svg="http://www.w3.org/2000/svg">
  <sodipodi:namedview
     id="namedview7"
     pagecolor="#ffffff"
     bordercolor="#000000"
     borderopacity="0.25"
     inkscape:showpageshadow="2"
     inkscape:pageopacity="0.0"
     inkscape:pagecheckerboard="0"
     inkscape:deskcolor="#d1d1d1"
     inkscape:document-units="mm"
     showgrid="false"
     inkscape:zoom="3.3638608"
     inkscape:cx="13.823402"
     inkscape:cy="49.19942"
     inkscape:window-width="1440"
     inkscape:window-height="830"
     inkscape:window-x="-6"
     inkscape:window-y="-6"
     inkscape:window-maximized="1"
     inkscape:current-layer="layer1" />
  <defs
     id="defs2" />
  <g
     inkscape:label="Layer 1"
     inkscape:groupmode="layer"
     id="layer1">
    <path
       style="opacity:0.99;fill:#ffc8c8;fill-opacity:1;stroke-width:0.264999;paint-order:markers fill stroke"
       d="M 2.7913751,4.8154792 C 3.3264329,3.3661755 2.7816599,4.8480354 3.2512678,3.5543752 3.3109782,3.3898864 3.4758485,2.9489053 3.5283875,2.8054565 3.6013949,2.6061226 3.6754957,2.3932381 3.7482933,2.19098 3.8115808,2.0151448 3.8744184,1.8504149 3.9368445,1.6802539 4.040464,1.3978117 3.9381963,1.6727982 4.0196363,1.4406021 4.0371664,1.3906173 4.0535676,1.3529206 4.0710723,1.3046999 4.1266925,1.1514798 4.1650255,1.0463356 4.2139654,0.93133592 4.1441635,1.16836 4.1041786,1.3298711 4.0545838,1.523881 4.0071141,1.7095771 3.9621877,1.8926827 3.9266976,2.0499356 3.9156058,2.0991086 3.89263,2.1824432 3.8840686,2.2252868 c -0.0054,0.027007 -0.00193,0.039999 -0.00839,0.072331 -0.0037,0.018534 -0.014673,0.055043 -0.017051,0.07014 -0.00812,0.051598 -0.00171,0.068129 -0.00824,0.1095907 -0.00858,0.054585 -0.014333,0.025887 -0.014163,0.07087 3.44e-5,0.00904 0.00953,-0.00937 0.00867,0.0022 -4.902e-4,0.00644 -0.02501,0.1301764 -0.02833,0.1417386 -0.03728,0.1297761 -0.3077757,0.9080043 -0.313966,0.9257248 -0.2148488,0.615 -0.1868487,0.5291254 -0.4427007,1.2282236 -0.075667,0.2067542 -0.4677403,1.3020983 -0.59426,1.599398 -0.3405746,0.8992184 -0.6831783,1.7859809 -1.0287163,2.7180306 -0.052721,0.14221 -0.141741,0.368286 -0.19144,0.5099956 -0.041869,0.1193862 -0.051869,0.1519543 -0.088569,0.238192"
       id="path1188" />
    <path
       style="opacity:0.99;fill:#ffc8c8;fill-opacity:1;stroke-width:0.264999;paint-order:markers fill stroke"
       d="M 5.8484318,9.1036831 C 6.3834896,7.1712682 5.8387147,9.1470984 6.3083246,7.4222021 6.3680344,7.2028823 6.5329052,6.6149048 6.5854442,6.423639 6.6584518,6.1578583 6.7325524,5.8740113 6.80535,5.6043321 6.8686371,5.369884 6.931475,5.1502429 6.9939012,4.9233603 c 0.1036189,-0.3765917 0.00135,-0.00994 0.082791,-0.3195377 0.01753,-0.066647 0.033931,-0.1169091 0.051436,-0.181204 0.05562,-0.2042944 0.093954,-0.3444874 0.1428931,-0.4978212 -0.069801,0.3160339 -0.1097872,0.531383 -0.1593816,0.7900645 -0.04747,0.2475962 -0.092396,0.4917383 -0.1278862,0.7014099 -0.011092,0.065565 -0.034068,0.1766779 -0.042629,0.233803 -0.0054,0.03601 -0.00193,0.053332 -0.00839,0.096442 -0.0037,0.024711 -0.014673,0.07339 -0.017051,0.093522 -0.00812,0.068804 -0.00171,0.090843 -0.00824,0.1461157 -0.00858,0.072787 -0.014333,0.034515 -0.014163,0.094493 3.44e-5,0.012069 0.00953,-0.012521 0.00867,0.00286 -4.918e-4,0.0086 -0.025011,0.1735728 -0.028332,0.1889884 C 6.8363374,6.4455383 6.5658415,7.4831812 6.5596512,7.5068091 6.3448024,8.3268127 6.3728025,8.2123127 6.1169504,9.1444494 6.0412829,9.4201234 5.6492102,10.88059 5.5226905,11.276992 c -0.3405746,1.198965 -0.6831783,2.381321 -1.0287163,3.624061 -0.052721,0.189614 -0.1417409,0.491051 -0.19144,0.679998 -0.041869,0.159183 -0.05187,0.202607 -0.088569,0.317591"
       id="path1188-5" />
    <path
       style="opacity:0.99;fill:#ffc8c8;fill-opacity:1;stroke-width:0.264999;paint-order:markers fill stroke"
       d="m 8.9054816,13.391885 c 0.5350578,-2.415526 -0.00969,0.05426 0.459893,-2.101858 0.059712,-0.27415 0.224581,-1.009124 0.2771202,-1.248208 0.073009,-0.3322267 0.1471071,-0.6870365 0.2199054,-1.0241361 0.063279,-0.2930613 0.1261253,-0.5676144 0.1885508,-0.8512171 0.103616,-0.4707419 0.0014,-0.012445 0.08278,-0.3994246 0.01753,-0.083313 0.03394,-0.1461361 0.05144,-0.2265044 0.05562,-0.255369 0.09396,-0.4306115 0.142892,-0.6222788 -0.0698,0.3950433 -0.109788,0.6642307 -0.159381,0.9875835 -0.04746,0.3094961 -0.09239,0.6146745 -0.127885,0.8767653 -0.01109,0.081955 -0.03407,0.2208475 -0.042626,0.2922537 -0.00543,0.045015 -0.00192,0.066667 -0.00841,0.1205496 -0.00373,0.030886 -0.01467,0.091742 -0.017055,0.1169013 -0.00809,0.085997 -0.0017,0.1135494 -0.0082,0.1826454 -0.00852,0.090975 -0.014329,0.043151 -0.01417,0.1181179 3.41e-5,0.015093 0.00958,-0.015659 0.00862,0.00351 C 9.9584642,9.6273327 9.933938,9.8335507 9.930628,9.8528194 9.893346,10.06912 9.622852,11.36618 9.6166615,11.395715 c -0.2148486,1.025035 -0.186848,0.88191 -0.4427,2.047085 -0.07567,0.344593 -0.4677405,2.170182 -0.5942607,2.665686 -0.3405748,1.49871 -0.6831772,2.976661 -1.0287157,4.530089 -0.052722,0.23702 -0.1417415,0.613817 -0.1914397,0.850002 -0.041872,0.198978 -0.051867,0.253259 -0.088564,0.396989"
       id="path1188-5-3" />
    <path
       style="opacity:0.99;fill:#ffc8c8;fill-opacity:1;stroke-width:0.264999;paint-order:markers fill stroke"
       d="m 15.151888,18.301578 c 0.916177,-1.731717 -0.01833,0.03937 0.791766,-1.507991 0.103009,-0.196746 0.383754,-0.72324 0.474032,-0.894727 0.125452,-0.238295 0.255726,-0.493567 0.381793,-0.735616 0.109592,-0.210427 0.215664,-0.40685 0.322853,-0.610248 0.177915,-0.337612 0.0035,-0.0093 0.146047,-0.2875 0.03071,-0.05991 0.05691,-0.104452 0.08712,-0.162129 0.09596,-0.183267 0.161961,-0.308998 0.240858,-0.4451 -0.132887,0.286779 -0.216188,0.483722 -0.317749,0.719979 -0.09721,0.226132 -0.19126,0.449487 -0.269066,0.641933 -0.02434,0.06018 -0.06955,0.161323 -0.08968,0.213978 -0.01272,0.03319 -0.01306,0.05037 -0.02818,0.09012 -0.0086,0.02279 -0.02938,0.0669 -0.03588,0.08559 -0.02218,0.06385 -0.02069,0.08612 -0.03846,0.137431 -0.02335,0.06757 -0.02094,0.02997 -0.03331,0.0871 -0.0026,0.01149 0.01176,-0.01 0.0077,0.0044 -0.0023,0.008 -0.06023,0.160191 -0.06663,0.174198 -0.07187,0.15721 -0.547729,1.090478 -0.558594,1.111722 -0.377102,0.73732 -0.326362,0.633965 -0.766149,1.469744 -0.130062,0.247178 -0.810705,1.558444 -1.014686,1.910297 -0.57667,1.07271 -1.15181,2.129201 -1.742383,3.242581 -0.09012,0.169878 -0.238341,0.438888 -0.325416,0.608739 -0.07336,0.143093 -0.092,0.182416 -0.151174,0.284479"
       id="path1188-5-3-8" />
    <path
       style="opacity:0.99;fill:#ffc8c8;fill-opacity:1;stroke-width:0.264999;paint-order:markers fill stroke"
       d="m 18.076662,18.488017 c 0.535058,-0.966208 -0.0097,0.02171 0.459893,-0.84074 0.05971,-0.109654 0.224581,-0.403649 0.277119,-0.499281 0.07301,-0.132891 0.147108,-0.274814 0.219908,-0.409653 0.06328,-0.117224 0.126124,-0.227045 0.188551,-0.340486 0.103616,-0.188295 0.0014,-0.0049 0.08278,-0.159769 0.01753,-0.03332 0.03394,-0.05846 0.05144,-0.0906 0.05562,-0.102149 0.09396,-0.172244 0.142893,-0.248911 -0.06979,0.158016 -0.109788,0.265692 -0.159381,0.395033 -0.04747,0.123796 -0.0924,0.245868 -0.127886,0.350704 -0.01109,0.03278 -0.03407,0.08834 -0.04263,0.1169 -0.0054,0.018 -0.0019,0.02667 -0.0084,0.04821 -0.0037,0.01236 -0.01467,0.03669 -0.01706,0.04676 -0.0081,0.03441 -0.0017,0.04543 -0.0082,0.07305 -0.0085,0.03639 -0.01433,0.01726 -0.01417,0.04725 3.4e-5,0.006 0.0096,-0.0062 0.0086,0.0015 -4.93e-4,0.0043 -0.02502,0.08678 -0.02833,0.09449 -0.03728,0.08652 -0.307776,0.605343 -0.313967,0.617156 -0.214849,0.410013 -0.186849,0.352763 -0.4427,0.81883 -0.07567,0.137837 -0.46774,0.868069 -0.594261,1.066269 -0.340574,0.599483 -0.683177,1.19066 -1.028716,1.812029 -0.05272,0.09481 -0.141741,0.245526 -0.191439,0.339999 -0.04187,0.07959 -0.05187,0.101308 -0.08856,0.158795"
       id="path1188-5-3-8-3" />
    <path
       style="opacity:0.99;fill:#ffc8c8;fill-opacity:1;stroke-width:0.264999;paint-order:markers fill stroke"
       d="m 11.943359,17.680071 c 0.534961,-2.898631 0,0.06511 0.459859,-2.522228 0.05777,-0.328981 0.225307,-1.210949 0.277301,-1.497849 0.06932,-0.398673 0.146739,-0.824446 0.21953,-1.228964 0.06933,-0.351675 0.127097,-0.681138 0.18949,-1.02146 0.103988,-0.564891 0,-0.01493 0.08088,-0.479309 0.01155,-0.09998 0.03466,-0.175366 0.05777,-0.271808 0.05777,-0.306441 0.09244,-0.516733 0.142117,-0.746734 -0.06933,0.474052 -0.103988,0.797077 -0.159449,1.1851 -0.04621,0.371397 -0.09244,0.737609 -0.127096,1.052119 -0.01155,0.09835 -0.03466,0.265016 -0.04621,0.350704 0,0.05403 0,0.07999 0,0.14466 0,0.03707 -0.01155,0.110095 -0.01155,0.140281 0,0.10319 0,0.136259 0,0.219175 0,0.109167 -0.01155,0.05178 -0.01155,0.141742 0,0.01811 0,-0.01879 0,0.0042 0,0.0129 -0.02311,0.260359 -0.02311,0.283482 -0.03466,0.25956 -0.307342,1.816031 -0.31312,1.851474 -0.214908,1.230042 -0.187178,1.058292 -0.442526,2.456502 -0.08088,0.413511 -0.467947,2.604218 -0.595043,3.198823 -0.340851,1.798452 -0.682855,3.571994 -1.028327,5.436108 -0.05777,0.284424 -0.142117,0.73658 -0.1918,1.020003 -0.04621,0.238774 -0.05778,0.303909 -0.09244,0.476386"
       id="path1188-5-3-2" />
    <path
       style="opacity:0.99;fill:#ffc8c8;fill-opacity:1;stroke-width:0.264999;paint-order:markers fill stroke"
       d="m 21.133813,18.084043 c 0.53505,-1.932406 -0.0097,0.04341 0.459887,-1.681473 0.0597,-0.219319 0.224578,-0.807295 0.277115,-0.998559 0.07301,-0.265779 0.147107,-0.549627 0.219904,-0.819304 0.06328,-0.234447 0.126123,-0.454086 0.188548,-0.680968 0.103616,-0.37659 0.0014,-0.01 0.08278,-0.319536 0.01752,-0.06665 0.03394,-0.11691 0.05144,-0.181203 0.05562,-0.204294 0.09396,-0.344485 0.14289,-0.49782 -0.06979,0.316032 -0.109788,0.53138 -0.159377,0.790062 -0.04747,0.247595 -0.0924,0.491736 -0.127884,0.701406 -0.01109,0.06556 -0.03407,0.176678 -0.04264,0.233801 -0.0054,0.03602 -0.0019,0.05333 -0.0084,0.09644 -0.0037,0.02471 -0.01467,0.0734 -0.01705,0.09352 -0.0081,0.0688 -0.0017,0.09083 -0.0083,0.146116 -0.0086,0.07279 -0.01434,0.03452 -0.01417,0.09449 3.5e-5,0.01207 0.0095,-0.01252 0.0086,0.0029 -4.83e-4,0.0086 -0.025,0.173571 -0.02832,0.188987 -0.03727,0.17304 -0.30777,1.210681 -0.313961,1.234306 -0.214846,0.82 -0.186846,0.705502 -0.442695,1.637632 -0.07567,0.275674 -0.467734,1.736135 -0.594253,2.132535 -0.340569,1.198957 -0.683168,2.381309 -1.028702,3.624042 -0.05272,0.189615 -0.141738,0.491051 -0.191437,0.679995 -0.04186,0.159184 -0.05187,0.202608 -0.08856,0.317591"
       id="path1188-3" />
    <path
       style="opacity:0.99;fill:#ffc8c8;fill-opacity:1;stroke-width:0.264999;paint-order:markers fill stroke"
       d="m 7.3769662,21.593549 c 0.5350567,1.449304 -0.00971,-0.03256 0.459893,1.261105 0.059712,0.164489 0.2245795,0.605469 0.2771188,0.748918 0.073011,0.199335 0.1471085,0.412218 0.2199059,0.614476 0.063283,0.175836 0.1261249,0.340566 0.1885512,0.510726 0.1036179,0.282443 0.00138,0.0075 0.082786,0.239652 0.017527,0.04998 0.033935,0.08768 0.05144,0.135902 0.055622,0.15322 0.093959,0.258365 0.1428927,0.373364 -0.069798,-0.237024 -0.1097875,-0.398535 -0.1593806,-0.592546 -0.047464,-0.185694 -0.092399,-0.3688 -0.1278869,-0.526053 -0.011092,-0.04917 -0.034061,-0.132508 -0.042624,-0.175352 -0.00543,-0.027 -0.00197,-0.03999 -0.00843,-0.07233 -0.00369,-0.01853 -0.014674,-0.05504 -0.017055,-0.07014 -0.00809,-0.0516 -0.00174,-0.06813 -0.00821,-0.109586 -0.00855,-0.05459 -0.014327,-0.02589 -0.014165,-0.07088 3.59e-5,-0.009 0.00959,0.0094 0.00867,-0.0021 -4.911e-4,-0.0064 -0.025014,-0.130178 -0.028331,-0.14174 C 8.3648654,23.587154 8.0943648,22.808927 8.088174,22.791206 7.8733243,22.176207 7.9013248,22.262081 7.6454726,21.562982 7.5698039,21.356227 7.1777342,20.260884 7.0512132,19.963584 6.7106396,19.064367 6.3680359,18.177603 6.0224963,17.245554 5.9697743,17.103345 5.8807559,16.877269 5.8310566,16.735559 5.789184,16.616173 5.7791896,16.583605 5.7424933,16.497366"
       id="path1188-2" />
    <path
       style="opacity:0.99;fill:#ffc8c8;fill-opacity:1;stroke-width:0.264999;paint-order:markers fill stroke"
       d="m 10.434023,17.305347 c 0.535058,1.932414 -0.0097,-0.04341 0.459893,1.68148 0.05971,0.21932 0.224581,0.807297 0.27712,0.998564 0.07301,0.265781 0.147108,0.549628 0.219906,0.819306 0.06328,0.234448 0.126125,0.45409 0.188551,0.680971 0.103616,0.376593 0.0014,0.01 0.08278,0.319539 0.01752,0.06665 0.03394,0.116909 0.05144,0.181204 0.05562,0.204294 0.09396,0.344488 0.142892,0.497821 -0.06979,-0.316034 -0.109788,-0.531383 -0.159382,-0.790065 -0.04746,-0.247596 -0.09239,-0.491738 -0.127886,-0.701409 -0.01109,-0.06556 -0.03408,-0.176678 -0.04264,-0.233803 -0.0054,-0.03602 -0.0019,-0.05334 -0.0084,-0.09644 -0.0037,-0.02471 -0.01467,-0.07339 -0.01705,-0.09352 -0.0081,-0.0688 -0.0017,-0.09083 -0.0082,-0.146116 -0.0085,-0.07278 -0.01433,-0.03452 -0.01417,-0.09449 3.5e-5,-0.01207 0.0096,0.01252 0.0086,-0.0028 -4.92e-4,-0.0086 -0.02502,-0.173574 -0.02833,-0.188988 C 11.421896,19.963524 11.151391,18.92588 11.1452,18.902253 10.930351,18.082249 10.958352,18.196749 10.7025,17.264611 10.62683,16.988938 10.234759,15.528471 10.108239,15.13207 9.7676641,13.933105 9.4250625,12.750748 9.0795237,11.508009 9.0268056,11.318395 8.9377821,11.016958 8.8880842,10.82801 8.8462142,10.668828 8.8362177,10.625404 8.7995216,10.51042"
       id="path1188-5-5" />
    <path
       style="opacity:0.99;fill:#ffc8c8;fill-opacity:1;stroke-width:0.264999;paint-order:markers fill stroke"
       d="m 13.491073,13.017145 c 0.535058,2.415526 -0.0097,-0.05426 0.459893,2.101858 0.05971,0.274149 0.224581,1.009124 0.277121,1.248207 0.07301,0.332227 0.147107,0.687037 0.219905,1.024137 0.06328,0.293061 0.126125,0.567614 0.188551,0.851218 0.103616,0.470741 0.0014,0.01245 0.08278,0.399423 0.01752,0.08331 0.03394,0.146137 0.05144,0.226504 0.05562,0.25537 0.09396,0.430612 0.142892,0.622279 -0.0698,-0.395043 -0.109788,-0.66423 -0.159382,-0.987582 -0.04747,-0.309498 -0.0924,-0.614675 -0.127886,-0.876767 -0.01109,-0.08196 -0.03407,-0.220847 -0.04263,-0.292253 -0.0054,-0.04502 -0.0019,-0.06666 -0.0084,-0.120549 -0.0037,-0.03088 -0.01467,-0.09175 -0.01705,-0.116902 -0.0081,-0.086 -0.0017,-0.11355 -0.0082,-0.182645 -0.0085,-0.09097 -0.01433,-0.04315 -0.01417,-0.118118 3.5e-5,-0.01509 0.0096,0.01566 0.0086,-0.0035 -4.92e-4,-0.01075 -0.02502,-0.216965 -0.02833,-0.236234 C 14.478946,16.33995 14.208451,15.04289 14.202261,15.013356 13.987433,13.988282 14.015433,14.131407 13.759581,12.966233 13.683912,12.62164 13.29184,10.796051 13.16532,10.300547 12.824745,8.8018368 12.482142,7.3238862 12.136605,5.770458 12.083882,5.5334381 11.994863,5.1566411 11.945165,4.9204561 11.903292,4.721478 11.893298,4.6671975 11.856602,4.5234671"
       id="path1188-5-3-25" />
    <path
       style="opacity:0.99;fill:#ffc8c8;fill-opacity:1;stroke-width:0.264999;paint-order:markers fill stroke"
       d="m 19.6052,8.3249471 c 0.535058,1.9324209 -0.0097,-0.043412 0.459892,1.6814859 0.05971,0.219321 0.22458,0.807299 0.277121,0.998565 0.07301,0.265782 0.147108,0.549631 0.219906,0.81931 0.06328,0.234449 0.126124,0.454092 0.18855,0.680973 0.103616,0.376595 0.0014,0.01 0.08278,0.319541 0.01752,0.06665 0.03394,0.116909 0.05144,0.181204 0.05562,0.204294 0.09396,0.344489 0.142892,0.497822 -0.06979,-0.316034 -0.109788,-0.531383 -0.159382,-0.790067 -0.04747,-0.247597 -0.09239,-0.491739 -0.127887,-0.701411 -0.01109,-0.06557 -0.03406,-0.176679 -0.04263,-0.233804 -0.0054,-0.03602 -0.0019,-0.05333 -0.0084,-0.09644 -0.0037,-0.02471 -0.01467,-0.07339 -0.01705,-0.09352 -0.0081,-0.0688 -0.0017,-0.09083 -0.0082,-0.146116 -0.0085,-0.07278 -0.01433,-0.03452 -0.01417,-0.09449 3.6e-5,-0.01207 0.0096,0.01253 0.0086,-0.0028 -4.91e-4,-0.0086 -0.02502,-0.173573 -0.02833,-0.188988 C 20.593092,10.98314 20.322597,9.9454921 20.316406,9.9218653 20.101557,9.1018377 20.129557,9.2163375 19.873705,8.2841972 19.798037,8.0085223 19.405965,6.5480524 19.279446,6.1516494 18.938871,4.9526802 18.596267,3.7703199 18.25073,2.5275774 18.198007,2.3379615 18.108988,2.0365239 18.059289,1.8475755 18.017417,1.6883927 18.007423,1.6449701 17.970726,1.529985"
       id="path1188-5-3-8-0" />
    <path
       style="opacity:0.99;fill:#ffc8c8;fill-opacity:1;stroke-width:0.264999;paint-order:markers fill stroke"
       d="m 22.662254,7.921014 c 0.535058,0.9662064 -0.0097,-0.021712 0.459893,0.8407389 0.05971,0.109654 0.224581,0.4036483 0.277119,0.4992806 0.07301,0.1328904 0.147108,0.2748139 0.219906,0.4096526 0.06328,0.1172241 0.126126,0.2270456 0.188552,0.3404859 0.103615,0.188296 0.0014,0.005 0.08278,0.159769 0.01753,0.03332 0.03394,0.05846 0.05144,0.0906 0.05562,0.102152 0.09396,0.172244 0.142893,0.248911 -0.0698,-0.158017 -0.109789,-0.265692 -0.159382,-0.395033 -0.04746,-0.1237967 -0.09239,-0.2458687 -0.127885,-0.3507043 -0.01109,-0.032776 -0.03407,-0.088338 -0.04263,-0.1169005 -0.0054,-0.018001 -0.0019,-0.026666 -0.0084,-0.048219 -0.0037,-0.012355 -0.01467,-0.036691 -0.01705,-0.04676 -0.0081,-0.034405 -0.0017,-0.045425 -0.0082,-0.073054 -0.0085,-0.036397 -0.01433,-0.017254 -0.01417,-0.047247 3.4e-5,-0.00599 0.0096,0.00623 0.0086,-0.00147 -4.93e-4,-0.0043 -0.02502,-0.086788 -0.02833,-0.094493 C 23.650148,9.2500551 23.379652,8.7312304 23.373462,8.7194165 23.158613,8.3094042 23.186612,8.3666546 22.930762,7.9005868 22.855093,7.76275 22.46302,7.0325178 22.336501,6.8343181 21.995927,6.2348357 21.653324,5.6436578 21.307785,5.0222889 21.255063,4.9274786 21.166043,4.7767632 21.116346,4.6822901 21.074476,4.6026975 21.064479,4.5809859 21.027783,4.5234944"
       id="path1188-5-3-8-3-5" />
    <path
       style="opacity:0.99;fill:#ffc8c8;fill-opacity:1;stroke-width:0.264999;paint-order:markers fill stroke"
       d="m 16.52895,8.7289597 c 0.534961,2.8986303 0,-0.065112 0.459859,2.5222293 0.05777,0.328979 0.225307,1.210948 0.277302,1.497848 0.06933,0.398672 0.146739,0.824445 0.219529,1.228963 0.06933,0.351675 0.127097,0.681138 0.189489,1.021461 0.103989,0.56489 0,0.01493 0.08088,0.479309 0.01155,0.09998 0.03466,0.175365 0.05777,0.271807 0.05777,0.306442 0.09244,0.516733 0.142118,0.746735 -0.06933,-0.474053 -0.103988,-0.797078 -0.159449,-1.185101 -0.04621,-0.371396 -0.09244,-0.737609 -0.127096,-1.052118 -0.01155,-0.09835 -0.03466,-0.265016 -0.04621,-0.350704 0,-0.05403 0,-0.07999 0,-0.144661 0,-0.03707 -0.01155,-0.110095 -0.01155,-0.14028 0,-0.10319 0,-0.13626 0,-0.219175 0,-0.109168 -0.01155,-0.05178 -0.01155,-0.141742 0,-0.01812 0,0.01879 0,-0.0042 0,-0.0129 -0.02311,-0.260361 -0.02311,-0.283483 -0.03467,-0.25954 -0.307351,-1.816011 -0.313127,-1.851454 C 17.048889,9.8943454 17.076619,10.066096 16.821271,8.6678874 16.740391,8.2543749 16.353325,6.0636682 16.226228,5.4690634 15.885379,3.6706119 15.543373,1.8970691 15.197902,0.03295647 15.140127,-0.2514674 15.055785,-0.7036239 15.006102,-0.98704648 14.959889,-1.2258201 14.948327,-1.2909563 14.913665,-1.4634328"
       id="path1188-5-3-2-1" />
    <path
       style="opacity:0.99;fill:#ffc8c8;fill-opacity:1;stroke-width:0.264999;paint-order:markers fill stroke"
       d="m 25.719407,8.3249879 c 0.535048,1.9324061 -0.0097,-0.043412 0.459886,1.6814721 0.0597,0.21932 0.224579,0.807296 0.277116,0.99856 0.07301,0.265779 0.147107,0.549627 0.219904,0.819302 0.06328,0.234449 0.126123,0.454087 0.188547,0.680969 0.103616,0.37659 0.0014,0.01 0.08278,0.319537 0.01752,0.06665 0.03394,0.116909 0.05144,0.181202 0.05562,0.204295 0.09396,0.344486 0.142889,0.49782 -0.06979,-0.316032 -0.109788,-0.53138 -0.159378,-0.790061 -0.04747,-0.247595 -0.09239,-0.491736 -0.127885,-0.701408 -0.01109,-0.06556 -0.03406,-0.176676 -0.04264,-0.2338 -0.0054,-0.03602 -0.0019,-0.05334 -0.0084,-0.09644 -0.0037,-0.02471 -0.01467,-0.07339 -0.01705,-0.09352 -0.0081,-0.0688 -0.0017,-0.09083 -0.0083,-0.146116 -0.0086,-0.0728 -0.01434,-0.03452 -0.01417,-0.09449 3.4e-5,-0.01207 0.0095,0.01252 0.0086,-0.0029 -4.84e-4,-0.0086 -0.025,-0.173571 -0.02832,-0.188987 C 26.70718,10.983043 26.436678,9.9454015 26.430486,9.9217771 26.215641,9.1017777 26.243642,9.2162764 25.987793,8.2841462 25.912123,8.0084725 25.520059,6.5480116 25.393541,6.1516109 25.05297,4.9526543 24.71037,3.7703018 24.364837,2.5275684 24.312116,2.3379547 24.223099,2.0365182 24.173399,1.8475743 24.131539,1.6883905 24.121533,1.6449656 24.084836,1.5299827"
       id="path1188-3-4" />
    <path
       style="opacity:0.99;fill:#ffc8c8;fill-opacity:1;stroke-width:0.264999;paint-order:markers fill stroke"
       d="m 21.274721,22.141974 c -0.535057,-1.449303 0.0097,0.03257 -0.459892,-1.261103 -0.05971,-0.164489 -0.22458,-0.605471 -0.27712,-0.74892 -0.07301,-0.199332 -0.147108,-0.412218 -0.219905,-0.614476 -0.06328,-0.175834 -0.126125,-0.340564 -0.188551,-0.510726 -0.103616,-0.282442 -0.0014,-0.0075 -0.08278,-0.239651 -0.01752,-0.04998 -0.03394,-0.08768 -0.05144,-0.135903 -0.05562,-0.15322 -0.09396,-0.258364 -0.142893,-0.373364 0.06979,0.237025 0.109788,0.398535 0.159381,0.592546 0.04747,0.185695 0.09239,0.368801 0.127887,0.526054 0.01109,0.04917 0.03407,0.132508 0.04263,0.175351 0.0054,0.027 0.0019,0.03999 0.0084,0.07233 0.0037,0.01853 0.01467,0.05504 0.01705,0.07014 0.0081,0.0516 0.0017,0.06813 0.0082,0.109586 0.0085,0.05459 0.01433,0.02589 0.01417,0.07087 -3.5e-5,0.009 -0.0096,-0.0094 -0.0086,0.0021 4.92e-4,0.0064 0.02502,0.130179 0.02833,0.141741 0.03727,0.129776 0.307776,0.908004 0.313966,0.925725 0.214849,0.615 0.186849,0.529125 0.442702,1.228223 0.07567,0.206754 0.467739,1.3021 0.594259,1.599399 0.340575,0.899217 0.683179,1.78598 1.028716,2.718029 0.05272,0.142211 0.141741,0.368287 0.191441,0.509996 0.04187,0.119386 0.05187,0.151955 0.08856,0.238192"
       id="path1188-4" />
    <path
       style="opacity:0.99;fill:#ffc8c8;fill-opacity:1;stroke-width:0.264999;paint-order:markers fill stroke"
       d="m 26.108658,20.492362 c 0.535058,-1.932414 -0.0097,0.04341 0.459893,-1.681481 0.05971,-0.219319 0.22458,-0.807296 0.27712,-0.998561 0.07301,-0.265782 0.147107,-0.549629 0.219905,-0.819308 0.06328,-0.234447 0.126126,-0.454089 0.188552,-0.680971 0.103615,-0.376593 0.0014,-0.01 0.08278,-0.319538 0.01752,-0.06665 0.03394,-0.116911 0.05144,-0.181204 0.05562,-0.204295 0.09396,-0.344489 0.142893,-0.497822 -0.06979,0.316034 -0.10979,0.531383 -0.159382,0.790064 -0.04747,0.247597 -0.09239,0.491738 -0.127886,0.70141 -0.01109,0.06556 -0.03408,0.176679 -0.04264,0.233804 -0.0054,0.03602 -0.0019,0.05334 -0.0084,0.09644 -0.0037,0.02471 -0.01467,0.07339 -0.01705,0.09352 -0.0081,0.0688 -0.0017,0.09083 -0.0082,0.146114 -0.0085,0.07278 -0.01433,0.03452 -0.01417,0.09449 3.5e-5,0.01207 0.0096,-0.01252 0.0086,0.0028 -4.92e-4,0.0086 -0.02502,0.173573 -0.02833,0.188989 -0.03727,0.17304 -0.307776,1.210683 -0.313966,1.23431 -0.214849,0.820004 -0.186848,0.705504 -0.4427,1.637639 -0.07567,0.275675 -0.467741,1.736142 -0.594262,2.132544 -0.340574,1.198965 -0.683177,2.381321 -1.028715,3.624061 -0.05272,0.189615 -0.141741,0.491051 -0.191439,0.679999 -0.04187,0.159182 -0.05187,0.202606 -0.08856,0.31759"
       id="path1188-5-6" />
    <path
       style="opacity:0.99;fill:#ffc8c8;fill-opacity:1;stroke-width:0.264999;paint-order:markers fill stroke"
       d="m 1.5105695,19.266099 c 0.5350579,-2.415525 -0.00971,0.05426 0.459893,-2.101857 0.059712,-0.27415 0.2245807,-1.009124 0.2771201,-1.248208 0.073011,-0.332226 0.1471073,-0.687037 0.2199058,-1.024136 0.063283,-0.293062 0.1261249,-0.567615 0.1885512,-0.851217 0.1036179,-0.470742 0.00138,-0.01244 0.082786,-0.399425 0.017527,-0.08332 0.033935,-0.146137 0.05144,-0.226504 0.055622,-0.255371 0.093959,-0.430612 0.1428923,-0.62228 -0.069799,0.395044 -0.1097883,0.664232 -0.1593813,0.987585 -0.047464,0.309495 -0.092399,0.614673 -0.1278857,0.876764 -0.011092,0.08196 -0.034062,0.220848 -0.042624,0.292254 -0.00543,0.04502 -0.00196,0.06667 -0.00843,0.12055 -0.00369,0.03088 -0.014674,0.09174 -0.017055,0.116901 -0.00809,0.086 -0.00174,0.11355 -0.00821,0.182646 -0.00855,0.09097 -0.014327,0.04316 -0.014165,0.118118 3.47e-5,0.01509 0.00959,-0.01566 0.00867,0.0035 -4.922e-4,0.01075 -0.025015,0.216967 -0.028331,0.236234 -0.037286,0.216302 -0.3077757,1.513361 -0.3139665,1.542896 -0.2148486,1.025035 -0.1868481,0.88191 -0.4427003,2.047085 -0.075668,0.344594 -0.4677406,2.170182 -0.5942606,2.665685 -0.34057474,1.498711 -0.68317721,2.976662 -1.02871569,4.530091 -0.0527224,0.237019 -0.14174153,0.613816 -0.19143972,0.850001 -0.04187214,0.198978 -0.0518675,0.253259 -0.08856363,0.396989"
       id="path1188-5-3-4" />
    <path
       style="opacity:0.99;fill:#ffc8c8;fill-opacity:1;stroke-width:0.264999;paint-order:markers fill stroke"
       d="m 5.6075857,19.868894 c 1.0781754,-1.70122 -0.022004,0.03887 0.9327225,-1.481904 0.1213956,-0.193363 0.4514322,-0.710416 0.5577446,-0.878916 0.1477349,-0.234146 0.3017979,-0.485295 0.4504699,-0.723235 0.1292443,-0.206858 0.2537334,-0.399652 0.3799426,-0.5995 0.2094892,-0.33172 0.00424,-0.0091 0.172833,-0.282905 0.036299,-0.05893 0.066727,-0.102486 0.1023149,-0.159169 0.1130801,-0.180117 0.1908393,-0.303674 0.2825961,-0.436844 -0.1593651,0.283192 -0.260703,0.478286 -0.3839246,0.712204 -0.1179376,0.223892 -0.2324405,0.445185 -0.3278031,0.636104 -0.029816,0.05971 -0.084341,0.159709 -0.1092626,0.212036 -0.015743,0.03298 -0.017491,0.05055 -0.036305,0.09002 -0.010768,0.02264 -0.035539,0.0662 -0.04371,0.08481 -0.027883,0.06364 -0.028246,0.08654 -0.050624,0.137685 -0.029492,0.06733 -0.023829,0.02905 -0.041227,0.08655 -0.0035,0.01158 0.012853,-0.0093 0.00747,0.005 -0.00299,0.0081 -0.074764,0.159271 -0.082453,0.17311 -0.086365,0.155318 -0.6491974,1.07354 -0.6620437,1.094439 -0.4458338,0.725342 -0.3854983,0.623502 -0.9034264,1.444747 -0.1531763,0.242878 -0.9562376,1.532068 -1.1934657,1.876339 -0.6771909,1.053109 -1.3514637,2.089736 -2.0462212,3.183388 -0.1060058,0.166868 -0.2795125,0.430682 -0.3824256,0.597758 -0.086704,0.140756 -0.1089876,0.179554 -0.1777973,0.279418"
       id="path1188-5-3-8-9" />
    <path
       style="opacity:0.99;fill:#ffc8c8;fill-opacity:1;stroke-width:0.264999;paint-order:markers fill stroke"
       d="m 24.856418,25.518096 c 0.998505,-0.502088 -0.02053,0.01256 0.864151,-0.440029 0.112479,-0.05754 0.418009,-0.209176 0.516492,-0.259104 0.136853,-0.06938 0.279809,-0.14561 0.41761,-0.216714 0.119794,-0.06182 0.23496,-0.117766 0.351868,-0.176934 0.19405,-0.09821 0.004,-0.0034 0.160412,-0.08617 0.03367,-0.01783 0.0617,-0.02952 0.09467,-0.04638 0.104787,-0.05361 0.176824,-0.0903 0.261402,-0.126555 -0.14868,0.0919 -0.243741,0.158699 -0.359215,0.238085 -0.110528,0.07599 -0.217963,0.15194 -0.30767,0.218887 -0.02804,0.02094 -0.07902,0.05411 -0.102551,0.07297 -0.01486,0.01185 -0.01698,0.02093 -0.03476,0.03515 -0.01022,0.0081 -0.03326,0.02219 -0.04103,0.02918 -0.02651,0.02394 -0.0276,0.03654 -0.04886,0.05578 -0.02803,0.02532 -0.02177,0.0063 -0.03891,0.03118 -0.0035,0.0049 0.01155,1.6e-4 0.0064,0.006 -0.0029,0.0033 -0.07067,0.05784 -0.07784,0.06236 -0.08064,0.05083 -0.602918,0.32973 -0.614837,0.336063 -0.413642,0.219805 -0.357535,0.188009 -0.83733,0.431441 -0.141898,0.07199 -0.886378,0.458259 -1.105041,0.551992 -0.626621,0.30677 -1.250131,0.605564 -1.893461,0.92766 -0.09816,0.04915 -0.258502,0.124397 -0.353971,0.174937 -0.08043,0.04258 -0.101189,0.05499 -0.164621,0.08217"
       id="path1188-5-3-8-3-1" />
    <path
       style="opacity:0.99;fill:#ffc8c8;fill-opacity:1;stroke-width:0.264999;paint-order:markers fill stroke"
       d="m 1.0140676,19.622939 c 0.5349608,2.898632 0,-0.06511 0.4598583,2.52223 0.057772,0.32898 0.2253074,1.210948 0.2773015,1.497849 0.069326,0.398672 0.1467387,0.824444 0.2195303,1.228963 0.069326,0.351674 0.1270965,0.681138 0.1894894,1.02146 0.1039884,0.56489 0,0.01493 0.080879,0.47931 0.011554,0.09998 0.034663,0.175365 0.057772,0.271806 0.057771,0.306442 0.092433,0.516734 0.142117,0.746735 -0.069326,-0.474052 -0.1039884,-0.797077 -0.1594484,-1.185101 -0.046217,-0.371395 -0.092433,-0.737608 -0.1270965,-1.052119 -0.011554,-0.09835 -0.034663,-0.265015 -0.046217,-0.350703 0,-0.05402 0,-0.07999 0,-0.14466 0,-0.03707 -0.011554,-0.110096 -0.011554,-0.140281 0,-0.103189 0,-0.13626 0,-0.219174 0,-0.109168 -0.011554,-0.05178 -0.011554,-0.141743 0,-0.01811 0,0.01879 0,-0.0042 0,-0.0129 -0.023109,-0.26036 -0.023109,-0.283482 C 2.0273735,23.610283 1.7546937,22.053812 1.7489165,22.01837 1.5340079,20.788327 1.561738,20.960077 1.3063895,19.561868 1.2255099,19.148356 0.83844327,16.957649 0.71134678,16.363044 0.37049704,14.564592 0.0284918,12.79105 -0.31697961,10.926937 -0.37475075,10.642513 -0.45909661,10.190356 -0.5087798,9.9069332 -0.5549967,9.6681597 -0.56655093,9.6030235 -0.60121361,9.4305469"
       id="path1188-5-3-2-5" />
    <path
       style="display:inline;opacity:0.99;fill:#ffc8c8;fill-opacity:1;stroke-width:0.264999;paint-order:markers fill stroke"
       d="M 2.8627904,10.644187 C 3.5759506,9.3910955 2.8487971,10.67255 3.4783628,9.5532855 3.5584048,9.4109694 3.7772187,9.0298837 3.8474367,8.9058169 3.9450168,8.7334151 4.0458315,8.5489312 4.1437166,8.3738818 4.22881,8.221699 4.3116436,8.079461 4.3950294,7.9323004 4.533439,7.6880351 4.397502,7.9257383 4.507972,7.7245619 4.5317576,7.6812524 4.5524882,7.6488948 4.5759559,7.6071772 4.6505245,7.4746119 4.701842,7.3836584 4.7641051,7.2848318 4.6629859,7.491418 4.600717,7.6328958 4.5245569,7.8026966 4.4516601,7.9652203 4.3814179,8.1256499 4.3238134,8.2637198 c -0.018009,0.043174 -0.052186,0.1159548 -0.06692,0.1536729 -0.00932,0.023782 -0.00847,0.035774 -0.019585,0.06424 -0.00636,0.016315 -0.022137,0.048117 -0.026768,0.061468 -0.015787,0.04564 -0.013004,0.061095 -0.025765,0.097752 -0.016798,0.048276 -0.016929,0.021938 -0.02436,0.062397 -0.00149,0.00815 0.00989,-0.00758 0.00722,0.00283 -0.00151,0.00577 -0.043846,0.1147055 -0.04871,0.1247907 C 4.0643886,8.9440736 3.6961715,9.6185122 3.6877597,9.6338651 3.395824,10.166742 3.4348361,10.092148 3.0927951,10.696809 2.9916353,10.875634 2.4634345,11.823837 2.3024555,12.079323 1.8524417,12.855998 1.4027497,13.621289 0.9428514,14.42702 0.8726795,14.549957 0.75656798,14.744907 0.6891297,14.867674 0.6323226,14.971105 0.6180646,14.999453 0.57137183,15.073562"
       id="path1188-3-8" />
    <path
       style="opacity:0.99;fill:#ffc8c8;fill-opacity:1;stroke-width:0.264999;paint-order:markers fill stroke"
       d="m 11.861756,0.46190393 c -0.828158,-0.8858861 0.0159,0.0204329 -0.713972,-0.77213194 -0.0928,-0.10076136 -0.347205,-0.36985603 -0.428684,-0.45763241 -0.113231,-0.12197482 -0.229614,-0.25311498 -0.343001,-0.37716588 -0.09857,-0.1078438 -0.195065,-0.2080823 -0.291838,-0.3121824 -0.1606271,-0.1727888 -0.0027,-0.00487 -0.1302887,-0.1477704 -0.027487,-0.030751 -0.05193,-0.053254 -0.07913,-0.082784 -0.086455,-0.093871 -0.1459648,-0.1582482 -0.2192538,-0.2270795 0.1147449,0.1488736 0.1840683,0.2520289 0.269171,0.3755899 0.081452,0.1182638 0.1595795,0.2353036 0.2230545,0.3365129 0.01984,0.031645 0.05835,0.084345 0.07435,0.1121771 0.01022,0.017525 0.0079,0.027346 0.01998,0.048333 0.0069,0.012038 0.02484,0.034915 0.02975,0.0448712 0.01663,0.0340316 0.01156,0.04693 0.02495,0.0742414 0.01761,0.0359894 0.02038,0.0147419 0.02648,0.0460248 0.0012,0.006223 -0.01253,-0.004299 -0.0098,0.003507 0.0015,0.004299 0.04744,0.0847748 0.05294,0.092061 0.06174,0.0817201 0.486764,0.56121201 0.496481,0.57212311 0.337162,0.37868198 0.292422,0.32535518 0.689275,0.75318574 0.11737,0.12652752 0.728878,0.79883265 0.918357,0.97677385 0.523883,0.5477067 1.048396,1.0863056 1.582673,1.6556941 0.08152,0.086879 0.2172,0.223811 0.295113,0.3110217 0.06565,0.073473 0.08189,0.093837 0.136842,0.1454533"
       id="path1188-5-3-8-3-9" />
    <path
       style="opacity:0.99;fill:#ffc8c8;fill-opacity:1;stroke-width:0.264999;paint-order:markers fill stroke"
       d="M 8.888971,4.9902165 C 9.2106269,3.3595871 8.8844997,5.0263303 9.1622108,3.5726171 9.1975336,3.3877779 9.2978162,2.8911567 9.3291628,2.729856 9.3727255,2.5057148 9.4147126,2.2672093 9.4574162,2.0400687 9.4945382,1.8426021 9.5334699,1.6568069 9.5707633,1.4654453 c 0.061916,-0.3176302 2.34e-5,-0.00803 0.046544,-0.2683504 0.010007,-0.056026 0.021292,-0.099008 0.03165,-0.1531908 0.032906,-0.1721779 0.055667,-0.29036823 0.088775,-0.42121764 -0.031916,0.2626854 -0.044798,0.43997034 -0.062097,0.65328424 -0.016554,0.204169 -0.030692,0.4050694 -0.039219,0.5769043 -0.00266,0.053729 -0.01204,0.145734 -0.013063,0.1923008 -6.845e-4,0.029359 0.00617,0.042111 0.00532,0.077251 -4.237e-4,0.020138 -0.00564,0.060654 -0.00522,0.076912 0.00138,0.055574 0.012243,0.071379 0.013339,0.1160283 0.00149,0.058798 -0.011327,0.030197 -0.0017,0.077025 0.00192,0.00939 0.00926,-0.011936 0.010539,2.737e-4 7.878e-4,0.0069 -0.00192,0.141265 -0.0033,0.1540598 C 9.6259725,2.6903367 9.4729005,3.5621392 9.46938,3.5819974 9.3471479,4.2711896 9.3618795,4.1754064 9.2093441,4.9614635 9.1641846,5.1939363 8.9354794,6.4235448 8.8499008,6.7618214 8.6401776,7.7754817 8.4255705,8.7766266 8.2170271,9.8256103 8.1852125,9.985663 8.1285379,10.241277 8.1001469,10.400126 c -0.023926,0.133827 -0.028775,0.17001 -0.053599,0.268134"
       id="path1188-4-7" />
    <path
       style="opacity:0.99;fill:#ffc8c8;fill-opacity:1;stroke-width:0.264999;paint-order:markers fill stroke"
       d="M 1.5261684,5.2515839 C 0.49540763,3.3590882 1.5466194,5.2946218 0.63590359,3.6035548 0.5201071,3.388537 0.20405732,2.8131725 0.10252453,2.6257628 -0.0385676,2.3653447 -0.18471361,2.0863447 -0.32637423,1.8218151 -0.44952613,1.5918426 -0.56904887,1.3771947 -0.68960798,1.1549101 -0.88971803,0.78595011 -0.69330537,1.1448407 -0.85339847,0.84069 -0.88786473,0.77521664 -0.91759377,0.7265489 -0.95152853,0.66351481 -1.0593873,0.46322652 -1.1336116,0.32582072 -1.2229766,0.17711689 c 0.1478767,0.31349939 0.23978255,0.52883172 0.3520053,0.78714092 0.1074081,0.24723969 0.21114554,0.49145079 0.29659367,0.70188419 0.0267135,0.065801 0.076882,0.1763798 0.0988698,0.2339595 0.0139003,0.036295 0.0134489,0.055132 0.0300872,0.098567 0.009475,0.024914 0.0325368,0.073144 0.0395503,0.093577 0.023836,0.069864 0.0210862,0.094244 0.0402785,0.1503658 0.0252349,0.073903 0.0239978,0.032731 0.0363725,0.095251 0.002544,0.012581 -0.0138534,-0.010862 -0.009475,0.00497 0.002427,0.00882 0.06564,0.1751863 0.0727567,0.1904995 0.0798628,0.1718667 0.61369825,1.1918652 0.62589027,1.2150847 C 0.78308466,4.554232 0.72633946,4.441262 1.2209229,5.3546487 1.367196,5.6247774 2.1318247,7.0578521 2.3628643,7.4422836 3.0124524,8.6145404 3.6609288,9.7690387 4.325498,10.98578 c 0.1014004,0.18565 0.2686832,0.479604 0.3664065,0.66524 0.082336,0.156389 0.1031218,0.199376 0.1701396,0.310887"
       id="path1188-5-6-9" />
    <path
       style="opacity:0.99;fill:#ffc8c8;fill-opacity:1;stroke-width:0.264999;paint-order:markers fill stroke"
       d="M 4.4169279,1.4459797 C 3.5887693,0.56009474 4.4328265,1.4664126 3.7029563,0.67385003 3.6101527,0.57308872 3.3557505,0.30399514 3.2742736,0.21621535 3.1610421,0.0942428 3.0446587,-0.03689625 2.9312725,-0.1609483 2.8327033,-0.2687921 2.7362058,-0.36903184 2.6394334,-0.47312962 2.4788065,-0.6459218 2.636772,-0.47799414 2.5091433,-0.62090119 2.4816563,-0.65165229 2.4572063,-0.67415559 2.4300083,-0.70368479 2.3435603,-0.79755589 2.2840425,-0.86193188 2.210754,-0.930762 c 0.1147451,0.14887348 0.1840693,0.25202995 0.269172,0.37558984 0.081446,0.11826387 0.1595777,0.23530244 0.2230544,0.33651405 0.019838,0.0316449 0.058349,0.0843449 0.074351,0.112177 0.010167,0.0175252 0.00786,0.02734562 0.019977,0.04833287 0.00693,0.01204931 0.024842,0.03491465 0.029752,0.04487082 0.016627,0.03403211 0.011566,0.04692992 0.024957,0.07424161 0.017608,0.03598941 0.02037,0.01474197 0.026471,0.04602482 0.00116,0.006223 -0.012525,-0.004299 -0.00983,0.003507 0.0015,0.004299 0.047442,0.0847748 0.052942,0.092061 0.061722,0.0817201 0.4867646,0.56121201 0.4964793,0.57212311 C 3.7552453,1.1533612 3.7105063,1.1000345 4.1073605,1.5278649 4.2247306,1.6543925 4.8362371,2.3266976 5.0257172,2.50464 5.549601,3.0523466 6.0741133,3.5909444 6.6083889,4.1603329 c 0.081515,0.086879 0.2171999,0.2238122 0.2951135,0.3110228 0.06564,0.073473 0.081885,0.093837 0.1368425,0.1454534"
       id="path1188-5-3-8-3-1-2" />
    <path
       style="opacity:0.99;fill:#ffc8c8;fill-opacity:1;stroke-width:0.264999;paint-order:markers fill stroke"
       d="m 18.266365,3.2224006 c 1.332566,-1.0868995 -0.03044,0.021482 1.160734,-0.93855 0.151455,-0.1220712 0.556477,-0.4554021 0.688461,-0.5624491 0.1834,-0.1487547 0.380094,-0.3027044 0.566459,-0.4520118 0.162017,-0.1297959 0.313048,-0.255905 0.469588,-0.3830169 0.259831,-0.21098624 0.0071,-0.003858 0.221556,-0.17251014 0.04616,-0.0363119 0.08029,-0.0677407 0.124688,-0.10352528 0.14108,-0.11370935 0.237859,-0.19193786 0.342215,-0.28641239 -0.221694,0.15529834 -0.37437,0.25151624 -0.557436,0.36907005 -0.17522,0.1125119 -0.348394,0.22108567 -0.497776,0.31039456 -0.04671,0.02792 -0.12499,0.080545 -0.165925,0.1034732 -0.02581,0.014496 -0.0395,0.013758 -0.07039,0.031073 -0.01771,0.00991 -0.05181,0.034117 -0.06638,0.041391 -0.04978,0.024796 -0.06762,0.021392 -0.107616,0.041277 -0.05265,0.026222 -0.02278,0.025464 -0.06771,0.037931 -0.009,0.00251 0.0073,-0.014663 -0.004,-0.010389 -0.0064,0.00244 -0.12459,0.068399 -0.135424,0.075862 -0.121581,0.083848 -0.840699,0.6461474 -0.857067,0.6589896 -0.568056,0.4457467 -0.488312,0.3860418 -1.131575,0.907483 -0.190242,0.1542156 -1.199975,0.9600502 -1.469765,1.2042685 -0.824962,0.6852713 -1.637061,1.3696065 -2.49373,2.0704223 -0.130709,0.1069286 -0.337394,0.2835196 -0.468245,0.3864745 -0.110239,0.086739 -0.140614,0.1085906 -0.21887,0.1794408"
       id="path1188-50" />
    <path
       style="opacity:0.99;fill:#ffc8c8;fill-opacity:1;stroke-width:0.264999;paint-order:markers fill stroke"
       d="m 24.354975,1.344734 c 1.558867,-0.86732362 -0.03508,0.015889 1.356572,-0.74590352 0.176947,-0.0968693 0.651219,-0.3639633 0.805522,-0.44916048 0.214416,-0.11838967 0.4435,-0.23883293 0.66109,-0.35698468 0.189166,-0.10271295 0.3663,-0.20442339 0.549336,-0.30563613 0.303808,-0.1680122 0.008,-0.002285 0.257899,-0.13462464 0.05377,-0.0285324 0.09427,-0.0548994 0.146146,-0.0832938 0.164825,-0.0902394 0.277932,-0.15240427 0.401473,-0.23125043 -0.255355,0.11447659 -0.429533,0.18075935 -0.638726,0.26278976 -0.200224,0.078516 -0.397702,0.15303444 -0.567366,0.21225723 -0.05306,0.0185072 -0.142872,0.0563249 -0.189122,0.0707468 -0.02915,0.009141 -0.04333,0.004096 -0.07823,0.0150214 -0.02,0.006212 -0.05932,0.0242671 -0.07565,0.0282609 -0.05575,0.0138979 -0.07383,0.004571 -0.118622,0.0157613 -0.059,0.0146594 -0.02773,0.0228677 -0.0765,0.0238971 -0.0098,1.542e-4 0.0099,-0.0150859 -0.0026,-0.0132587 -0.007,9.4481e-4 -0.140552,0.0422867 -0.153025,0.0476506 -0.139835,0.0612069 -0.977286,0.50094812 -0.996356,0.51100751 C 24.97504,0.56119494 25.067492,0.51552753 24.315492,0.93042825 24.093103,1.0532021 22.914664,1.6896574 22.595282,1.893493 21.628287,2.4449204 20.67484,2.999141 19.672365,3.5591478 c -0.152956,0.085446 -0.395993,0.229335 -0.548477,0.3100872 -0.128463,0.06805 -0.163542,0.084382 -0.256184,0.1435181"
       id="path1188-4-7-2" />
    <path
       style="opacity:0.99;fill:#ffc8c8;fill-opacity:1;stroke-width:0.264999;paint-order:markers fill stroke"
       d="m 17.575925,3.0687208 c 2.107615,0.7741743 -0.04729,-0.013812 1.833799,0.6648526 0.239179,0.086292 0.880514,0.3250501 1.08911,0.4010285 0.289862,0.1055833 0.59934,0.2123434 0.893426,0.3174903 0.255665,0.091407 0.495267,0.1825291 0.742711,0.2728139 0.41072,0.1498588 0.01086,0.00185 0.348374,0.1192157 0.07267,0.02527 0.127547,0.049266 0.197661,0.074546 C 22.9038,4.9990418 23.056694,5.0544715 23.22408,5.125921 22.879807,5.0266854 22.645391,4.9707835 22.363771,4.9012201 22.094219,4.8346448 21.82847,4.7718725 21.600315,4.72278 21.528975,4.707438 21.407963,4.674959 21.345831,4.663294 c -0.03917,-0.00741 -0.05787,-0.00152 -0.104755,-0.0104 -0.02688,-0.00498 -0.07991,-0.020661 -0.101784,-0.0238 -0.07478,-0.010556 -0.09854,-1.941e-4 -0.158614,-0.00873 -0.07911,-0.01119 -0.03776,-0.021216 -0.102785,-0.019298 -0.01309,3.203e-4 0.01379,0.014517 -0.003,0.013422 C 20.865493,4.6138966 20.686122,4.58059 20.669328,4.575876 20.480892,4.5230122 19.349567,4.1332949 19.323804,4.1243731 18.429741,3.814723 18.554536,3.8548677 17.537941,3.4848999 17.237289,3.3754804 15.644698,2.8094166 15.211966,2.6246885 13.904097,2.1310556 12.614188,1.6338291 11.258745,1.133727 11.051933,1.0574212 10.723038,0.92806655 10.51702,0.8564199 10.343458,0.79605068 10.296144,0.78179769 10.170622,0.72821272"
       id="path1188-5-6-9-5" />
    <path
       style="opacity:0.99;fill:#ffc8c8;fill-opacity:1;stroke-width:0.264999;paint-order:markers fill stroke"
       d="m 20.797154,7.7801056 c 1.060045,0.8007886 -0.02376,-0.014412 0.922259,0.6880116 0.120274,0.089316 0.442875,0.3361682 0.547787,0.4147768 0.145783,0.10925 0.301383,0.2199157 0.449274,0.3287764 0.128567,0.094635 0.249107,0.1887828 0.373554,0.2821947 0.206571,0.1550452 0.0054,0.00204 0.175155,0.1236164 0.03654,0.026203 0.06418,0.050867 0.09943,0.077048 0.112052,0.083203 0.188939,0.1405487 0.273199,0.2141104 C 23.464865,9.8050496 23.347189,9.746184 23.205802,9.6730568 23.070473,9.6030808 22.937075,9.5369521 22.822583,9.484957 22.786793,9.46871 22.726013,9.434712 22.694839,9.422256 c -0.01965,-0.00792 -0.02896,-0.00226 -0.05248,-0.011732 -0.0135,-0.00543 -0.04011,-0.021666 -0.0511,-0.025094 -0.03749,-0.011506 -0.04929,-0.00147 -0.07939,-0.010748 -0.03966,-0.012196 -0.01904,-0.021677 -0.05156,-0.020602 -0.0065,2.874e-4 0.0069,0.014663 -0.0014,0.013441 -0.0046,-6.935e-4 -0.09467,-0.036283 -0.103115,-0.041205 C 22.261113,9.271069 21.692288,8.8670666 21.679335,8.857819 21.229787,8.5368761 21.292512,8.578596 20.78123,8.1957909 20.630022,8.0825749 19.829158,7.4963982 19.611316,7.3062091 18.953411,6.7960634 18.304463,6.2825544 17.622713,5.7653366 17.51869,5.6864263 17.353207,5.5529128 17.249619,5.4786633 17.16235,5.4161101 17.138572,5.4012437 17.075385,5.3460824"
       id="path1188-5-3-8-3-1-2-0" />
    <path
       style="opacity:0.99;fill:#ffc8c8;fill-opacity:1;stroke-width:0.264999;paint-order:markers fill stroke"
       d="m 19.138685,13.419818 c 1.36348,-0.769702 -0.02886,0.01876 1.18208,-0.673342 0.153973,-0.08799 0.570419,-0.320892 0.705053,-0.39734 0.187087,-0.106226 0.38393,-0.222129 0.57278,-0.330727 0.164175,-0.09441 0.320699,-0.180619 0.480483,-0.271238 0.265216,-0.150415 0.006,-0.0048 0.221112,-0.130869 0.04632,-0.02713 0.08369,-0.04558 0.128823,-0.07138 0.143425,-0.08197 0.241977,-0.138114 0.355117,-0.195097 -0.209457,0.137061 -0.346395,0.23524 -0.512079,0.352189 -0.158582,0.11194 -0.313523,0.223499 -0.444217,0.321265 -0.04087,0.03057 -0.113313,0.07975 -0.148077,0.107085 -0.02194,0.0172 -0.02785,0.02933 -0.05408,0.04995 -0.01503,0.01183 -0.04747,0.0328 -0.05922,0.04283 -0.04018,0.03432 -0.0462,0.05097 -0.07845,0.07856 -0.04249,0.03632 -0.028,0.01075 -0.05751,0.04522 -0.0059,0.0069 0.01352,-0.0012 0.0052,0.0071 -0.0046,0.0046 -0.104851,0.08368 -0.115011,0.09044 -0.113971,0.07564 -0.833262,0.499556 -0.849664,0.50919 -0.56926,0.334321 -0.491301,0.286376 -1.147287,0.659071 -0.194006,0.11022 -1.215078,0.699717 -1.507584,0.847024 -0.852541,0.472129 -1.69843,0.93346 -2.576389,1.427546 -0.133958,0.07539 -0.350893,0.191945 -0.48221,0.268857 -0.110631,0.0648 -0.139722,0.08337 -0.224567,0.126104"
       id="path1188-9" />
    <path
       style="opacity:0.99;fill:#ffc8c8;fill-opacity:1;stroke-width:0.264999;paint-order:markers fill stroke"
       d="m 25.072633,18.551991 c 1.319823,-1.043047 -0.02723,0.02475 1.142511,-0.910818 0.148736,-0.118954 0.552472,-0.435156 0.682667,-0.538631 0.180919,-0.143788 0.370098,-0.299545 0.55234,-0.446163 0.15843,-0.127467 0.310552,-0.244875 0.465095,-0.367565 0.256525,-0.203639 0.0053,-0.0061 0.212315,-0.175691 0.04458,-0.03647 0.08148,-0.06221 0.125083,-0.09708 0.138551,-0.110808 0.233791,-0.186754 0.345272,-0.265848 -0.197403,0.180599 -0.324017,0.30795 -0.477733,0.460048 -0.147127,0.145577 -0.290249,0.290188 -0.409943,0.416125 -0.03742,0.03938 -0.105191,0.103768 -0.136644,0.13871 -0.01986,0.02201 -0.02305,0.03605 -0.04682,0.0624 -0.01359,0.01513 -0.04428,0.04278 -0.05462,0.05549 -0.03554,0.04335 -0.03765,0.06228 -0.06622,0.0971 -0.03757,0.04589 -0.02854,0.01593 -0.05205,0.05777 -0.0047,0.0084 0.01493,-0.0033 0.0079,0.0069 -0.0039,0.0058 -0.09455,0.106723 -0.104031,0.115621 -0.107095,0.09943 -0.798282,0.66901 -0.814051,0.681963 -0.547345,0.44951 -0.473,0.385612 -1.107303,0.890013 -0.187633,0.149141 -1.172285,0.944417 -1.460491,1.148895 -0.827842,0.642289 -1.651248,1.271866 -2.501529,1.941834 -0.129735,0.102222 -0.341406,0.26178 -0.467724,0.365251 -0.106426,0.08716 -0.133963,0.111759 -0.217568,0.171067"
       id="path1188-4-7-7" />
    <path
       style="opacity:0.99;fill:#ffc8c8;fill-opacity:1;stroke-width:0.264999;paint-order:markers fill stroke"
       d="m 23.989339,13.019165 c -0.04943,-1.200024 -0.0013,0.02566 -0.03709,-1.040976 -0.0045,-0.135612 -0.02175,-0.501924 -0.0262,-0.620463 -0.0063,-0.164724 -0.0087,-0.338443 -0.01371,-0.504854 -0.0043,-0.144667 -0.01203,-0.282214 -0.01742,-0.422883 -0.0089,-0.233493 0.0012,-0.0054 -0.0022,-0.195213 -7.52e-4,-0.04085 -0.0046,-0.07349 -0.006,-0.113241 -0.0043,-0.1263343 -0.0072,-0.2131185 -0.018,-0.3120052 -0.01043,0.1862388 -0.02533,0.3088542 -0.04167,0.4570272 -0.01566,0.141816 -0.03302,0.280603 -0.05117,0.398038 -0.0056,0.03671 -0.01098,0.101308 -0.01707,0.132685 -0.0038,0.01981 -0.01201,0.02586 -0.01656,0.04956 -0.0027,0.01359 -0.004,0.04237 -0.0068,0.05308 -0.0097,0.03651 -0.02207,0.04318 -0.02982,0.07249 -0.01033,0.03862 0.0059,0.02413 -0.01001,0.05188 -0.0032,0.0055 -0.0067,-0.0112 -0.0098,-0.0035 -0.0017,0.0042 -0.01959,0.09476 -0.02017,0.103799 -0.0067,0.101423 0.0023,0.736299 0.0027,0.750773 0.0082,0.502325 0.0093,0.433318 0.03069,1.010903 0.0064,0.170819 0.03088,1.070797 0.05849,1.326449 0.03963,0.74942 0.08573,1.492277 0.119019,2.26483 0.0051,0.117874 0.01858,0.30821 0.02069,0.424064 0.0017,0.09761 7.74e-4,0.123425 0.0087,0.19758"
       id="path1188-5-3-8-3-1-2-1" />
    <path
       style="opacity:0.99;fill:#ffc8c8;fill-opacity:1;stroke-width:0.264999;paint-order:markers fill stroke"
       d="M 10.751292,21.604257 C 9.7270471,19.617273 10.770774,21.648633 9.8685875,19.875918 9.753866,19.650518 9.439115,19.045708 9.3383714,18.849087 9.1983725,18.575865 9.0546721,18.284497 8.9145422,18.007407 8.792728,17.76652 8.6732711,17.54045 8.5536074,17.307206 c -0.198616,-0.387154 -0.00335,-0.0102 -0.1608152,-0.327936 -0.033935,-0.06843 -0.0643,-0.120378 -0.097934,-0.186459 -0.1068651,-0.209961 -0.1804517,-0.35406 -0.2714504,-0.512436 0.1409188,0.32301 0.2255662,0.542279 0.3295971,0.805844 0.099563,0.252266 0.1949313,0.500809 0.2721701,0.713918 0.024148,0.06664 0.071335,0.180033 0.090712,0.237974 0.012259,0.03652 0.00912,0.05344 0.023605,0.09714 0.00831,0.02506 0.030411,0.07483 0.03628,0.09519 0.020105,0.06955 0.013044,0.09083 0.029106,0.146702 0.021079,0.07357 0.025465,0.03603 0.032065,0.09585 0.00138,0.01205 -0.015798,-0.01351 -0.012573,0.0018 0.0017,0.0086 0.057392,0.175937 0.064141,0.191685 0.075766,0.176757 0.600487,1.241854 0.6124827,1.26611 0.4163122,0.84184 0.3611871,0.724514 0.8518803,1.682728 0.145117,0.283385 0.900729,1.783739 1.136008,2.193179 0.648401,1.23377 1.297953,2.451191 1.958809,3.729182 0.100837,0.194996 0.268947,0.505554 0.365164,0.69955 0.08107,0.163433 0.101029,0.207859 0.169276,0.326626"
       id="path1188-5-3-8-6" />
    <path
       style="opacity:0.99;fill:#ffc8c8;fill-opacity:1;stroke-width:0.264999;paint-order:markers fill stroke"
       d="m 11.843179,24.585597 c 0.607861,-1.116295 -0.01022,0.02433 0.520265,-0.969514 0.06744,-0.126362 0.255546,-0.466687 0.31507,-0.57704 0.08272,-0.153347 0.165157,-0.315873 0.247134,-0.471058 0.07126,-0.13491 0.143439,-0.26244 0.214208,-0.393376 0.117464,-0.217335 0.0011,-0.0054 0.09184,-0.182762 0.01955,-0.03819 0.03916,-0.06805 0.05892,-0.105082 0.06282,-0.117717 0.106192,-0.198543 0.164293,-0.289196 -0.07243,0.176881 -0.11025,0.29498 -0.158046,0.437343 -0.04574,0.136259 -0.08801,0.270021 -0.119573,0.383899 -0.0098,0.03561 -0.03294,0.0973 -0.03985,0.127966 -0.0044,0.01934 0.0028,0.02669 -0.0026,0.04985 -0.003,0.01327 -0.01448,0.04058 -0.01596,0.05118 -0.005,0.03623 0.0071,0.04496 0.0032,0.07405 -0.0052,0.03832 -0.01813,0.02146 -0.01145,0.05073 0.0014,0.0059 0.01329,-0.0091 0.01352,-0.0014 1.72e-4,0.0044 -0.01948,0.09287 -0.02289,0.101475 -0.03824,0.09656 -0.339013,0.690568 -0.34591,0.704104 -0.239349,0.469786 -0.208977,0.404831 -0.49877,0.942577 -0.08571,0.159036 -0.526354,0.99875 -0.676588,1.233115 -0.39025,0.695365 -0.785373,1.383259 -1.178487,2.101611 -0.05998,0.10961 -0.163268,0.28552 -0.218712,0.393827 -0.04671,0.09124 -0.05729,0.115684 -0.100859,0.183664"
       id="path1188-5-3-8-3-91" />
    <path
       style="opacity:0.99;fill:#ffc8c8;fill-opacity:1;stroke-width:0.264999;paint-order:markers fill stroke"
       d="m 15.506082,20.451059 c 0.4004,-2.060895 -0.0054,0.04556 0.339745,-1.791453 0.04388,-0.233573 0.168877,-0.861311 0.207865,-1.065159 0.05419,-0.283265 0.10615,-0.584545 0.159179,-0.871551 0.04609,-0.249514 0.09468,-0.484407 0.141097,-0.726247 0.07703,-0.40142 9e-6,-0.0102 0.05754,-0.338959 0.0124,-0.07078 0.02661,-0.125186 0.03949,-0.193658 0.04089,-0.217575 0.06921,-0.366935 0.110852,-0.532542 -0.03851,0.331366 -0.05321,0.554731 -0.07323,0.823542 -0.01917,0.257293 -0.03522,0.510393 -0.04428,0.726764 -0.0028,0.06766 -0.01397,0.183659 -0.01477,0.242255 -5.14e-4,0.03694 0.0085,0.05276 0.0079,0.097 -3.44e-4,0.02534 -0.0066,0.07646 -0.0059,0.0969 0.0024,0.06987 0.01691,0.08936 0.01869,0.145519 0.0024,0.07394 -0.01443,0.03834 -0.0013,0.09692 0.0027,0.01179 0.01175,-0.01528 0.01383,9.6e-5 0.0011,0.0086 -8.12e-4,0.177709 -0.0026,0.193849 -0.01964,0.181133 -0.209035,1.282375 -0.213396,1.307459 -0.151319,0.87061 -0.133236,0.749686 -0.32296,1.743077 -0.05611,0.293792 -0.339966,1.847412 -0.447642,2.275549 -0.261532,1.281437 -0.529719,2.547292 -0.789415,3.873121 -0.03963,0.202292 -0.11055,0.525554 -0.14571,0.726222 -0.02962,0.169058 -0.03555,0.214723 -0.06676,0.338909"
       id="path1188-3-5" />
    <path
       style="opacity:0.99;fill:#ffc8c8;fill-opacity:1;stroke-width:0.264999;paint-order:markers fill stroke"
       d="m 17.591733,23.305217 c -1.126487,-1.24523 0.02178,0.02872 -0.971542,-1.085355 -0.126306,-0.141652 -0.47221,-0.519877 -0.583069,-0.64326 -0.154052,-0.171452 -0.312667,-0.355805 -0.46702,-0.530183 -0.134188,-0.151599 -0.265308,-0.292484 -0.396967,-0.438812 -0.218534,-0.242881 -0.0037,-0.0069 -0.177602,-0.207732 -0.03744,-0.04324 -0.07054,-0.07483 -0.107558,-0.116359 -0.117651,-0.13195 -0.198646,-0.222442 -0.297902,-0.31917 0.157255,0.209329 0.252862,0.3544 0.370087,0.528162 0.112191,0.166315 0.219979,0.330912 0.307819,0.473263 0.02745,0.04451 0.08035,0.118616 0.102604,0.157755 0.01405,0.02467 0.01164,0.03846 0.02839,0.068 0.0096,0.01692 0.03417,0.0491 0.04104,0.06309 0.02341,0.04786 0.01722,0.06606 0.03604,0.104504 0.02475,0.05063 0.02739,0.02071 0.0368,0.06473 0.0018,0.0088 -0.01664,-0.0061 -0.01274,0.0048 0.0021,0.0061 0.06607,0.119244 0.07359,0.129481 0.08466,0.114916 0.663937,0.788955 0.677175,0.804294 0.459426,0.532317 0.398323,0.457346 0.938287,1.058724 0.159695,0.177853 0.992301,1.122916 1.248922,1.372974 0.71203,0.76984 1.424478,1.526854 2.15112,2.3272 0.110874,0.122114 0.295055,0.314575 0.401213,0.43717 0.08944,0.103284 0.111659,0.131914 0.186092,0.204451"
       id="path1188-4-4" />
    <path
       style="opacity:0.99;fill:#ffc8c8;fill-opacity:1;stroke-width:0.264999;paint-order:markers fill stroke"
       d="m 22.65543,20.629201 c 0.40041,-2.060907 -0.0054,0.04555 0.339753,-1.791464 0.0439,-0.233578 0.168881,-0.861314 0.207872,-1.065162 0.05419,-0.283268 0.106149,-0.584546 0.159178,-0.871557 0.04611,-0.249513 0.09468,-0.484409 0.141103,-0.726251 0.07703,-0.401423 9e-6,-0.0102 0.05754,-0.338959 0.0124,-0.07078 0.02661,-0.125187 0.03948,-0.19366 0.04089,-0.217576 0.06921,-0.366937 0.110851,-0.532544 -0.03851,0.331367 -0.05321,0.554733 -0.07323,0.823546 -0.01916,0.257293 -0.03522,0.510396 -0.04428,0.726768 -0.0028,0.06766 -0.01398,0.183661 -0.01477,0.242257 -5.15e-4,0.03694 0.0084,0.05278 0.0079,0.097 -3.42e-4,0.02534 -0.0066,0.07646 -0.0059,0.0969 0.0024,0.06987 0.01691,0.08936 0.01887,0.145483 0.0027,0.0739 -0.01442,0.03834 -0.0013,0.09692 0.0027,0.01179 0.01192,-0.01532 0.01382,-1.4e-5 0.0011,0.0086 -8.57e-4,0.177721 -0.0026,0.193857 -0.01964,0.181131 -0.209042,1.282377 -0.213402,1.307464 -0.151322,0.870614 -0.133239,0.749688 -0.322967,1.743086 -0.05611,0.293792 -0.339974,1.84742 -0.447653,2.275558 -0.261536,1.281447 -0.529728,2.547308 -0.78943,3.873144 -0.03964,0.202293 -0.110551,0.525556 -0.145713,0.726226 -0.02963,0.169061 -0.03554,0.214722 -0.06676,0.33891"
       id="path1188-5-6-3" />
    <path
       style="opacity:0.99;fill:#ffc8c8;fill-opacity:1;stroke-width:0.264999;paint-order:markers fill stroke"
       d="m 21.342199,15.750358 c 0.60786,-1.116293 -0.01022,0.02433 0.520265,-0.969513 0.06744,-0.126363 0.255547,-0.466687 0.315071,-0.57704 0.08272,-0.153347 0.165156,-0.315874 0.247134,-0.471058 0.07126,-0.134911 0.143438,-0.26244 0.214207,-0.393376 0.117463,-0.217335 0.0011,-0.0054 0.09184,-0.18276 0.01955,-0.03819 0.03916,-0.06805 0.05893,-0.105083 0.06282,-0.117718 0.106192,-0.198544 0.164294,-0.289197 -0.07243,0.176882 -0.11025,0.294981 -0.158046,0.437344 -0.04575,0.13626 -0.08801,0.27002 -0.119572,0.383899 -0.0098,0.03561 -0.03294,0.0973 -0.03985,0.127965 -0.0044,0.01934 0.0028,0.02669 -0.0026,0.04984 -0.003,0.01327 -0.01449,0.04058 -0.01596,0.05118 -0.005,0.03623 0.0071,0.04496 0.0032,0.07405 -0.0052,0.03833 -0.01813,0.02146 -0.01144,0.05073 0.0014,0.0059 0.01328,-0.0091 0.01352,-0.0014 1.74e-4,0.0044 -0.01948,0.09287 -0.02289,0.101475 -0.03824,0.09655 -0.339013,0.690568 -0.34591,0.704104 -0.23935,0.469786 -0.208977,0.404832 -0.498771,0.942577 -0.08571,0.159036 -0.526354,0.99875 -0.67659,1.233116 -0.390248,0.695363 -0.785371,1.383257 -1.178483,2.101612 -0.05998,0.109608 -0.163268,0.285518 -0.218712,0.393825 -0.04671,0.09124 -0.05729,0.115684 -0.100859,0.183664"
       id="path1188-5-3-8-3-1-9" />
    <path
       style="opacity:0.99;fill:#ffc8c8;fill-opacity:1;stroke-width:0.264999;paint-order:markers fill stroke"
       d="m 4.7360257,23.662298 c 1.5226248,1.270742 -0.034114,-0.02577 1.3246845,1.098928 0.1727719,0.143008 0.6361421,0.532131 0.7868308,0.657402 0.2093943,0.174084 0.4328789,0.35536 0.6452965,0.530459 0.1846678,0.152217 0.3578092,0.299076 0.5365644,0.447803 0.2967059,0.24686 0.00782,0.0048 0.2515568,0.203317 0.052481,0.04274 0.09218,0.07874 0.1428341,0.12067 0.1609366,0.133214 0.2713821,0.224828 0.3924502,0.33341 C 8.5679083,26.867648 8.3989817,26.749528 8.1960054,26.605779 8.0017262,26.468193 7.8102292,26.334761 7.64589,26.223879 7.594498,26.189199 7.5072496,26.125459 7.4625173,26.096572 c -0.028196,-0.01824 -0.041528,-0.01976 -0.075285,-0.04157 -0.019356,-0.01249 -0.057603,-0.04149 -0.073346,-0.05092 -0.053796,-0.03214 -0.070682,-0.03174 -0.1138888,-0.0575 -0.056899,-0.03398 -0.027392,-0.02841 -0.073992,-0.04778 -0.00926,-0.0037 0.010103,0.01557 -0.00192,0.0095 -0.00669,-0.0034 -0.1358744,-0.08657 -0.1479897,-0.09558 C 6.8401626,25.711607 6.0232131,25.049378 6.0046097,25.034263 5.3589658,24.509628 5.4490423,24.580492 4.7146623,23.970208 4.4974746,23.789718 3.3471891,22.844056 3.0342021,22.563333 2.089161,21.764616 1.1569489,20.968893 0.17769125,20.149951 0.02827878,20.024996 -0.20945077,19.82013 -0.35822833,19.699014 -0.4835722,19.596972 -0.51770546,19.570842 -0.60849546,19.489415"
       id="path1188-9-7" />
    <path
       style="opacity:0.99;fill:#ffc8c8;fill-opacity:1;stroke-width:0.264999;paint-order:markers fill stroke"
       d="m 21.419825,20.909405 c 1.55744,-1.679173 -0.03099,0.03769 1.345395,-1.46099 0.175013,-0.190553 0.652458,-0.701527 0.805886,-0.867718 0.213204,-0.230935 0.434217,-0.47748 0.648348,-0.711774 0.186151,-0.203685 0.366661,-0.394589 0.548828,-0.591731 0.302386,-0.327221 0.0056,-0.0086 0.24773,-0.277527 0.05218,-0.05788 0.09693,-0.101622 0.148233,-0.157481 0.163029,-0.177507 0.275175,-0.299312 0.409931,-0.432703 -0.224198,0.274205 -0.363904,0.460874 -0.534407,0.685142 -0.163194,0.214655 -0.320879,0.426276 -0.450979,0.607941 -0.04067,0.0568 -0.116786,0.153178 -0.15032,0.202647 -0.02118,0.03118 -0.02085,0.04604 -0.04621,0.08337 -0.01448,0.0214 -0.04949,0.06363 -0.06009,0.08105 -0.0365,0.05951 -0.03287,0.07839 -0.0622,0.126209 -0.03858,0.06299 -0.03604,0.03011 -0.05552,0.08181 -0.0039,0.01041 0.02064,-0.01108 0.01394,0.0023 -0.0037,0.0075 -0.100188,0.15029 -0.110887,0.163673 -0.121117,0.150117 -0.928441,1.051378 -0.946875,1.071901 -0.639862,0.712258 -0.553961,0.612851 -1.301354,1.422777 -0.22111,0.239523 -1.376951,1.50831 -1.725325,1.853154 -0.981136,1.042039 -1.960307,2.069803 -2.964384,3.149714 -0.153203,0.16477 -0.405728,0.426835 -0.553492,0.590959 -0.124501,0.138267 -0.155989,0.175959 -0.25705,0.275985"
       id="path1188-4-7-7-6" />
    <path
       style="opacity:0.99;fill:#ffc8c8;fill-opacity:1;stroke-width:0.264999;paint-order:markers fill stroke"
       d="m 18.769822,14.58314 c -0.332975,-1.157344 0.0036,0.02549 -0.280018,-1.005811 -0.036,-0.13113 -0.140899,-0.483729 -0.173127,-0.59819 -0.04485,-0.159047 -0.08606,-0.328063 -0.129293,-0.489171 -0.03761,-0.140055 -0.07892,-0.27205 -0.11733,-0.407844 -0.06368,-0.225421 6.42e-4,-0.0057 -0.04531,-0.190137 -0.0099,-0.0397 -0.02278,-0.07037 -0.03346,-0.108783 -0.03368,-0.12213 -0.05683,-0.206023 -0.09441,-0.299256 0.02413,0.185414 0.02772,0.31008 0.03464,0.460181 0.0066,0.14367 0.0099,0.284929 0.0076,0.405561 -7.03e-4,0.0377 0.005,0.102559 0.0026,0.135195 -0.0015,0.02058 -0.01273,0.02914 -0.01461,0.05377 -0.0012,0.01414 0.0029,0.04273 0.001,0.05409 -0.0069,0.0388 -0.02436,0.0493 -0.02988,0.08046 -0.0073,0.04105 0.0141,0.02172 -0.0042,0.05396 -0.0038,0.0063 -0.01257,-0.0088 -0.01572,-2.77e-4 -0.0017,0.0046 -0.0095,0.09892 -0.0084,0.107946 0.01161,0.101307 0.161589,0.719106 0.165262,0.733137 0.120358,0.488467 0.10712,0.420667 0.263812,0.978462 0.0464,0.164955 0.276967,1.036956 0.373923,1.278035 0.221293,0.719955 0.45104,1.431415 0.667633,2.17602 0.03311,0.113599 0.09448,0.295363 0.122566,0.407951 0.02356,0.09488 0.02763,0.12043 0.05581,0.190346"
       id="path1188-5-3-8-3-1-2-1-7" />
    <path
       style="opacity:0.99;fill:#ffc8c8;fill-opacity:1;stroke-width:0.264999;paint-order:markers fill stroke"
       d="m 11.163218,5.1105245 c 1.768508,0.8971174 -0.04021,-0.017955 1.540029,0.7752941 0.200926,0.1008636 0.738605,0.3757709 0.913734,0.4641708 0.243359,0.1228425 0.504054,0.2504064 0.751244,0.373851 0.214899,0.1073119 0.415495,0.2111778 0.623214,0.3161377 0.344785,0.1742132 0.0095,0.0034 0.293607,0.1430084 0.06118,0.030073 0.106669,0.055732 0.165573,0.085307 0.18716,0.093962 0.315563,0.1585922 0.454557,0.2358478 C 15.612304,7.374018 15.411177,7.2924496 15.1699,7.1930018 14.938964,7.0978177 14.710865,7.0057199 14.51433,6.9295335 c -0.06146,-0.023827 -0.16475,-0.068098 -0.218524,-0.087818 -0.03389,-0.012457 -0.05144,-0.012796 -0.09203,-0.027595 -0.02327,-0.00849 -0.06832,-0.028771 -0.08741,-0.035129 -0.06522,-0.021722 -0.08796,-0.020264 -0.14035,-0.037664 -0.06902,-0.022865 -0.03061,-0.020501 -0.08896,-0.032618 -0.01174,-0.00249 0.01022,0.011518 -0.0045,0.00747 -0.0082,-0.00226 -0.163621,-0.058978 -0.177926,-0.065246 C 13.544107,6.5805569 12.591013,6.1145941 12.569316,6.1039545 11.816333,5.7346982 11.921883,5.784383 11.068348,5.3537444 10.81592,5.2263875 9.4767948,4.5599046 9.1174664,4.3601661 8.0219675,3.7954931 6.9430324,3.2323182 5.8059981,2.6540302 5.6325114,2.5657933 5.3577864,2.4206476 5.1843262,2.335383 5.038193,2.2635512 4.9980361,2.2452907 4.8938043,2.1873545"
       id="path1188-5-3-8-31" />
    <path
       style="opacity:0.99;fill:#ffc8c8;fill-opacity:1;stroke-width:0.264999;paint-order:markers fill stroke"
       d="m 5.9329291,15.803931 c 0.9867333,0.523927 -0.022173,-0.0095 0.8586005,0.450326 0.1119836,0.05847 0.4122237,0.219909 0.5098881,0.271354 0.1357136,0.0715 0.2806522,0.144048 0.4183554,0.215333 0.1197146,0.06197 0.2318692,0.1235 0.34772,0.184628 0.1922959,0.101465 0.00509,0.0014 0.163163,0.08107 0.034027,0.01716 0.059701,0.03323 0.092526,0.05037 0.1043226,0.05447 0.1759038,0.092 0.2541987,0.139921 -0.1613732,-0.06835 -0.2713359,-0.107506 -0.4034251,-0.156067 -0.1264263,-0.04648 -0.2510918,-0.09048 -0.3581545,-0.125225 -0.033473,-0.01086 -0.090216,-0.03336 -0.119384,-0.04174 -0.018383,-0.0054 -0.027233,-0.0019 -0.049244,-0.0083 -0.012617,-0.0036 -0.03747,-0.01436 -0.047754,-0.0167 -0.035137,-0.0079 -0.04639,-0.0017 -0.074606,-0.008 -0.03717,-0.0084 -0.01762,-0.01403 -0.04825,-0.01387 -0.00612,3.3e-5 0.00636,0.0094 -0.0015,0.0085 -0.00439,-4.81e-4 -0.088633,-0.02449 -0.096501,-0.02774 C 7.2902054,16.771269 6.7603585,16.506406 6.7482936,16.500343 6.3295707,16.289964 6.3880374,16.317381 5.9120678,16.066852 5.7713027,15.992758 5.0255569,15.608842 4.8231465,15.484955 4.2109283,15.151465 3.6071911,14.815989 2.9726213,14.477639 2.8757968,14.426013 2.7218794,14.338846 2.6253992,14.290181 c -0.081284,-0.041 -0.103456,-0.05079 -0.1621693,-0.08672"
       id="path1188-5-3-8-3-2" />
    <path
       style="opacity:0.99;fill:#ffc8c8;fill-opacity:1;stroke-width:0.264999;paint-order:markers fill stroke"
       d="M 4.8603962,4.9251486 C 2.8869363,5.4490677 4.9047298,4.9156449 3.1432009,5.3754688 2.9192221,5.4339276 2.3187547,5.5953742 2.1234269,5.6468184 1.852002,5.7183107 1.5621237,5.7908655 1.2867183,5.8621484 1.0472892,5.9241145 0.82298469,5.9856473 0.59128419,6.0467738 c -0.38459054,0.101463 -0.0101668,0.00136 -0.3263249,0.081064 -0.0680662,0.017163 -0.11939329,0.033229 -0.18505255,0.05037 -0.20863463,0.054466 -0.35180429,0.092004 -0.50839524,0.1399186 0.32274536,-0.068347 0.5426686,-0.1075043 0.80684567,-0.1560623 0.25285502,-0.046477 0.50218138,-0.090477 0.71630673,-0.1252242 0.066957,-0.010861 0.1804308,-0.033353 0.2387681,-0.041748 0.036777,-0.00532 0.054466,-0.00192 0.098488,-0.00825 0.025235,-0.00362 0.074952,-0.014368 0.095507,-0.016699 0.070261,-0.00792 0.092769,-0.00169 0.1492195,-0.00815 0.07434,-0.00849 0.035251,-0.01404 0.096501,-0.013871 0.012328,3.39e-5 -0.012791,0.00927 0.003,0.00849 0.00878,-4.729e-4 0.177258,-0.024472 0.1930018,-0.027731 0.17672,-0.0365 1.2364045,-0.3013704 1.2605321,-0.3074323 C 4.0671036,5.4110634 3.9501725,5.4384814 4.9021058,5.187955 5.1836362,5.1138605 6.6751242,4.7299504 7.0799462,4.6060647 8.3043745,4.2725793 9.5118461,3.9371073 10.78098,3.5987615 c 0.193642,-0.051625 0.501483,-0.1387894 0.694441,-0.1874549 0.162566,-0.04099 0.206913,-0.050788 0.324338,-0.086721"
       id="path1188-3-2" />
    <path
       style="opacity:0.99;fill:#ffc8c8;fill-opacity:1;stroke-width:0.264999;paint-order:markers fill stroke"
       d="M 5.4195909,0.86173753 C 3.9394964,0.33781036 5.4528439,0.87124118 4.1316952,0.41141274 3.9637118,0.35294267 3.5133615,0.19150395 3.3668653,0.14005752 3.1632971,0.06856518 2.9458894,-0.00399066 2.7393344,-0.07527369 2.5597644,-0.13723974 2.3915348,-0.19877475 2.2177581,-0.25990245 1.929316,-0.3613652 2.2101357,-0.26126001 1.9730152,-0.34096629 1.9219685,-0.35812944 1.88347,-0.37419507 1.8342258,-0.39133561 1.6777504,-0.44580055 1.5703723,-0.48334 1.4529293,-0.53125649 c 0.24206,0.0683471 0.4070023,0.10750438 0.6051342,0.15606577 0.1896407,0.0464774 0.3766368,0.090477 0.5372301,0.12522642 0.050214,0.0108614 0.1353232,0.0333533 0.1790766,0.0417369 0.02758,0.005318 0.040845,0.001923 0.073866,0.008259 0.018926,0.003621 0.056211,0.0143686 0.071625,0.0166993 0.052699,0.007919 0.06958,0.001697 0.1119143,0.008033 0.055749,0.008373 0.026436,0.0140292 0.072376,0.0138708 0.00924,-3.507e-5 -0.00959,-0.00939 0.00219,-0.008485 0.00659,4.8084e-4 0.1329442,0.0244945 0.1447526,0.0277416 C 3.3836296,-0.1056104 4.1783907,0.15926315 4.196488,0.16532512 4.824554,0.37570537 4.7368551,0.34828734 5.4508047,0.59881713 5.6619513,0.67291165 6.780567,1.0568252 7.0841822,1.1807143 8.002503,1.514203 8.9081047,1.8496796 9.8599548,2.188031 c 0.1452322,0.051625 0.3761102,0.1387918 0.5208312,0.1874572 0.121923,0.041001 0.155183,0.050788 0.243252,0.086721"
       id="path1188-4-1" />
    <path
       style="opacity:0.99;fill:#ffc8c8;fill-opacity:1;stroke-width:0.264999;paint-order:markers fill stroke"
       d="M 9.8126246,2.1163845 C 7.8391573,2.6403116 9.8569538,2.1068784 8.0954219,2.5667104 7.8714433,2.6251803 7.2709746,2.7866192 7.0756457,2.8380656 6.8042184,2.909558 6.5143413,2.9821126 6.2389324,3.0533969 5.9995045,3.1153632 5.7751964,3.1768979 5.5434937,3.2380256 5.1589008,3.3394886 5.533327,3.2393821 5.2171676,3.3190894 5.1491015,3.3362529 5.0977743,3.3523187 5.032114,3.3694591 4.8234793,3.4239237 4.6803074,3.4614632 4.5237163,3.5093786 4.8464641,3.4410315 5.0663885,3.4018742 5.3305655,3.3533128 5.5834217,3.3068354 5.8327504,3.2628357 6.0468768,3.2280874 c 0.066957,-0.010862 0.180432,-0.033365 0.2387705,-0.041748 0.036777,-0.00532 0.054467,-0.00192 0.098488,-0.00825 0.025235,-0.00362 0.074952,-0.014368 0.095507,-0.016699 0.070261,-0.00792 0.092769,-0.00169 0.1492195,-0.00803 0.074328,-0.00837 0.035252,-0.014029 0.096501,-0.013871 0.012328,3.4e-5 -0.012791,0.00939 0.00289,0.00849 0.00878,-4.819e-4 0.1772604,-0.024494 0.1930041,-0.027741 C 7.0979719,3.0837225 8.1576588,2.8188479 8.1817887,2.812786 9.019213,2.6024068 8.9022804,2.6298249 9.8542189,2.379295 10.135751,2.305201 11.627245,1.9212847 12.032067,1.7973967 13.256503,1.4639068 14.46398,1.1284314 15.73312,0.79008114 c 0.193643,-0.0516252 0.501484,-0.13879288 0.694445,-0.18745722 0.162565,-0.0410015 0.206911,-0.050788 0.324338,-0.0867208"
       id="path1188-5-6-0" />
    <path
       style="opacity:0.99;fill:#ffc8c8;fill-opacity:1;stroke-width:0.264999;paint-order:markers fill stroke"
       d="m 6.0566052,13.246247 c 0.9867329,0.523927 -0.022173,-0.0095 0.8586001,0.450325 0.1119835,0.05847 0.4122236,0.219909 0.5098881,0.271354 0.1357136,0.0715 0.2806522,0.144048 0.4183554,0.215333 0.1197146,0.06197 0.2318691,0.123501 0.3477199,0.184628 0.1922959,0.101465 0.00509,0.0014 0.1631631,0.08107 0.034027,0.01716 0.059701,0.03323 0.092526,0.05037 0.1043226,0.05446 0.1759038,0.092 0.2541987,0.139919 C 8.5396832,14.57089 8.4297205,14.531737 8.2976314,14.483176 8.171205,14.436697 8.0465395,14.3927 7.9394769,14.35795 7.9060039,14.34709 7.8492609,14.32459 7.8200928,14.31621 c -0.018383,-0.0054 -0.027233,-0.0019 -0.049244,-0.0083 -0.012617,-0.0036 -0.03747,-0.01436 -0.047754,-0.0167 -0.035137,-0.0079 -0.04639,-0.0017 -0.074606,-0.008 -0.03717,-0.0084 -0.01762,-0.01403 -0.04825,-0.01387 -0.00612,3.3e-5 0.00636,0.0094 -0.0015,0.0085 -0.00439,-4.81e-4 -0.088633,-0.02449 -0.096501,-0.02774 C 7.4138811,14.213584 6.8840342,13.948722 6.8719693,13.942659 6.4532463,13.73228 6.5117131,13.759697 6.035744,13.509168 5.8949788,13.435074 5.149233,13.051158 4.9468226,12.927271 4.3346044,12.59378 3.7308672,12.258305 3.0962974,11.919955 2.9994729,11.868329 2.8455555,11.781161 2.7490755,11.732497 c -0.081284,-0.041 -0.1034572,-0.05079 -0.1621695,-0.08672"
       id="path1188-5-3-8-3-1-7" />
    <path
       style="opacity:0.99;fill:#ffc8c8;fill-opacity:1;stroke-width:0.264999;paint-order:markers fill stroke"
       d="m 4.8246877,17.023814 c 1.363481,-0.769701 -0.028863,0.01876 1.1820809,-0.673342 0.1539728,-0.08799 0.5704194,-0.320893 0.7050529,-0.397341 0.1870871,-0.106225 0.3839296,-0.222128 0.57278,-0.330727 0.1641741,-0.09442 0.3206992,-0.180619 0.4804826,-0.271238 0.2652169,-0.150413 0.006,-0.0048 0.2211122,-0.130869 0.046321,-0.02713 0.083687,-0.04559 0.1288227,-0.07138 0.1434261,-0.08197 0.2419768,-0.138114 0.3551181,-0.195097 -0.2094575,0.137061 -0.3463958,0.235239 -0.51208,0.352188 -0.1585818,0.11194 -0.3135229,0.223499 -0.4442173,0.321265 -0.040867,0.03057 -0.1133124,0.07975 -0.1480768,0.107085 -0.021941,0.01722 -0.027845,0.02933 -0.054085,0.04995 -0.015032,0.01183 -0.047464,0.0328 -0.059227,0.04283 -0.040174,0.03432 -0.046205,0.05097 -0.078453,0.07856 -0.042485,0.03632 -0.027996,0.01075 -0.057506,0.04522 -0.0059,0.0069 0.013518,-0.0012 0.0052,0.0071 -0.00462,0.0046 -0.1048549,0.08368 -0.1150108,0.09043 -0.113971,0.07563 -0.8332621,0.499558 -0.8496646,0.509191 -0.5692595,0.334321 -0.4912996,0.286376 -1.1472863,0.659072 -0.1940059,0.11022 -1.2150785,0.699716 -1.5075843,0.847022 -0.8525414,0.47213 -1.69843,0.933461 -2.57638846,1.427547 -0.13395858,0.07539 -0.35089269,0.191944 -0.48220993,0.268857 -0.11063178,0.0648 -0.13972191,0.08337 -0.22456685,0.126104"
       id="path1188-9-0" />
    <path
       style="opacity:0.99;fill:#ffc8c8;fill-opacity:1;stroke-width:0.264999;paint-order:markers fill stroke"
       d="M 8.7878242,5.0789176 C 7.7226178,6.3712839 8.8131046,5.0522508 7.8576556,6.1976601 7.7361744,6.3433024 7.4132546,6.7386395 7.3075807,6.8661265 7.1607391,7.0432824 7.0016733,7.2285244 6.8519397,7.4069757 6.7217651,7.5621104 6.6018635,7.7110677 6.4765659,7.8623952 c -0.2079658,0.2511882 -0.00624,0.0052 -0.1794234,0.207898 -0.037239,0.04366 -0.063537,0.079785 -0.099147,0.1224817 C 6.0848336,8.328444 6.0072747,8.4217031 5.9265003,8.530865 6.1109358,8.3375675 6.2409925,8.2135879 6.3963218,8.0630693 6.5449912,7.919003 6.6926739,7.7788592 6.8212863,7.6616543 c 0.04022,-0.036646 0.1059749,-0.1030014 0.1416571,-0.1338012 0.022473,-0.019449 0.036812,-0.022571 0.063722,-0.045844 0.015448,-0.013305 0.043686,-0.043355 0.056673,-0.053492 0.044264,-0.034801 0.063607,-0.036872 0.099158,-0.06484 0.046864,-0.036793 0.016268,-0.027945 0.058996,-0.050969 0.00855,-0.00464 -0.00335,0.014618 0.00705,0.0077 0.0059,-0.00385 0.108991,-0.092581 0.1180774,-0.1018699 C 7.4681571,7.1136635 8.0498416,6.4368568 8.0630701,6.4214145 8.52213,5.8854562 8.4568752,5.9582541 8.9719913,5.3371477 9.1243011,5.1534171 9.9364727,4.1892481 10.145295,3.9070384 10.801228,3.0964178 11.44418,2.2901429 12.128381,1.4575485 12.232774,1.3305119 12.395723,1.123244 12.501392,0.99955402 12.590402,0.89534197 12.615525,0.86837763 12.676093,0.78651274"
       id="path1188-4-7-7-2" />
    <path
       style="opacity:0.99;fill:#ffc8c8;fill-opacity:1;stroke-width:0.264999;paint-order:markers fill stroke"
       d="M 8.0045451,10.582398 C 7.9551161,9.3823736 8.0032741,10.608058 7.967456,9.5414218 7.9629498,9.4058092 7.945711,9.0394977 7.9412626,8.9209589 7.9350233,8.7562346 7.9324814,8.5825147 7.9275477,8.4161046 c -0.00427,-0.144667 -0.012028,-0.2822142 -0.017412,-0.422883 -0.0089,-0.2334933 0.00116,-0.00543 -0.00219,-0.1952128 -7.522e-4,-0.040854 -0.00462,-0.073495 -0.006,-0.1132417 -0.00428,-0.1263341 -0.00728,-0.2131182 -0.018001,-0.3120048 -0.010401,0.1862387 -0.025326,0.3088539 -0.041665,0.4570272 -0.015656,0.1418159 -0.033022,0.2806031 -0.051173,0.3980388 -0.00566,0.036713 -0.010977,0.1013042 -0.017065,0.1326845 -0.00381,0.01981 -0.012005,0.025863 -0.016569,0.049555 -0.00266,0.013588 -0.00405,0.042371 -0.00681,0.053085 -0.00971,0.03651 -0.022069,0.043174 -0.029821,0.072499 -0.010284,0.038626 0.0059,0.024132 -0.01005,0.051885 -0.00324,0.00543 -0.0067,-0.011201 -0.00983,-0.00351 -0.00174,0.00419 -0.019584,0.094754 -0.020174,0.1037932 -0.0067,0.1014293 0.00231,0.7363 0.00266,0.7507738 0.00821,0.5023256 0.00924,0.4333178 0.030688,1.0109032 0.00636,0.170819 0.030885,1.070797 0.058487,1.326449 0.039631,0.74942 0.085733,1.492276 0.1190189,2.264829 0.00509,0.117875 0.018579,0.308211 0.020682,0.424066 0.00174,0.09761 7.741e-4,0.123425 0.00878,0.19758"
       id="path1188-5-3-8-3-1-2-1-5" />
    <text
       xml:space="preserve"
       style="font-weight:bold;font-size:57.1676px;font-family:'Microsoft Uighur';-inkscape-font-specification:'Microsoft Uighur, Bold';display:inline;opacity:0.99;fill:#ffb400;fill-opacity:1;stroke-width:0.264999;paint-order:markers fill stroke"
       x="4.8933015"
       y="26.999321"
       id="text186"
       transform="scale(1.0650069,0.93896106)"><tspan
         sodipodi:role="line"
         id="tspan184"
         x="0"
         y="0"
         style="fill:#ffb400;fill-opacity:1;stroke-width:0.265">?</tspan></text>
  </g>
</svg>
